solid robot
facet normal 0.35922358610624805 -6.054711466352416e-15 -0.9332515283592988
outer loop
vertex 161.28581403095203 164.88478262933359 7.798108291432319
vertex 166.0444817851463 158.88478262933364 9.62979636673088
vertex 161.28581403095188 158.88478262933364 7.798108291432336
endloop
endfacet
facet normal 0.35922358610624805 -6.054711466352416e-15 -0.9332515283592988
outer loop
vertex 166.0444817851463 158.88478262933364 9.62979636673088
vertex 161.28581403095203 164.88478262933359 7.798108291432319
vertex 166.0444817851463 164.88478262933356 9.629796366730856
endloop
endfacet
facet normal 1.4934511180438772e-14 1.0 5.692282065476531e-15
outer loop
vertex 161.6242580788211 164.88478262933359 5.826952380180781
vertex 167.14442494072097 164.8847826293335 3.223539655163316
vertex 162.21653516259204 164.8847826293336 2.377429535490555
endloop
endfacet
facet normal 1.4934511180438772e-14 1.0 5.692282065476531e-15
outer loop
vertex 167.14442494072097 164.8847826293335 3.223539655163316
vertex 161.6242580788211 164.88478262933359 5.826952380180781
vertex 166.55214785694994 164.8847826293335 6.673062499853538
endloop
endfacet
facet normal 3.1721220054729868e-15 1.0 -3.510857508257804e-15
outer loop
vertex 159.75037238700745 164.8847826293336 16.740782544086326
vertex 166.0444817851463 164.88478262933356 9.629796366730856
vertex 161.28581403095203 164.88478262933359 7.798108291432319
endloop
endfacet
facet normal 3.1721220054729868e-15 1.0 -3.510857508257804e-15
outer loop
vertex 166.0444817851463 164.88478262933356 9.629796366730856
vertex 159.75037238700745 164.8847826293336 16.740782544086326
vertex 164.67826216513632 164.8847826293336 17.586892663759087
endloop
endfacet
facet normal 0.9855779556257808 3.374409717759502e-15 0.1692220239345531
outer loop
vertex 162.64127886707647 154.88478262933359 -0.09635030827641822
vertex 162.21653516259195 158.88478262933359 2.3774295354905384
vertex 159.3950061367449 154.88478262933367 18.810496250900478
endloop
endfacet
facet normal 0.9855779556257808 3.374409717759502e-15 0.1692220239345531
outer loop
vertex 162.21653516259195 158.88478262933359 2.3774295354905384
vertex 162.64127886707647 154.88478262933359 -0.09635030827641822
vertex 162.64127886707658 168.88478262933356 -0.09635030827639988
endloop
endfacet
facet normal 0.9855779556257808 3.374409717759502e-15 0.1692220239345531
outer loop
vertex 162.21653516259195 158.88478262933359 2.3774295354905384
vertex 162.64127886707658 168.88478262933356 -0.09635030827639988
vertex 162.21653516259204 164.8847826293336 2.377429535490555
endloop
endfacet
facet normal 0.9855779556257808 3.374409717759502e-15 0.1692220239345531
outer loop
vertex 162.21653516259204 164.8847826293336 2.377429535490555
vertex 162.64127886707658 168.88478262933356 -0.09635030827639988
vertex 159.75037238700745 164.8847826293336 16.740782544086326
endloop
endfacet
facet normal 0.9855779556257808 3.374409717759502e-15 0.1692220239345531
outer loop
vertex 159.75037238700745 164.8847826293336 16.740782544086326
vertex 162.64127886707658 168.88478262933356 -0.09635030827639988
vertex 159.39500613674474 168.88478262933353 18.81049625090043
endloop
endfacet
facet normal 0.9855779556257808 3.374409717759502e-15 0.1692220239345531
outer loop
vertex 159.3950061367449 154.88478262933367 18.810496250900478
vertex 159.75037238700745 158.88478262933367 16.740782544086336
vertex 159.39500613674474 168.88478262933353 18.81049625090043
endloop
endfacet
facet normal 0.9855779556257808 3.374409717759502e-15 0.1692220239345531
outer loop
vertex 159.75037238700745 158.88478262933367 16.740782544086336
vertex 159.3950061367449 154.88478262933367 18.810496250900478
vertex 162.21653516259195 158.88478262933359 2.3774295354905384
endloop
endfacet
facet normal 0.9855779556257808 3.374409717759502e-15 0.1692220239345531
outer loop
vertex 159.75037238700745 158.88478262933367 16.740782544086336
vertex 162.21653516259195 158.88478262933359 2.3774295354905384
vertex 161.28581403095188 158.88478262933364 7.798108291432336
endloop
endfacet
facet normal 0.9855779556257808 3.374409717759502e-15 0.1692220239345531
outer loop
vertex 161.28581403095188 158.88478262933364 7.798108291432336
vertex 162.21653516259195 158.88478262933359 2.3774295354905384
vertex 161.6242580788211 158.88478262933364 5.8269523801807726
endloop
endfacet
facet normal 0.9855779556257808 3.374409717759502e-15 0.1692220239345531
outer loop
vertex 159.39500613674474 168.88478262933353 18.81049625090043
vertex 159.75037238700745 158.88478262933367 16.740782544086336
vertex 159.75037238700745 164.8847826293336 16.740782544086326
endloop
endfacet
facet normal 0.9855779556257808 3.374409717759502e-15 0.1692220239345531
outer loop
vertex 161.6242580788211 164.88478262933359 5.826952380180781
vertex 161.28581403095188 158.88478262933364 7.798108291432336
vertex 161.6242580788211 158.88478262933364 5.8269523801807726
endloop
endfacet
facet normal 0.9855779556257808 3.374409717759502e-15 0.1692220239345531
outer loop
vertex 161.28581403095188 158.88478262933364 7.798108291432336
vertex 161.6242580788211 164.88478262933359 5.826952380180781
vertex 161.28581403095203 164.88478262933359 7.798108291432319
endloop
endfacet
facet normal 0.9855779556257808 3.374409717759502e-15 0.1692220239345531
outer loop
vertex 161.28581403095203 164.88478262933359 7.798108291432319
vertex 161.6242580788211 164.88478262933359 5.826952380180781
vertex 162.21653516259204 164.8847826293336 2.377429535490555
endloop
endfacet
facet normal 0.9855779556257808 3.374409717759502e-15 0.1692220239345531
outer loop
vertex 161.28581403095203 164.88478262933359 7.798108291432319
vertex 162.21653516259204 164.8847826293336 2.377429535490555
vertex 159.75037238700745 164.8847826293336 16.740782544086326
endloop
endfacet
facet normal 0.9855779556257818 -7.637586478255715e-15 0.16922202393454827
outer loop
vertex 167.14442494072097 164.8847826293335 3.223539655163316
vertex 166.55214785694994 158.88478262933356 6.673062499853527
vertex 167.14442494072088 158.88478262933356 3.2235396551632935
endloop
endfacet
facet normal 0.9855779556257818 -7.637586478255715e-15 0.16922202393454827
outer loop
vertex 166.55214785694994 158.88478262933356 6.673062499853527
vertex 167.14442494072097 164.8847826293335 3.223539655163316
vertex 166.55214785694994 164.8847826293335 6.673062499853538
endloop
endfacet
facet normal -0.27630838065557634 -8.892415986865476e-15 0.9610690291438453
outer loop
vertex 115.31797468330524 159.28478262933373 9.25982620883116
vertex 109.93598812009952 164.48478262933378 7.712499277159937
vertex 109.93598812009942 159.2847826293338 7.712499277159903
endloop
endfacet
facet normal -0.27630838065557634 -8.892415986865476e-15 0.9610690291438453
outer loop
vertex 109.93598812009952 164.48478262933378 7.712499277159937
vertex 115.31797468330524 159.28478262933373 9.25982620883116
vertex 115.31797468330514 164.48478262933367 9.259826208831223
endloop
endfacet
facet normal 0.9855779556257802 4.51561031395707e-16 0.16922202393455688
outer loop
vertex 166.0444817851463 164.88478262933356 9.629796366730856
vertex 164.67826216513632 158.88478262933367 17.586892663759095
vertex 166.0444817851463 158.88478262933364 9.62979636673088
endloop
endfacet
facet normal 0.9855779556257802 4.51561031395707e-16 0.16922202393455688
outer loop
vertex 164.67826216513632 158.88478262933367 17.586892663759095
vertex 166.0444817851463 164.88478262933356 9.629796366730856
vertex 164.67826216513632 164.8847826293336 17.586892663759087
endloop
endfacet
facet normal -1.576189385330086e-15 -1.0 -8.145505172103384e-15
outer loop
vertex 116.14689982527173 159.2847826293338 6.37661912139959
vertex 109.93598812009942 159.2847826293338 7.712499277159903
vertex 110.76491326206603 159.2847826293338 4.829292189728403
endloop
endfacet
facet normal -1.576189385330086e-15 -1.0 -8.145505172103384e-15
outer loop
vertex 109.93598812009942 159.2847826293338 7.712499277159903
vertex 116.14689982527173 159.2847826293338 6.37661912139959
vertex 115.31797468330524 159.28478262933373 9.25982620883116
endloop
endfacet
facet normal -1.3202745268651912e-15 -1.0 5.236792168472435e-15
outer loop
vertex 166.0444817851463 158.88478262933364 9.62979636673088
vertex 159.75037238700745 158.88478262933367 16.740782544086336
vertex 161.28581403095188 158.88478262933364 7.798108291432336
endloop
endfacet
facet normal -1.3202745268651912e-15 -1.0 5.236792168472435e-15
outer loop
vertex 159.75037238700745 158.88478262933367 16.740782544086336
vertex 166.0444817851463 158.88478262933364 9.62979636673088
vertex 164.67826216513632 158.88478262933367 17.586892663759095
endloop
endfacet
facet normal 2.400528551995489e-14 1.0 1.4593894460067703e-14
outer loop
vertex 109.93598812009952 164.48478262933378 7.712499277159937
vertex 116.14689982527182 164.48478262933364 6.376619121399578
vertex 110.76491326206624 164.48478262933384 4.829292189728383
endloop
endfacet
facet normal 2.400528551995489e-14 1.0 1.4593894460067703e-14
outer loop
vertex 116.14689982527182 164.48478262933364 6.376619121399578
vertex 109.93598812009952 164.48478262933378 7.712499277159937
vertex 115.31797468330514 164.48478262933367 9.259826208831223
endloop
endfacet
facet normal -0.9610690291438394 -1.2762133179411873e-15 -0.2763083806555962
outer loop
vertex 106.53620953383319 168.88478262933376 3.613535314843856
vertex 107.64144305645567 154.88478262933387 -0.23074080173151323
vertex 106.53620953383316 154.88478262933373 3.6135353148438543
endloop
endfacet
facet normal -0.9610690291438394 -1.2762133179411873e-15 -0.2763083806555962
outer loop
vertex 107.64144305645567 154.88478262933387 -0.23074080173151323
vertex 106.53620953383319 168.88478262933376 3.613535314843856
vertex 107.64144305645563 168.8847826293337 -0.23074080173156894
endloop
endfacet
facet normal -0.16922202393455227 -1.2620088184993402e-15 0.985577955625781
outer loop
vertex 166.55214785694994 158.88478262933356 6.673062499853527
vertex 161.6242580788211 164.88478262933359 5.826952380180781
vertex 161.6242580788211 158.88478262933364 5.8269523801807726
endloop
endfacet
facet normal -0.16922202393455227 -1.2620088184993402e-15 0.985577955625781
outer loop
vertex 161.6242580788211 164.88478262933359 5.826952380180781
vertex 166.55214785694994 158.88478262933356 6.673062499853527
vertex 166.55214785694994 164.8847826293335 6.673062499853538
endloop
endfacet
facet normal 0.002443463517366016 -1.2942524919610293e-15 -0.9999970147385638
outer loop
vertex 162.64127886707658 168.88478262933356 -0.09635030827639988
vertex 107.64144305645567 154.88478262933387 -0.23074080173151323
vertex 107.64144305645563 168.8847826293337 -0.23074080173156894
endloop
endfacet
facet normal 0.002443463517366016 -1.2942524919610293e-15 -0.9999970147385638
outer loop
vertex 107.64144305645567 154.88478262933387 -0.23074080173151323
vertex 162.64127886707658 168.88478262933356 -0.09635030827639988
vertex 162.64127886707647 154.88478262933359 -0.09635030827641822
endloop
endfacet
facet normal -1.2669124004774273e-14 -1.0 7.77659543516064e-15
outer loop
vertex 167.14442494072088 158.88478262933356 3.2235396551632935
vertex 161.6242580788211 158.88478262933364 5.8269523801807726
vertex 162.21653516259195 158.88478262933359 2.3774295354905384
endloop
endfacet
facet normal -1.2669124004774273e-14 -1.0 7.77659543516064e-15
outer loop
vertex 161.6242580788211 158.88478262933364 5.8269523801807726
vertex 167.14442494072088 158.88478262933356 3.2235396551632935
vertex 166.55214785694994 158.88478262933356 6.673062499853527
endloop
endfacet
facet normal 0.16922202393455227 3.5050182122023055e-16 -0.985577955625781
outer loop
vertex 162.21653516259204 164.8847826293336 2.377429535490555
vertex 167.14442494072088 158.88478262933356 3.2235396551632935
vertex 162.21653516259195 158.88478262933359 2.3774295354905384
endloop
endfacet
facet normal 0.16922202393455227 3.5050182122023055e-16 -0.985577955625781
outer loop
vertex 167.14442494072088 158.88478262933356 3.2235396551632935
vertex 162.21653516259204 164.8847826293336 2.377429535490555
vertex 167.14442494072097 164.8847826293335 3.223539655163316
endloop
endfacet
facet normal 2.932277425118077e-15 1.0 2.1926848316627443e-15
outer loop
vertex 106.53620953383319 168.88478262933376 3.613535314843856
vertex 162.64127886707658 168.88478262933356 -0.09635030827639988
vertex 107.64144305645563 168.8847826293337 -0.23074080173156894
endloop
endfacet
facet normal 2.932277425118077e-15 1.0 2.1926848316627443e-15
outer loop
vertex 162.64127886707658 168.88478262933356 -0.09635030827639988
vertex 106.53620953383319 168.88478262933376 3.613535314843856
vertex 159.39500613674474 168.88478262933353 18.81049625090043
endloop
endfacet
facet normal -0.1692220239345517 2.006523389749435e-15 0.9855779556257811
outer loop
vertex 164.67826216513632 158.88478262933367 17.586892663759095
vertex 159.75037238700745 164.8847826293336 16.740782544086326
vertex 159.75037238700745 158.88478262933367 16.740782544086336
endloop
endfacet
facet normal -0.1692220239345517 2.006523389749435e-15 0.9855779556257811
outer loop
vertex 159.75037238700745 164.8847826293336 16.740782544086326
vertex 164.67826216513632 158.88478262933367 17.586892663759095
vertex 164.67826216513632 164.8847826293336 17.586892663759087
endloop
endfacet
facet normal -0.9610690291438552 2.4927732243345915e-14 -0.27630838065554153
outer loop
vertex 109.93598812009952 164.48478262933378 7.712499277159937
vertex 110.76491326206603 159.2847826293338 4.829292189728403
vertex 109.93598812009942 159.2847826293338 7.712499277159903
endloop
endfacet
facet normal -0.9610690291438552 2.4927732243345915e-14 -0.27630838065554153
outer loop
vertex 110.76491326206603 159.2847826293338 4.829292189728403
vertex 109.93598812009952 164.48478262933378 7.712499277159937
vertex 110.76491326206624 164.48478262933384 4.829292189728383
endloop
endfacet
facet normal -0.27630838065557384 -2.319195057112597e-16 0.9610690291438458
outer loop
vertex 106.53620953383316 154.88478262933373 3.6135353148438543
vertex 110.76491326206603 159.2847826293338 4.829292189728403
vertex 106.53620953383319 168.88478262933376 3.613535314843856
endloop
endfacet
facet normal -0.27630838065557384 -2.319195057112597e-16 0.9610690291438458
outer loop
vertex 110.76491326206603 159.2847826293338 4.829292189728403
vertex 106.53620953383316 154.88478262933373 3.6135353148438543
vertex 159.3950061367449 154.88478262933367 18.810496250900478
endloop
endfacet
facet normal -0.27630838065557384 -2.319195057112597e-16 0.9610690291438458
outer loop
vertex 110.76491326206603 159.2847826293338 4.829292189728403
vertex 159.3950061367449 154.88478262933367 18.810496250900478
vertex 116.14689982527173 159.2847826293338 6.37661912139959
endloop
endfacet
facet normal -0.27630838065557384 -2.319195057112597e-16 0.9610690291438458
outer loop
vertex 116.14689982527173 159.2847826293338 6.37661912139959
vertex 159.3950061367449 154.88478262933367 18.810496250900478
vertex 116.14689982527182 164.48478262933364 6.376619121399578
endloop
endfacet
facet normal -0.27630838065557384 -2.319195057112597e-16 0.9610690291438458
outer loop
vertex 116.14689982527182 164.48478262933364 6.376619121399578
vertex 159.3950061367449 154.88478262933367 18.810496250900478
vertex 159.39500613674474 168.88478262933353 18.81049625090043
endloop
endfacet
facet normal -0.27630838065557384 -2.319195057112597e-16 0.9610690291438458
outer loop
vertex 106.53620953383319 168.88478262933376 3.613535314843856
vertex 110.76491326206624 164.48478262933384 4.829292189728383
vertex 159.39500613674474 168.88478262933353 18.81049625090043
endloop
endfacet
facet normal -0.27630838065557384 -2.319195057112597e-16 0.9610690291438458
outer loop
vertex 110.76491326206624 164.48478262933384 4.829292189728383
vertex 106.53620953383319 168.88478262933376 3.613535314843856
vertex 110.76491326206603 159.2847826293338 4.829292189728403
endloop
endfacet
facet normal -0.27630838065557384 -2.319195057112597e-16 0.9610690291438458
outer loop
vertex 159.39500613674474 168.88478262933353 18.81049625090043
vertex 110.76491326206624 164.48478262933384 4.829292189728383
vertex 116.14689982527182 164.48478262933364 6.376619121399578
endloop
endfacet
facet normal -3.2454963088837388e-15 -1.0 1.5850140608683066e-15
outer loop
vertex 162.64127886707647 154.88478262933359 -0.09635030827641822
vertex 106.53620953383316 154.88478262933373 3.6135353148438543
vertex 107.64144305645567 154.88478262933387 -0.23074080173151323
endloop
endfacet
facet normal -3.2454963088837388e-15 -1.0 1.5850140608683066e-15
outer loop
vertex 106.53620953383316 154.88478262933373 3.6135353148438543
vertex 162.64127886707647 154.88478262933359 -0.09635030827641822
vertex 159.3950061367449 154.88478262933367 18.810496250900478
endloop
endfacet
facet normal 0.9610690291438582 -9.967623092919997e-16 0.2763083806555317
outer loop
vertex 116.14689982527173 159.2847826293338 6.37661912139959
vertex 115.31797468330514 164.48478262933367 9.259826208831223
vertex 115.31797468330524 159.28478262933373 9.25982620883116
endloop
endfacet
facet normal 0.9610690291438582 -9.967623092919997e-16 0.2763083806555317
outer loop
vertex 115.31797468330514 164.48478262933367 9.259826208831223
vertex 116.14689982527173 159.2847826293338 6.37661912139959
vertex 116.14689982527182 164.48478262933364 6.376619121399578
endloop
endfacet
facet normal 0.35922358610624805 -6.054711466352416e-15 -0.9332515283592988
outer loop
vertex 161.28581403095203 143.78478262933356 7.798108291432318
vertex 166.0444817851463 137.78478262933362 9.629796366730877
vertex 161.28581403095188 137.78478262933362 7.798108291432335
endloop
endfacet
facet normal 0.35922358610624805 -6.054711466352416e-15 -0.9332515283592988
outer loop
vertex 166.0444817851463 137.78478262933362 9.629796366730877
vertex 161.28581403095203 143.78478262933356 7.798108291432318
vertex 166.0444817851463 143.78478262933356 9.629796366730854
endloop
endfacet
facet normal 1.4934511180438772e-14 1.0 5.692282065476531e-15
outer loop
vertex 161.6242580788211 143.78478262933356 5.8269523801807805
vertex 167.14442494072097 143.7847826293335 3.2235396551633153
vertex 162.21653516259204 143.7847826293336 2.377429535490554
endloop
endfacet
facet normal 1.4934511180438772e-14 1.0 5.692282065476531e-15
outer loop
vertex 167.14442494072097 143.7847826293335 3.2235396551633153
vertex 161.6242580788211 143.78478262933356 5.8269523801807805
vertex 166.55214785694994 143.7847826293335 6.673062499853537
endloop
endfacet
facet normal 3.1721220054729868e-15 1.0 -3.510857508257804e-15
outer loop
vertex 159.75037238700745 143.7847826293336 16.740782544086326
vertex 166.0444817851463 143.78478262933356 9.629796366730854
vertex 161.28581403095203 143.78478262933356 7.798108291432318
endloop
endfacet
facet normal 3.1721220054729868e-15 1.0 -3.510857508257804e-15
outer loop
vertex 166.0444817851463 143.78478262933356 9.629796366730854
vertex 159.75037238700745 143.7847826293336 16.740782544086326
vertex 164.67826216513632 143.7847826293336 17.586892663759087
endloop
endfacet
facet normal 0.9855779556257808 3.374409717759502e-15 0.1692220239345531
outer loop
vertex 162.64127886707647 133.7847826293336 -0.09635030827641901
vertex 162.21653516259195 137.7847826293336 2.377429535490538
vertex 159.3950061367449 133.78478262933365 18.810496250900478
endloop
endfacet
facet normal 0.9855779556257808 3.374409717759502e-15 0.1692220239345531
outer loop
vertex 162.21653516259195 137.7847826293336 2.377429535490538
vertex 162.64127886707647 133.7847826293336 -0.09635030827641901
vertex 162.64127886707658 147.78478262933356 -0.09635030827640068
endloop
endfacet
facet normal 0.9855779556257808 3.374409717759502e-15 0.1692220239345531
outer loop
vertex 162.21653516259195 137.7847826293336 2.377429535490538
vertex 162.64127886707658 147.78478262933356 -0.09635030827640068
vertex 162.21653516259204 143.7847826293336 2.377429535490554
endloop
endfacet
facet normal 0.9855779556257808 3.374409717759502e-15 0.1692220239345531
outer loop
vertex 162.21653516259204 143.7847826293336 2.377429535490554
vertex 162.64127886707658 147.78478262933356 -0.09635030827640068
vertex 159.75037238700745 143.7847826293336 16.740782544086326
endloop
endfacet
facet normal 0.9855779556257808 3.374409717759502e-15 0.1692220239345531
outer loop
vertex 159.75037238700745 143.7847826293336 16.740782544086326
vertex 162.64127886707658 147.78478262933356 -0.09635030827640068
vertex 159.39500613674474 147.7847826293335 18.81049625090043
endloop
endfacet
facet normal 0.9855779556257808 3.374409717759502e-15 0.1692220239345531
outer loop
vertex 159.3950061367449 133.78478262933365 18.810496250900478
vertex 159.75037238700745 137.78478262933368 16.740782544086336
vertex 159.39500613674474 147.7847826293335 18.81049625090043
endloop
endfacet
facet normal 0.9855779556257808 3.374409717759502e-15 0.1692220239345531
outer loop
vertex 159.75037238700745 137.78478262933368 16.740782544086336
vertex 159.3950061367449 133.78478262933365 18.810496250900478
vertex 162.21653516259195 137.7847826293336 2.377429535490538
endloop
endfacet
facet normal 0.9855779556257808 3.374409717759502e-15 0.1692220239345531
outer loop
vertex 159.75037238700745 137.78478262933368 16.740782544086336
vertex 162.21653516259195 137.7847826293336 2.377429535490538
vertex 161.28581403095188 137.78478262933362 7.798108291432335
endloop
endfacet
facet normal 0.9855779556257808 3.374409717759502e-15 0.1692220239345531
outer loop
vertex 161.28581403095188 137.78478262933362 7.798108291432335
vertex 162.21653516259195 137.7847826293336 2.377429535490538
vertex 161.6242580788211 137.78478262933362 5.826952380180772
endloop
endfacet
facet normal 0.9855779556257808 3.374409717759502e-15 0.1692220239345531
outer loop
vertex 159.39500613674474 147.7847826293335 18.81049625090043
vertex 159.75037238700745 137.78478262933368 16.740782544086336
vertex 159.75037238700745 143.7847826293336 16.740782544086326
endloop
endfacet
facet normal 0.9855779556257808 3.374409717759502e-15 0.1692220239345531
outer loop
vertex 161.6242580788211 143.78478262933356 5.8269523801807805
vertex 161.28581403095188 137.78478262933362 7.798108291432335
vertex 161.6242580788211 137.78478262933362 5.826952380180772
endloop
endfacet
facet normal 0.9855779556257808 3.374409717759502e-15 0.1692220239345531
outer loop
vertex 161.28581403095188 137.78478262933362 7.798108291432335
vertex 161.6242580788211 143.78478262933356 5.8269523801807805
vertex 161.28581403095203 143.78478262933356 7.798108291432318
endloop
endfacet
facet normal 0.9855779556257808 3.374409717759502e-15 0.1692220239345531
outer loop
vertex 161.28581403095203 143.78478262933356 7.798108291432318
vertex 161.6242580788211 143.78478262933356 5.8269523801807805
vertex 162.21653516259204 143.7847826293336 2.377429535490554
endloop
endfacet
facet normal 0.9855779556257808 3.374409717759502e-15 0.1692220239345531
outer loop
vertex 161.28581403095203 143.78478262933356 7.798108291432318
vertex 162.21653516259204 143.7847826293336 2.377429535490554
vertex 159.75037238700745 143.7847826293336 16.740782544086326
endloop
endfacet
facet normal 0.9855779556257818 -7.637586478255715e-15 0.16922202393454827
outer loop
vertex 167.14442494072097 143.7847826293335 3.2235396551633153
vertex 166.55214785694994 137.78478262933356 6.6730624998535255
vertex 167.14442494072088 137.78478262933353 3.2235396551632927
endloop
endfacet
facet normal 0.9855779556257818 -7.637586478255715e-15 0.16922202393454827
outer loop
vertex 166.55214785694994 137.78478262933356 6.6730624998535255
vertex 167.14442494072097 143.7847826293335 3.2235396551633153
vertex 166.55214785694994 143.7847826293335 6.673062499853537
endloop
endfacet
facet normal -0.27630838065557634 -8.892415986865476e-15 0.9610690291438453
outer loop
vertex 115.31797468330524 138.18478262933374 9.25982620883116
vertex 109.93598812009952 143.38478262933378 7.712499277159936
vertex 109.93598812009942 138.1847826293338 7.712499277159902
endloop
endfacet
facet normal -0.27630838065557634 -8.892415986865476e-15 0.9610690291438453
outer loop
vertex 109.93598812009952 143.38478262933378 7.712499277159936
vertex 115.31797468330524 138.18478262933374 9.25982620883116
vertex 115.31797468330514 143.38478262933367 9.259826208831221
endloop
endfacet
facet normal 0.9855779556257802 4.51561031395707e-16 0.16922202393455688
outer loop
vertex 166.0444817851463 143.78478262933356 9.629796366730854
vertex 164.67826216513632 137.78478262933368 17.586892663759095
vertex 166.0444817851463 137.78478262933362 9.629796366730877
endloop
endfacet
facet normal 0.9855779556257802 4.51561031395707e-16 0.16922202393455688
outer loop
vertex 164.67826216513632 137.78478262933368 17.586892663759095
vertex 166.0444817851463 143.78478262933356 9.629796366730854
vertex 164.67826216513632 143.7847826293336 17.586892663759087
endloop
endfacet
facet normal -1.576189385330086e-15 -1.0 -8.145505172103384e-15
outer loop
vertex 116.14689982527173 138.1847826293338 6.376619121399588
vertex 109.93598812009942 138.1847826293338 7.712499277159902
vertex 110.76491326206603 138.1847826293338 4.829292189728403
endloop
endfacet
facet normal -1.576189385330086e-15 -1.0 -8.145505172103384e-15
outer loop
vertex 109.93598812009942 138.1847826293338 7.712499277159902
vertex 116.14689982527173 138.1847826293338 6.376619121399588
vertex 115.31797468330524 138.18478262933374 9.25982620883116
endloop
endfacet
facet normal -1.3202745268651912e-15 -1.0 5.236792168472435e-15
outer loop
vertex 166.0444817851463 137.78478262933362 9.629796366730877
vertex 159.75037238700745 137.78478262933368 16.740782544086336
vertex 161.28581403095188 137.78478262933362 7.798108291432335
endloop
endfacet
facet normal -1.3202745268651912e-15 -1.0 5.236792168472435e-15
outer loop
vertex 159.75037238700745 137.78478262933368 16.740782544086336
vertex 166.0444817851463 137.78478262933362 9.629796366730877
vertex 164.67826216513632 137.78478262933368 17.586892663759095
endloop
endfacet
facet normal 2.400528551995489e-14 1.0 1.4593894460067703e-14
outer loop
vertex 109.93598812009952 143.38478262933378 7.712499277159936
vertex 116.14689982527182 143.38478262933364 6.376619121399577
vertex 110.76491326206624 143.38478262933384 4.829292189728383
endloop
endfacet
facet normal 2.400528551995489e-14 1.0 1.4593894460067703e-14
outer loop
vertex 116.14689982527182 143.38478262933364 6.376619121399577
vertex 109.93598812009952 143.38478262933378 7.712499277159936
vertex 115.31797468330514 143.38478262933367 9.259826208831221
endloop
endfacet
facet normal -0.9610690291438394 -1.2762133179411873e-15 -0.2763083806555962
outer loop
vertex 106.53620953383319 147.78478262933373 3.613535314843855
vertex 107.64144305645567 133.78478262933385 -0.23074080173151404
vertex 106.53620953383316 133.78478262933373 3.613535314843854
endloop
endfacet
facet normal -0.9610690291438394 -1.2762133179411873e-15 -0.2763083806555962
outer loop
vertex 107.64144305645567 133.78478262933385 -0.23074080173151404
vertex 106.53620953383319 147.78478262933373 3.613535314843855
vertex 107.64144305645563 147.7847826293337 -0.23074080173156972
endloop
endfacet
facet normal -0.16922202393455227 -1.2620088184993402e-15 0.985577955625781
outer loop
vertex 166.55214785694994 137.78478262933356 6.6730624998535255
vertex 161.6242580788211 143.78478262933356 5.8269523801807805
vertex 161.6242580788211 137.78478262933362 5.826952380180772
endloop
endfacet
facet normal -0.16922202393455227 -1.2620088184993402e-15 0.985577955625781
outer loop
vertex 161.6242580788211 143.78478262933356 5.8269523801807805
vertex 166.55214785694994 137.78478262933356 6.6730624998535255
vertex 166.55214785694994 143.7847826293335 6.673062499853537
endloop
endfacet
facet normal 0.002443463517366016 -1.2942524919610293e-15 -0.9999970147385638
outer loop
vertex 162.64127886707658 147.78478262933356 -0.09635030827640068
vertex 107.64144305645567 133.78478262933385 -0.23074080173151404
vertex 107.64144305645563 147.7847826293337 -0.23074080173156972
endloop
endfacet
facet normal 0.002443463517366016 -1.2942524919610293e-15 -0.9999970147385638
outer loop
vertex 107.64144305645567 133.78478262933385 -0.23074080173151404
vertex 162.64127886707658 147.78478262933356 -0.09635030827640068
vertex 162.64127886707647 133.7847826293336 -0.09635030827641901
endloop
endfacet
facet normal -1.2669124004774273e-14 -1.0 7.77659543516064e-15
outer loop
vertex 167.14442494072088 137.78478262933353 3.2235396551632927
vertex 161.6242580788211 137.78478262933362 5.826952380180772
vertex 162.21653516259195 137.7847826293336 2.377429535490538
endloop
endfacet
facet normal -1.2669124004774273e-14 -1.0 7.77659543516064e-15
outer loop
vertex 161.6242580788211 137.78478262933362 5.826952380180772
vertex 167.14442494072088 137.78478262933353 3.2235396551632927
vertex 166.55214785694994 137.78478262933356 6.6730624998535255
endloop
endfacet
facet normal 0.16922202393455227 3.5050182122023055e-16 -0.985577955625781
outer loop
vertex 162.21653516259204 143.7847826293336 2.377429535490554
vertex 167.14442494072088 137.78478262933353 3.2235396551632927
vertex 162.21653516259195 137.7847826293336 2.377429535490538
endloop
endfacet
facet normal 0.16922202393455227 3.5050182122023055e-16 -0.985577955625781
outer loop
vertex 167.14442494072088 137.78478262933353 3.2235396551632927
vertex 162.21653516259204 143.7847826293336 2.377429535490554
vertex 167.14442494072097 143.7847826293335 3.2235396551633153
endloop
endfacet
facet normal 2.932277425118077e-15 1.0 2.1926848316627443e-15
outer loop
vertex 106.53620953383319 147.78478262933373 3.613535314843855
vertex 162.64127886707658 147.78478262933356 -0.09635030827640068
vertex 107.64144305645563 147.7847826293337 -0.23074080173156972
endloop
endfacet
facet normal 2.932277425118077e-15 1.0 2.1926848316627443e-15
outer loop
vertex 162.64127886707658 147.78478262933356 -0.09635030827640068
vertex 106.53620953383319 147.78478262933373 3.613535314843855
vertex 159.39500613674474 147.7847826293335 18.81049625090043
endloop
endfacet
facet normal -0.1692220239345517 2.006523389749435e-15 0.9855779556257811
outer loop
vertex 164.67826216513632 137.78478262933368 17.586892663759095
vertex 159.75037238700745 143.7847826293336 16.740782544086326
vertex 159.75037238700745 137.78478262933368 16.740782544086336
endloop
endfacet
facet normal -0.1692220239345517 2.006523389749435e-15 0.9855779556257811
outer loop
vertex 159.75037238700745 143.7847826293336 16.740782544086326
vertex 164.67826216513632 137.78478262933368 17.586892663759095
vertex 164.67826216513632 143.7847826293336 17.586892663759087
endloop
endfacet
facet normal -0.9610690291438552 2.4927732243345915e-14 -0.27630838065554153
outer loop
vertex 109.93598812009952 143.38478262933378 7.712499277159936
vertex 110.76491326206603 138.1847826293338 4.829292189728403
vertex 109.93598812009942 138.1847826293338 7.712499277159902
endloop
endfacet
facet normal -0.9610690291438552 2.4927732243345915e-14 -0.27630838065554153
outer loop
vertex 110.76491326206603 138.1847826293338 4.829292189728403
vertex 109.93598812009952 143.38478262933378 7.712499277159936
vertex 110.76491326206624 143.38478262933384 4.829292189728383
endloop
endfacet
facet normal -0.27630838065557384 -2.319195057112597e-16 0.9610690291438458
outer loop
vertex 106.53620953383316 133.78478262933373 3.613535314843854
vertex 110.76491326206603 138.1847826293338 4.829292189728403
vertex 106.53620953383319 147.78478262933373 3.613535314843855
endloop
endfacet
facet normal -0.27630838065557384 -2.319195057112597e-16 0.9610690291438458
outer loop
vertex 110.76491326206603 138.1847826293338 4.829292189728403
vertex 106.53620953383316 133.78478262933373 3.613535314843854
vertex 159.3950061367449 133.78478262933365 18.810496250900478
endloop
endfacet
facet normal -0.27630838065557384 -2.319195057112597e-16 0.9610690291438458
outer loop
vertex 110.76491326206603 138.1847826293338 4.829292189728403
vertex 159.3950061367449 133.78478262933365 18.810496250900478
vertex 116.14689982527173 138.1847826293338 6.376619121399588
endloop
endfacet
facet normal -0.27630838065557384 -2.319195057112597e-16 0.9610690291438458
outer loop
vertex 116.14689982527173 138.1847826293338 6.376619121399588
vertex 159.3950061367449 133.78478262933365 18.810496250900478
vertex 116.14689982527182 143.38478262933364 6.376619121399577
endloop
endfacet
facet normal -0.27630838065557384 -2.319195057112597e-16 0.9610690291438458
outer loop
vertex 116.14689982527182 143.38478262933364 6.376619121399577
vertex 159.3950061367449 133.78478262933365 18.810496250900478
vertex 159.39500613674474 147.7847826293335 18.81049625090043
endloop
endfacet
facet normal -0.27630838065557384 -2.319195057112597e-16 0.9610690291438458
outer loop
vertex 106.53620953383319 147.78478262933373 3.613535314843855
vertex 110.76491326206624 143.38478262933384 4.829292189728383
vertex 159.39500613674474 147.7847826293335 18.81049625090043
endloop
endfacet
facet normal -0.27630838065557384 -2.319195057112597e-16 0.9610690291438458
outer loop
vertex 110.76491326206624 143.38478262933384 4.829292189728383
vertex 106.53620953383319 147.78478262933373 3.613535314843855
vertex 110.76491326206603 138.1847826293338 4.829292189728403
endloop
endfacet
facet normal -0.27630838065557384 -2.319195057112597e-16 0.9610690291438458
outer loop
vertex 159.39500613674474 147.7847826293335 18.81049625090043
vertex 110.76491326206624 143.38478262933384 4.829292189728383
vertex 116.14689982527182 143.38478262933364 6.376619121399577
endloop
endfacet
facet normal -3.2454963088837388e-15 -1.0 1.5850140608683066e-15
outer loop
vertex 162.64127886707647 133.7847826293336 -0.09635030827641901
vertex 106.53620953383316 133.78478262933373 3.613535314843854
vertex 107.64144305645567 133.78478262933385 -0.23074080173151404
endloop
endfacet
facet normal -3.2454963088837388e-15 -1.0 1.5850140608683066e-15
outer loop
vertex 106.53620953383316 133.78478262933373 3.613535314843854
vertex 162.64127886707647 133.7847826293336 -0.09635030827641901
vertex 159.3950061367449 133.78478262933365 18.810496250900478
endloop
endfacet
facet normal 0.9610690291438582 -9.967623092919997e-16 0.2763083806555317
outer loop
vertex 116.14689982527173 138.1847826293338 6.376619121399588
vertex 115.31797468330514 143.38478262933367 9.259826208831221
vertex 115.31797468330524 138.18478262933374 9.25982620883116
endloop
endfacet
facet normal 0.9610690291438582 -9.967623092919997e-16 0.2763083806555317
outer loop
vertex 115.31797468330514 143.38478262933367 9.259826208831221
vertex 116.14689982527173 138.1847826293338 6.376619121399588
vertex 116.14689982527182 143.38478262933364 6.376619121399577
endloop
endfacet
endsolid robot
