solid candy
facet normal 1.0 0.0 0.0
outer loop
vertex 24.670277319907424 74.34722663146316 1.4099832412739488e-14
vertex 24.670277319907424 70.14722663146316 1.500000000000011
vertex 24.670277319907424 70.14722663146316 1.0751122214713859e-14
endloop
endfacet
facet normal 1.0 0.0 0.0
outer loop
vertex 24.670277319907424 70.14722663146316 1.500000000000011
vertex 24.670277319907424 74.34722663146316 1.4099832412739488e-14
vertex 24.670277319907424 74.34722663146316 1.5
endloop
endfacet
facet normal 0.0 1.0 0.0
outer loop
vertex 18.67027731990742 65.34722663146316 1.5
vertex 21.67027731990742 65.34722663146316 2.8199664825478975e-15
vertex 18.67027731990742 65.34722663146316 0.0
endloop
endfacet
facet normal 0.0 1.0 0.0
outer loop
vertex 21.67027731990742 65.34722663146316 2.8199664825478975e-15
vertex 18.67027731990742 65.34722663146316 1.5
vertex 21.67027731990742 65.34722663146316 1.5
endloop
endfacet
facet normal -1.0 0.0 0.0
outer loop
vertex 18.67027731990742 65.34722663146316 1.5
vertex 18.67027731990742 62.34722663146316 0.0
vertex 18.67027731990742 62.34722663146316 1.5
endloop
endfacet
facet normal -1.0 0.0 0.0
outer loop
vertex 18.67027731990742 62.34722663146316 0.0
vertex 18.67027731990742 65.34722663146316 1.5
vertex 18.67027731990742 65.34722663146316 0.0
endloop
endfacet
facet normal -1.0 0.0 0.0
outer loop
vertex 18.67027731990742 74.34722663146316 1.5
vertex 18.67027731990742 71.34722663146316 2.8199664825478975e-15
vertex 18.67027731990742 71.34722663146316 1.5
endloop
endfacet
facet normal -1.0 0.0 0.0
outer loop
vertex 18.67027731990742 71.34722663146316 2.8199664825478975e-15
vertex 18.67027731990742 74.34722663146316 1.5
vertex 18.67027731990742 74.34722663146316 5.639932965095795e-15
endloop
endfacet
facet normal 0.0 -1.0 0.0
outer loop
vertex 21.67027731990742 71.34722663146316 1.5
vertex 18.67027731990742 71.34722663146316 2.8199664825478975e-15
vertex 21.67027731990742 71.34722663146316 2.8199664825478975e-15
endloop
endfacet
facet normal 0.0 -1.0 0.0
outer loop
vertex 18.67027731990742 71.34722663146316 2.8199664825478975e-15
vertex 21.67027731990742 71.34722663146316 1.5
vertex 18.67027731990742 71.34722663146316 1.5
endloop
endfacet
facet normal -1.0 -7.049916206369755e-16 0.0
outer loop
vertex 9.67027731990742 59.34722663146315 1.5
vertex 9.670277319907422 56.34722663146316 2.996214387707141e-15
vertex 9.670277319907422 56.34722663146316 1.5
endloop
endfacet
facet normal -1.0 -7.049916206369755e-16 0.0
outer loop
vertex 9.670277319907422 56.34722663146316 2.996214387707141e-15
vertex 9.67027731990742 59.34722663146315 1.5
vertex 9.67027731990742 59.34722663146315 2.996214387707141e-15
endloop
endfacet
facet normal 1.0 0.0 0.0
outer loop
vertex 18.67027731990742 59.34722663146315 7.049916206369744e-16
vertex 18.67027731990742 56.34722663146316 1.5
vertex 18.67027731990742 56.34722663146316 7.049916206369744e-16
endloop
endfacet
facet normal 1.0 0.0 0.0
outer loop
vertex 18.67027731990742 56.34722663146316 1.5
vertex 18.67027731990742 59.34722663146315 7.049916206369744e-16
vertex 18.67027731990742 59.34722663146315 1.5
endloop
endfacet
facet normal 0.0 -1.0 0.0
outer loop
vertex 18.67027731990742 56.34722663146316 1.5
vertex 9.670277319907422 56.34722663146316 2.996214387707141e-15
vertex 18.67027731990742 56.34722663146316 7.049916206369744e-16
endloop
endfacet
facet normal 0.0 -1.0 0.0
outer loop
vertex 9.670277319907422 56.34722663146316 2.996214387707141e-15
vertex 18.67027731990742 56.34722663146316 1.5
vertex 9.670277319907422 56.34722663146316 1.5
endloop
endfacet
facet normal 1.0 0.0 0.0
outer loop
vertex 18.67027731990742 80.34722663146314 3.524958103184872e-15
vertex 18.67027731990742 77.34722663146316 1.5
vertex 18.67027731990742 77.34722663146316 3.524958103184872e-15
endloop
endfacet
facet normal 1.0 0.0 0.0
outer loop
vertex 18.67027731990742 77.34722663146316 1.5
vertex 18.67027731990742 80.34722663146314 3.524958103184872e-15
vertex 18.67027731990742 80.34722663146314 1.5
endloop
endfacet
facet normal -1.0 0.0 0.0
outer loop
vertex 9.670277319907422 80.34722663146314 1.5
vertex 9.670277319907422 77.34722663146316 5.816180870255038e-15
vertex 9.670277319907422 77.34722663146316 1.5
endloop
endfacet
facet normal -1.0 0.0 0.0
outer loop
vertex 9.670277319907422 77.34722663146316 5.816180870255038e-15
vertex 9.670277319907422 80.34722663146314 1.5
vertex 9.670277319907422 80.34722663146314 5.816180870255038e-15
endloop
endfacet
facet normal 0.0 1.0 0.0
outer loop
vertex 9.670277319907422 80.34722663146314 5.816180870255038e-15
vertex 18.67027731990742 80.34722663146314 1.5
vertex 18.67027731990742 80.34722663146314 3.524958103184872e-15
endloop
endfacet
facet normal 0.0 1.0 0.0
outer loop
vertex 18.67027731990742 80.34722663146314 1.5
vertex 9.670277319907422 80.34722663146314 5.816180870255038e-15
vertex 9.670277319907422 80.34722663146314 1.5
endloop
endfacet
facet normal 0.0 1.0 0.0
outer loop
vertex 18.67027731990742 77.34722663146316 3.524958103184872e-15
vertex 21.67027731990742 77.34722663146316 1.5
vertex 21.67027731990742 77.34722663146316 2.8199664825478975e-15
endloop
endfacet
facet normal 0.0 1.0 0.0
outer loop
vertex 21.67027731990742 77.34722663146316 1.5
vertex 18.67027731990742 77.34722663146316 3.524958103184872e-15
vertex 18.67027731990742 77.34722663146316 1.5
endloop
endfacet
facet normal 1.0 0.0 0.0
outer loop
vertex 21.67027731990742 77.34722663146316 2.8199664825478975e-15
vertex 21.67027731990742 74.34722663146316 1.5
vertex 21.67027731990742 74.34722663146316 1.4099832412739488e-14
endloop
endfacet
facet normal 1.0 0.0 0.0
outer loop
vertex 21.67027731990742 74.34722663146316 1.5
vertex 21.67027731990742 77.34722663146316 2.8199664825478975e-15
vertex 21.67027731990742 77.34722663146316 1.5
endloop
endfacet
facet normal 0.0 1.0 0.0
outer loop
vertex 21.67027731990742 74.34722663146316 1.5
vertex 24.670277319907424 74.34722663146316 1.4099832412739488e-14
vertex 21.67027731990742 74.34722663146316 1.4099832412739488e-14
endloop
endfacet
facet normal 0.0 1.0 0.0
outer loop
vertex 24.670277319907424 74.34722663146316 1.4099832412739488e-14
vertex 21.67027731990742 74.34722663146316 1.5
vertex 24.670277319907424 74.34722663146316 1.5
endloop
endfacet
facet normal 1.0 0.0 0.0
outer loop
vertex 24.670277319907424 66.54722663146316 5.4636850599365515e-15
vertex 24.670277319907424 62.34722663146316 1.5
vertex 24.670277319907424 62.34722663146316 1.762479051592436e-16
endloop
endfacet
facet normal 1.0 0.0 0.0
outer loop
vertex 24.670277319907424 62.34722663146316 1.5
vertex 24.670277319907424 66.54722663146316 5.4636850599365515e-15
vertex 24.670277319907424 66.54722663146316 1.5000000000000053
endloop
endfacet
facet normal 1.0 0.0 0.0
outer loop
vertex 21.67027731990742 62.34722663146316 1.762479051592436e-16
vertex 21.67027731990742 59.34722663146315 1.5
vertex 21.67027731990742 59.34722663146315 0.0
endloop
endfacet
facet normal 1.0 0.0 0.0
outer loop
vertex 21.67027731990742 59.34722663146315 1.5
vertex 21.67027731990742 62.34722663146316 1.762479051592436e-16
vertex 21.67027731990742 62.34722663146316 1.5
endloop
endfacet
facet normal 0.0 -1.0 0.0
outer loop
vertex 24.670277319907424 62.34722663146316 1.5
vertex 21.67027731990742 62.34722663146316 1.762479051592436e-16
vertex 24.670277319907424 62.34722663146316 1.762479051592436e-16
endloop
endfacet
facet normal 0.0 -1.0 0.0
outer loop
vertex 21.67027731990742 62.34722663146316 1.762479051592436e-16
vertex 24.670277319907424 62.34722663146316 1.5
vertex 21.67027731990742 62.34722663146316 1.5
endloop
endfacet
facet normal 0.0 -1.0 0.0
outer loop
vertex 21.67027731990742 59.34722663146315 1.5
vertex 18.67027731990742 59.34722663146315 7.049916206369744e-16
vertex 21.67027731990742 59.34722663146315 0.0
endloop
endfacet
facet normal 0.0 -1.0 0.0
outer loop
vertex 18.67027731990742 59.34722663146315 7.049916206369744e-16
vertex 21.67027731990742 59.34722663146315 1.5
vertex 18.67027731990742 59.34722663146315 1.5
endloop
endfacet
facet normal 1.0 0.0 0.0
outer loop
vertex 15.67027731990742 74.34722663146316 5.639932965095795e-15
vertex 15.67027731990742 71.34722663146316 1.5
vertex 15.67027731990742 71.34722663146316 5.639932965095795e-15
endloop
endfacet
facet normal 1.0 0.0 0.0
outer loop
vertex 15.67027731990742 71.34722663146316 1.5
vertex 15.67027731990742 74.34722663146316 5.639932965095795e-15
vertex 15.67027731990742 74.34722663146316 1.5
endloop
endfacet
facet normal 0.0 -1.0 0.0
outer loop
vertex 18.67027731990742 74.34722663146316 1.5
vertex 15.67027731990742 74.34722663146316 5.639932965095795e-15
vertex 18.67027731990742 74.34722663146316 5.639932965095795e-15
endloop
endfacet
facet normal 0.0 -1.0 0.0
outer loop
vertex 15.67027731990742 74.34722663146316 5.639932965095795e-15
vertex 18.67027731990742 74.34722663146316 1.5
vertex 15.67027731990742 74.34722663146316 1.5
endloop
endfacet
facet normal 0.0 1.0 0.0
outer loop
vertex 15.67027731990742 71.34722663146316 5.639932965095795e-15
vertex 18.67027731990742 71.34722663146316 1.5
vertex 18.67027731990742 71.34722663146316 2.8199664825478975e-15
endloop
endfacet
facet normal 0.0 1.0 0.0
outer loop
vertex 18.67027731990742 71.34722663146316 1.5
vertex 15.67027731990742 71.34722663146316 5.639932965095795e-15
vertex 15.67027731990742 71.34722663146316 1.5
endloop
endfacet
facet normal -1.0 0.0 0.0
outer loop
vertex 21.67027731990742 71.34722663146316 1.5
vertex 21.67027731990742 65.34722663146316 2.8199664825478975e-15
vertex 21.67027731990742 65.34722663146316 1.5
endloop
endfacet
facet normal -1.0 0.0 0.0
outer loop
vertex 21.67027731990742 65.34722663146316 2.8199664825478975e-15
vertex 21.67027731990742 71.34722663146316 1.5
vertex 21.67027731990742 71.34722663146316 2.8199664825478975e-15
endloop
endfacet
facet normal 1.0 0.0 0.0
outer loop
vertex 18.67027731990742 71.34722663146316 2.8199664825478975e-15
vertex 18.67027731990742 65.34722663146316 1.5
vertex 18.67027731990742 65.34722663146316 0.0
endloop
endfacet
facet normal 1.0 0.0 0.0
outer loop
vertex 18.67027731990742 65.34722663146316 1.5
vertex 18.67027731990742 71.34722663146316 2.8199664825478975e-15
vertex 18.67027731990742 71.34722663146316 1.5
endloop
endfacet
facet normal 1.0 0.0 0.0
outer loop
vertex 15.67027731990742 65.34722663146316 0.0
vertex 15.67027731990742 62.34722663146316 1.5
vertex 15.67027731990742 62.34722663146316 0.0
endloop
endfacet
facet normal 1.0 0.0 0.0
outer loop
vertex 15.67027731990742 62.34722663146316 1.5
vertex 15.67027731990742 65.34722663146316 0.0
vertex 15.67027731990742 65.34722663146316 1.5
endloop
endfacet
facet normal 0.0 -1.0 0.0
outer loop
vertex 18.67027731990742 65.34722663146316 1.5
vertex 15.67027731990742 65.34722663146316 0.0
vertex 18.67027731990742 65.34722663146316 0.0
endloop
endfacet
facet normal 0.0 -1.0 0.0
outer loop
vertex 15.67027731990742 65.34722663146316 0.0
vertex 18.67027731990742 65.34722663146316 1.5
vertex 15.67027731990742 65.34722663146316 1.5
endloop
endfacet
facet normal 0.0 1.0 0.0
outer loop
vertex 15.67027731990742 62.34722663146316 1.5
vertex 18.67027731990742 62.34722663146316 0.0
vertex 15.67027731990742 62.34722663146316 0.0
endloop
endfacet
facet normal 0.0 1.0 0.0
outer loop
vertex 18.67027731990742 62.34722663146316 0.0
vertex 15.67027731990742 62.34722663146316 1.5
vertex 18.67027731990742 62.34722663146316 1.5
endloop
endfacet
facet normal 1.0 0.0 0.0
outer loop
vertex 9.670277319907422 74.34722663146316 1.127986593019159e-14
vertex 9.670277319907422 71.34722663146316 1.5
vertex 9.670277319907422 71.34722663146316 1.127986593019159e-14
endloop
endfacet
facet normal 1.0 0.0 0.0
outer loop
vertex 9.670277319907422 71.34722663146316 1.5
vertex 9.670277319907422 74.34722663146316 1.127986593019159e-14
vertex 9.670277319907422 74.34722663146316 1.5
endloop
endfacet
facet normal 0.0 -1.0 0.0
outer loop
vertex 12.670277319907424 74.34722663146316 1.5
vertex 9.670277319907422 74.34722663146316 1.127986593019159e-14
vertex 12.670277319907424 74.34722663146316 1.127986593019159e-14
endloop
endfacet
facet normal 0.0 -1.0 0.0
outer loop
vertex 9.670277319907422 74.34722663146316 1.127986593019159e-14
vertex 12.670277319907424 74.34722663146316 1.5
vertex 9.670277319907422 74.34722663146316 1.5
endloop
endfacet
facet normal -1.0 0.0 0.0
outer loop
vertex 12.670277319907424 74.34722663146316 1.5
vertex 12.670277319907424 71.34722663146316 1.127986593019159e-14
vertex 12.670277319907424 71.34722663146316 1.5
endloop
endfacet
facet normal -1.0 0.0 0.0
outer loop
vertex 12.670277319907424 71.34722663146316 1.127986593019159e-14
vertex 12.670277319907424 74.34722663146316 1.5
vertex 12.670277319907424 74.34722663146316 1.127986593019159e-14
endloop
endfacet
facet normal 0.0 1.0 0.0
outer loop
vertex 9.670277319907422 71.34722663146316 1.5
vertex 12.670277319907424 71.34722663146316 1.127986593019159e-14
vertex 9.670277319907422 71.34722663146316 1.127986593019159e-14
endloop
endfacet
facet normal 0.0 1.0 0.0
outer loop
vertex 12.670277319907424 71.34722663146316 1.127986593019159e-14
vertex 9.670277319907422 71.34722663146316 1.5
vertex 12.670277319907424 71.34722663146316 1.5
endloop
endfacet
facet normal 1.0 0.0 0.0
outer loop
vertex 9.670277319907422 65.34722663146316 5.639932965095795e-15
vertex 9.670277319907422 62.34722663146316 1.5
vertex 9.670277319907422 62.34722663146316 5.639932965095795e-15
endloop
endfacet
facet normal 1.0 0.0 0.0
outer loop
vertex 9.670277319907422 62.34722663146316 1.5
vertex 9.670277319907422 65.34722663146316 5.639932965095795e-15
vertex 9.670277319907422 65.34722663146316 1.5
endloop
endfacet
facet normal 0.0 -1.0 0.0
outer loop
vertex 12.670277319907424 65.34722663146316 1.5
vertex 9.670277319907422 65.34722663146316 5.639932965095795e-15
vertex 12.670277319907424 65.34722663146316 5.639932965095795e-15
endloop
endfacet
facet normal 0.0 -1.0 0.0
outer loop
vertex 9.670277319907422 65.34722663146316 5.639932965095795e-15
vertex 12.670277319907424 65.34722663146316 1.5
vertex 9.670277319907422 65.34722663146316 1.5
endloop
endfacet
facet normal -1.0 0.0 0.0
outer loop
vertex 12.670277319907424 65.34722663146316 1.5
vertex 12.670277319907424 62.34722663146316 5.639932965095795e-15
vertex 12.670277319907424 62.34722663146316 1.5
endloop
endfacet
facet normal -1.0 0.0 0.0
outer loop
vertex 12.670277319907424 62.34722663146316 5.639932965095795e-15
vertex 12.670277319907424 65.34722663146316 1.5
vertex 12.670277319907424 65.34722663146316 5.639932965095795e-15
endloop
endfacet
facet normal 0.0 1.0 0.0
outer loop
vertex 9.670277319907422 62.34722663146316 1.5
vertex 12.670277319907424 62.34722663146316 5.639932965095795e-15
vertex 9.670277319907422 62.34722663146316 5.639932965095795e-15
endloop
endfacet
facet normal 0.0 1.0 0.0
outer loop
vertex 12.670277319907424 62.34722663146316 5.639932965095795e-15
vertex 9.670277319907422 62.34722663146316 1.5
vertex 12.670277319907424 62.34722663146316 1.5
endloop
endfacet
facet normal 0.0 -1.0 0.0
outer loop
vertex 9.67027731990742 59.34722663146315 1.5
vertex 6.670277319907424 59.34722663146315 2.996214387707141e-15
vertex 9.67027731990742 59.34722663146315 2.996214387707141e-15
endloop
endfacet
facet normal 0.0 -1.0 0.0
outer loop
vertex 6.670277319907424 59.34722663146315 2.996214387707141e-15
vertex 9.67027731990742 59.34722663146315 1.5
vertex 6.670277319907424 59.34722663146315 1.5
endloop
endfacet
facet normal 0.0 -1.0 0.0
outer loop
vertex 6.670277319907422 62.34722663146316 1.5
vertex 3.6702773199074223 62.34722663146316 2.996214387707141e-15
vertex 6.670277319907422 62.34722663146316 2.996214387707141e-15
endloop
endfacet
facet normal 0.0 -1.0 0.0
outer loop
vertex 3.6702773199074223 62.34722663146316 2.996214387707141e-15
vertex 6.670277319907422 62.34722663146316 1.5
vertex 3.6702773199074223 62.34722663146316 1.5
endloop
endfacet
facet normal -1.0 -3.524958103184868e-16 -3.287535131061498e-32
outer loop
vertex 6.670277319907422 62.34722663146316 1.5
vertex 6.670277319907424 59.34722663146315 2.996214387707141e-15
vertex 6.670277319907424 59.34722663146315 1.5
endloop
endfacet
facet normal -1.0 -3.524958103184868e-16 -3.287535131061498e-32
outer loop
vertex 6.670277319907424 59.34722663146315 2.996214387707141e-15
vertex 6.670277319907422 62.34722663146316 1.5
vertex 6.670277319907422 62.34722663146316 2.996214387707141e-15
endloop
endfacet
facet normal -1.0 0.0 0.0
outer loop
vertex 6.670277319907422 77.34722663146316 1.5
vertex 6.670277319907422 74.34722663146316 2.996214387707141e-15
vertex 6.670277319907422 74.34722663146316 1.5
endloop
endfacet
facet normal -1.0 0.0 0.0
outer loop
vertex 6.670277319907422 74.34722663146316 2.996214387707141e-15
vertex 6.670277319907422 77.34722663146316 1.5
vertex 6.670277319907422 77.34722663146316 2.996214387707141e-15
endloop
endfacet
facet normal 0.0 1.0 0.0
outer loop
vertex 3.6702773199074223 74.34722663146316 1.5
vertex 6.670277319907422 74.34722663146316 2.996214387707141e-15
vertex 3.6702773199074223 74.34722663146316 2.996214387707141e-15
endloop
endfacet
facet normal 0.0 1.0 0.0
outer loop
vertex 6.670277319907422 74.34722663146316 2.996214387707141e-15
vertex 3.6702773199074223 74.34722663146316 1.5
vertex 6.670277319907422 74.34722663146316 1.5
endloop
endfacet
facet normal 0.0 1.0 0.0
outer loop
vertex 6.670277319907422 77.34722663146316 1.5
vertex 9.670277319907422 77.34722663146316 5.816180870255038e-15
vertex 6.670277319907422 77.34722663146316 2.996214387707141e-15
endloop
endfacet
facet normal 0.0 1.0 0.0
outer loop
vertex 9.670277319907422 77.34722663146316 5.816180870255038e-15
vertex 6.670277319907422 77.34722663146316 1.5
vertex 9.670277319907422 77.34722663146316 1.5
endloop
endfacet
facet normal -1.0 0.0 0.0
outer loop
vertex 3.6702773199074223 74.34722663146316 1.5
vertex 3.6702773199074223 62.34722663146316 2.996214387707141e-15
vertex 3.6702773199074223 62.34722663146316 1.5
endloop
endfacet
facet normal -1.0 0.0 0.0
outer loop
vertex 3.6702773199074223 62.34722663146316 2.996214387707141e-15
vertex 3.6702773199074223 74.34722663146316 1.5
vertex 3.6702773199074223 74.34722663146316 2.996214387707141e-15
endloop
endfacet
facet normal 1.0466890135476474e-16 2.0424491818190615e-16 -1.0
outer loop
vertex 9.670277319907422 77.34722663146316 5.816180870255038e-15
vertex 6.670277319907422 74.34722663146316 2.996214387707141e-15
vertex 6.670277319907422 77.34722663146316 2.996214387707141e-15
endloop
endfacet
facet normal 1.0466890135476474e-16 2.0424491818190615e-16 -1.0
outer loop
vertex 6.670277319907422 74.34722663146316 2.996214387707141e-15
vertex 9.670277319907422 77.34722663146316 5.816180870255038e-15
vertex 6.670277319907422 62.34722663146316 2.996214387707141e-15
endloop
endfacet
facet normal 1.0466890135476474e-16 2.0424491818190615e-16 -1.0
outer loop
vertex 6.670277319907422 62.34722663146316 2.996214387707141e-15
vertex 9.670277319907422 77.34722663146316 5.816180870255038e-15
vertex 6.670277319907424 59.34722663146315 2.996214387707141e-15
endloop
endfacet
facet normal 1.0466890135476474e-16 2.0424491818190615e-16 -1.0
outer loop
vertex 6.670277319907424 59.34722663146315 2.996214387707141e-15
vertex 9.670277319907422 77.34722663146316 5.816180870255038e-15
vertex 9.67027731990742 59.34722663146315 2.996214387707141e-15
endloop
endfacet
facet normal 1.0466890135476474e-16 2.0424491818190615e-16 -1.0
outer loop
vertex 9.67027731990742 59.34722663146315 2.996214387707141e-15
vertex 9.670277319907422 77.34722663146316 5.816180870255038e-15
vertex 9.670277319907422 56.34722663146316 2.996214387707141e-15
endloop
endfacet
facet normal 1.0466890135476474e-16 2.0424491818190615e-16 -1.0
outer loop
vertex 9.670277319907422 56.34722663146316 2.996214387707141e-15
vertex 9.670277319907422 77.34722663146316 5.816180870255038e-15
vertex 9.670277319907422 74.34722663146316 1.127986593019159e-14
endloop
endfacet
facet normal 1.0466890135476474e-16 2.0424491818190615e-16 -1.0
outer loop
vertex 9.670277319907422 56.34722663146316 2.996214387707141e-15
vertex 9.670277319907422 74.34722663146316 1.127986593019159e-14
vertex 9.670277319907422 71.34722663146316 1.127986593019159e-14
endloop
endfacet
facet normal 1.0466890135476474e-16 2.0424491818190615e-16 -1.0
outer loop
vertex 9.670277319907422 56.34722663146316 2.996214387707141e-15
vertex 9.670277319907422 71.34722663146316 1.127986593019159e-14
vertex 9.670277319907422 65.34722663146316 5.639932965095795e-15
endloop
endfacet
facet normal 1.0466890135476474e-16 2.0424491818190615e-16 -1.0
outer loop
vertex 9.670277319907422 56.34722663146316 2.996214387707141e-15
vertex 9.670277319907422 65.34722663146316 5.639932965095795e-15
vertex 9.670277319907422 62.34722663146316 5.639932965095795e-15
endloop
endfacet
facet normal 1.0466890135476474e-16 2.0424491818190615e-16 -1.0
outer loop
vertex 9.670277319907422 56.34722663146316 2.996214387707141e-15
vertex 9.670277319907422 62.34722663146316 5.639932965095795e-15
vertex 12.670277319907424 62.34722663146316 5.639932965095795e-15
endloop
endfacet
facet normal 1.0466890135476474e-16 2.0424491818190615e-16 -1.0
outer loop
vertex 9.670277319907422 56.34722663146316 2.996214387707141e-15
vertex 12.670277319907424 62.34722663146316 5.639932965095795e-15
vertex 18.67027731990742 56.34722663146316 7.049916206369744e-16
endloop
endfacet
facet normal 1.0466890135476474e-16 2.0424491818190615e-16 -1.0
outer loop
vertex 18.67027731990742 56.34722663146316 7.049916206369744e-16
vertex 12.670277319907424 62.34722663146316 5.639932965095795e-15
vertex 15.67027731990742 62.34722663146316 0.0
endloop
endfacet
facet normal 1.0466890135476474e-16 2.0424491818190615e-16 -1.0
outer loop
vertex 15.67027731990742 62.34722663146316 0.0
vertex 12.670277319907424 62.34722663146316 5.639932965095795e-15
vertex 15.67027731990742 74.34722663146316 5.639932965095795e-15
endloop
endfacet
facet normal 1.0466890135476474e-16 2.0424491818190615e-16 -1.0
outer loop
vertex 15.67027731990742 62.34722663146316 0.0
vertex 15.67027731990742 74.34722663146316 5.639932965095795e-15
vertex 15.67027731990742 71.34722663146316 5.639932965095795e-15
endloop
endfacet
facet normal 1.0466890135476474e-16 2.0424491818190615e-16 -1.0
outer loop
vertex 15.67027731990742 62.34722663146316 0.0
vertex 15.67027731990742 71.34722663146316 5.639932965095795e-15
vertex 15.67027731990742 65.34722663146316 0.0
endloop
endfacet
facet normal 1.0466890135476474e-16 2.0424491818190615e-16 -1.0
outer loop
vertex 18.67027731990742 56.34722663146316 7.049916206369744e-16
vertex 15.67027731990742 62.34722663146316 0.0
vertex 18.67027731990742 62.34722663146316 0.0
endloop
endfacet
facet normal 1.0466890135476474e-16 2.0424491818190615e-16 -1.0
outer loop
vertex 18.67027731990742 56.34722663146316 7.049916206369744e-16
vertex 18.67027731990742 62.34722663146316 0.0
vertex 18.67027731990742 59.34722663146315 7.049916206369744e-16
endloop
endfacet
facet normal 1.0466890135476474e-16 2.0424491818190615e-16 -1.0
outer loop
vertex 21.67027731990742 65.34722663146316 2.8199664825478975e-15
vertex 18.67027731990742 62.34722663146316 0.0
vertex 18.67027731990742 65.34722663146316 0.0
endloop
endfacet
facet normal 1.0466890135476474e-16 2.0424491818190615e-16 -1.0
outer loop
vertex 18.67027731990742 62.34722663146316 0.0
vertex 21.67027731990742 65.34722663146316 2.8199664825478975e-15
vertex 18.67027731990742 59.34722663146315 7.049916206369744e-16
endloop
endfacet
facet normal 1.0466890135476474e-16 2.0424491818190615e-16 -1.0
outer loop
vertex 18.67027731990742 59.34722663146315 7.049916206369744e-16
vertex 21.67027731990742 65.34722663146316 2.8199664825478975e-15
vertex 21.67027731990742 59.34722663146315 0.0
endloop
endfacet
facet normal 1.0466890135476474e-16 2.0424491818190615e-16 -1.0
outer loop
vertex 21.67027731990742 59.34722663146315 0.0
vertex 21.67027731990742 65.34722663146316 2.8199664825478975e-15
vertex 21.67027731990742 62.34722663146316 1.762479051592436e-16
endloop
endfacet
facet normal 1.0466890135476474e-16 2.0424491818190615e-16 -1.0
outer loop
vertex 59.67652555886018 70.14722663146316 4.139302806059603e-15
vertex 24.670277319907424 66.54722663146316 5.4636850599365515e-15
vertex 24.670277319907424 70.14722663146316 1.0751122214713859e-14
endloop
endfacet
facet normal 1.0466890135476474e-16 2.0424491818190615e-16 -1.0
outer loop
vertex 24.670277319907424 66.54722663146316 5.4636850599365515e-15
vertex 59.67652555886018 70.14722663146316 4.139302806059603e-15
vertex 59.67652555886018 66.54722663146316 9.589929391654645e-15
endloop
endfacet
facet normal 1.0466890135476474e-16 2.0424491818190615e-16 -1.0
outer loop
vertex 18.67027731990742 80.34722663146314 3.524958103184872e-15
vertex 9.670277319907422 77.34722663146316 5.816180870255038e-15
vertex 9.670277319907422 80.34722663146314 5.816180870255038e-15
endloop
endfacet
facet normal 1.0466890135476474e-16 2.0424491818190615e-16 -1.0
outer loop
vertex 9.670277319907422 77.34722663146316 5.816180870255038e-15
vertex 18.67027731990742 80.34722663146314 3.524958103184872e-15
vertex 9.670277319907422 74.34722663146316 1.127986593019159e-14
endloop
endfacet
facet normal 1.0466890135476474e-16 2.0424491818190615e-16 -1.0
outer loop
vertex 9.670277319907422 74.34722663146316 1.127986593019159e-14
vertex 18.67027731990742 80.34722663146314 3.524958103184872e-15
vertex 12.670277319907424 74.34722663146316 1.127986593019159e-14
endloop
endfacet
facet normal 1.0466890135476474e-16 2.0424491818190615e-16 -1.0
outer loop
vertex 12.670277319907424 74.34722663146316 1.127986593019159e-14
vertex 18.67027731990742 80.34722663146314 3.524958103184872e-15
vertex 12.670277319907424 71.34722663146316 1.127986593019159e-14
endloop
endfacet
facet normal 1.0466890135476474e-16 2.0424491818190615e-16 -1.0
outer loop
vertex 12.670277319907424 71.34722663146316 1.127986593019159e-14
vertex 18.67027731990742 80.34722663146314 3.524958103184872e-15
vertex 15.67027731990742 74.34722663146316 5.639932965095795e-15
endloop
endfacet
facet normal 1.0466890135476474e-16 2.0424491818190615e-16 -1.0
outer loop
vertex 12.670277319907424 71.34722663146316 1.127986593019159e-14
vertex 15.67027731990742 74.34722663146316 5.639932965095795e-15
vertex 12.670277319907424 65.34722663146316 5.639932965095795e-15
endloop
endfacet
facet normal 1.0466890135476474e-16 2.0424491818190615e-16 -1.0
outer loop
vertex 12.670277319907424 65.34722663146316 5.639932965095795e-15
vertex 15.67027731990742 74.34722663146316 5.639932965095795e-15
vertex 12.670277319907424 62.34722663146316 5.639932965095795e-15
endloop
endfacet
facet normal 1.0466890135476474e-16 2.0424491818190615e-16 -1.0
outer loop
vertex 15.67027731990742 74.34722663146316 5.639932965095795e-15
vertex 18.67027731990742 80.34722663146314 3.524958103184872e-15
vertex 18.67027731990742 74.34722663146316 5.639932965095795e-15
endloop
endfacet
facet normal 1.0466890135476474e-16 2.0424491818190615e-16 -1.0
outer loop
vertex 18.67027731990742 74.34722663146316 5.639932965095795e-15
vertex 18.67027731990742 80.34722663146314 3.524958103184872e-15
vertex 18.67027731990742 77.34722663146316 3.524958103184872e-15
endloop
endfacet
facet normal 1.0466890135476474e-16 2.0424491818190615e-16 -1.0
outer loop
vertex 18.67027731990742 74.34722663146316 5.639932965095795e-15
vertex 18.67027731990742 77.34722663146316 3.524958103184872e-15
vertex 21.67027731990742 77.34722663146316 2.8199664825478975e-15
endloop
endfacet
facet normal 1.0466890135476474e-16 2.0424491818190615e-16 -1.0
outer loop
vertex 18.67027731990742 74.34722663146316 5.639932965095795e-15
vertex 21.67027731990742 77.34722663146316 2.8199664825478975e-15
vertex 18.67027731990742 71.34722663146316 2.8199664825478975e-15
endloop
endfacet
facet normal 1.0466890135476474e-16 2.0424491818190615e-16 -1.0
outer loop
vertex 18.67027731990742 71.34722663146316 2.8199664825478975e-15
vertex 21.67027731990742 77.34722663146316 2.8199664825478975e-15
vertex 21.67027731990742 71.34722663146316 2.8199664825478975e-15
endloop
endfacet
facet normal 1.0466890135476474e-16 2.0424491818190615e-16 -1.0
outer loop
vertex 21.67027731990742 71.34722663146316 2.8199664825478975e-15
vertex 21.67027731990742 77.34722663146316 2.8199664825478975e-15
vertex 21.67027731990742 74.34722663146316 1.4099832412739488e-14
endloop
endfacet
facet normal 1.0466890135476474e-16 2.0424491818190615e-16 -1.0
outer loop
vertex 21.67027731990742 71.34722663146316 2.8199664825478975e-15
vertex 21.67027731990742 74.34722663146316 1.4099832412739488e-14
vertex 24.670277319907424 74.34722663146316 1.4099832412739488e-14
endloop
endfacet
facet normal 1.0466890135476474e-16 2.0424491818190615e-16 -1.0
outer loop
vertex 21.67027731990742 71.34722663146316 2.8199664825478975e-15
vertex 24.670277319907424 74.34722663146316 1.4099832412739488e-14
vertex 21.67027731990742 65.34722663146316 2.8199664825478975e-15
endloop
endfacet
facet normal 1.0466890135476474e-16 2.0424491818190615e-16 -1.0
outer loop
vertex 21.67027731990742 65.34722663146316 2.8199664825478975e-15
vertex 24.670277319907424 74.34722663146316 1.4099832412739488e-14
vertex 21.67027731990742 62.34722663146316 1.762479051592436e-16
endloop
endfacet
facet normal 1.0466890135476474e-16 2.0424491818190615e-16 -1.0
outer loop
vertex 21.67027731990742 62.34722663146316 1.762479051592436e-16
vertex 24.670277319907424 74.34722663146316 1.4099832412739488e-14
vertex 24.670277319907424 62.34722663146316 1.762479051592436e-16
endloop
endfacet
facet normal 1.0466890135476474e-16 2.0424491818190615e-16 -1.0
outer loop
vertex 24.670277319907424 62.34722663146316 1.762479051592436e-16
vertex 24.670277319907424 74.34722663146316 1.4099832412739488e-14
vertex 24.670277319907424 70.14722663146316 1.0751122214713859e-14
endloop
endfacet
facet normal 1.0466890135476474e-16 2.0424491818190615e-16 -1.0
outer loop
vertex 24.670277319907424 62.34722663146316 1.762479051592436e-16
vertex 24.670277319907424 70.14722663146316 1.0751122214713859e-14
vertex 24.670277319907424 66.54722663146316 5.4636850599365515e-15
endloop
endfacet
facet normal 1.0466890135476474e-16 2.0424491818190615e-16 -1.0
outer loop
vertex 18.67027731990742 71.34722663146316 2.8199664825478975e-15
vertex 15.67027731990742 65.34722663146316 0.0
vertex 15.67027731990742 71.34722663146316 5.639932965095795e-15
endloop
endfacet
facet normal 1.0466890135476474e-16 2.0424491818190615e-16 -1.0
outer loop
vertex 15.67027731990742 65.34722663146316 0.0
vertex 18.67027731990742 71.34722663146316 2.8199664825478975e-15
vertex 18.67027731990742 65.34722663146316 0.0
endloop
endfacet
facet normal 1.0466890135476474e-16 2.0424491818190615e-16 -1.0
outer loop
vertex 12.670277319907424 71.34722663146316 1.127986593019159e-14
vertex 9.670277319907422 65.34722663146316 5.639932965095795e-15
vertex 9.670277319907422 71.34722663146316 1.127986593019159e-14
endloop
endfacet
facet normal 1.0466890135476474e-16 2.0424491818190615e-16 -1.0
outer loop
vertex 9.670277319907422 65.34722663146316 5.639932965095795e-15
vertex 12.670277319907424 71.34722663146316 1.127986593019159e-14
vertex 12.670277319907424 65.34722663146316 5.639932965095795e-15
endloop
endfacet
facet normal 1.0466890135476474e-16 2.0424491818190615e-16 -1.0
outer loop
vertex 6.670277319907422 74.34722663146316 2.996214387707141e-15
vertex 3.6702773199074223 62.34722663146316 2.996214387707141e-15
vertex 3.6702773199074223 74.34722663146316 2.996214387707141e-15
endloop
endfacet
facet normal 1.0466890135476474e-16 2.0424491818190615e-16 -1.0
outer loop
vertex 3.6702773199074223 62.34722663146316 2.996214387707141e-15
vertex 6.670277319907422 74.34722663146316 2.996214387707141e-15
vertex 6.670277319907422 62.34722663146316 2.996214387707141e-15
endloop
endfacet
facet normal 0.0 1.0 0.0
outer loop
vertex 24.670277319907424 70.14722663146316 1.0751122214713859e-14
vertex 59.67652555886018 70.14722663146316 1.5000000000000047
vertex 59.67652555886018 70.14722663146316 4.139302806059603e-15
endloop
endfacet
facet normal 0.0 1.0 0.0
outer loop
vertex 59.67652555886018 70.14722663146316 1.5000000000000047
vertex 24.670277319907424 70.14722663146316 1.0751122214713859e-14
vertex 24.670277319907424 70.14722663146316 1.500000000000011
endloop
endfacet
facet normal 0.0 1.0 0.0
outer loop
vertex 59.67652555886018 70.14722663146316 1.5000000000000047
vertex 24.670277319907424 70.14722663146316 1.500000000000011
vertex 49.67652555886019 70.14722663146316 1.5000000000000093
endloop
endfacet
facet normal 0.0 1.0 0.0
outer loop
vertex 49.67652555886019 70.14722663146316 1.5000000000000093
vertex 52.17652555886019 70.14722663146316 1.5000000000000095
vertex 59.67652555886018 70.14722663146316 1.5000000000000047
endloop
endfacet
facet normal 0.0 1.0 0.0
outer loop
vertex 52.17652555886019 70.14722663146316 1.5000000000000095
vertex 49.67652555886019 70.14722663146316 1.5000000000000093
vertex 49.67652555886019 70.14722663146316 3.500000000000009
endloop
endfacet
facet normal 0.0 1.0 0.0
outer loop
vertex 52.17652555886019 70.14722663146316 1.5000000000000095
vertex 49.67652555886019 70.14722663146316 3.500000000000009
vertex 52.17652555886019 70.14722663146316 3.500000000000009
endloop
endfacet
facet normal 1.0 -6.450249253772463e-32 -3.55018775501108e-17
outer loop
vertex 59.67652555886018 70.14722663146316 4.139302806059603e-15
vertex 59.67652555886018 66.54722663146316 1.5000000000000102
vertex 59.67652555886018 66.54722663146316 9.589929391654645e-15
endloop
endfacet
facet normal 1.0 -6.450249253772463e-32 -3.55018775501108e-17
outer loop
vertex 59.67652555886018 66.54722663146316 1.5000000000000102
vertex 59.67652555886018 70.14722663146316 4.139302806059603e-15
vertex 59.67652555886018 70.14722663146316 1.5000000000000047
endloop
endfacet
facet normal 0.0 -1.0 0.0
outer loop
vertex 59.67652555886018 66.54722663146316 9.589929391654645e-15
vertex 24.670277319907424 66.54722663146316 1.5000000000000053
vertex 24.670277319907424 66.54722663146316 5.4636850599365515e-15
endloop
endfacet
facet normal 0.0 -1.0 0.0
outer loop
vertex 24.670277319907424 66.54722663146316 1.5000000000000053
vertex 59.67652555886018 66.54722663146316 9.589929391654645e-15
vertex 59.67652555886018 66.54722663146316 1.5000000000000102
endloop
endfacet
facet normal 0.0 -1.0 0.0
outer loop
vertex 24.670277319907424 66.54722663146316 1.5000000000000053
vertex 59.67652555886018 66.54722663146316 1.5000000000000102
vertex 49.67652555886019 66.54722663146316 1.5000000000000093
endloop
endfacet
facet normal 0.0 -1.0 0.0
outer loop
vertex 49.67652555886019 66.54722663146316 1.5000000000000093
vertex 59.67652555886018 66.54722663146316 1.5000000000000102
vertex 52.17652555886019 66.54722663146316 1.5000000000000095
endloop
endfacet
facet normal 0.0 -1.0 0.0
outer loop
vertex 52.17652555886019 66.54722663146316 1.5000000000000095
vertex 49.67652555886019 66.54722663146316 3.500000000000009
vertex 49.67652555886019 66.54722663146316 1.5000000000000093
endloop
endfacet
facet normal 0.0 -1.0 0.0
outer loop
vertex 49.67652555886019 66.54722663146316 3.500000000000009
vertex 52.17652555886019 66.54722663146316 1.5000000000000095
vertex 52.17652555886019 66.54722663146316 3.500000000000009
endloop
endfacet
facet normal -2.0006199322157987e-16 -6.6571446707929824e-18 1.0
outer loop
vertex 18.67027731990742 65.34722663146316 1.5
vertex 15.67027731990742 71.34722663146316 1.5
vertex 15.67027731990742 65.34722663146316 1.5
endloop
endfacet
facet normal -2.0006199322157987e-16 -6.6571446707929824e-18 1.0
outer loop
vertex 15.67027731990742 71.34722663146316 1.5
vertex 18.67027731990742 65.34722663146316 1.5
vertex 18.67027731990742 71.34722663146316 1.5
endloop
endfacet
facet normal -2.0006199322157987e-16 -6.6571446707929824e-18 1.0
outer loop
vertex 6.670277319907422 62.34722663146316 1.5
vertex 3.6702773199074223 74.34722663146316 1.5
vertex 3.6702773199074223 62.34722663146316 1.5
endloop
endfacet
facet normal -2.0006199322157987e-16 -6.6571446707929824e-18 1.0
outer loop
vertex 3.6702773199074223 74.34722663146316 1.5
vertex 6.670277319907422 62.34722663146316 1.5
vertex 6.670277319907422 74.34722663146316 1.5
endloop
endfacet
facet normal -2.0006199322157987e-16 -6.6571446707929824e-18 1.0
outer loop
vertex 6.670277319907422 74.34722663146316 1.5
vertex 6.670277319907422 62.34722663146316 1.5
vertex 6.670277319907424 59.34722663146315 1.5
endloop
endfacet
facet normal -2.0006199322157987e-16 -6.6571446707929824e-18 1.0
outer loop
vertex 6.670277319907422 74.34722663146316 1.5
vertex 6.670277319907424 59.34722663146315 1.5
vertex 6.670277319907422 77.34722663146316 1.5
endloop
endfacet
facet normal -2.0006199322157987e-16 -6.6571446707929824e-18 1.0
outer loop
vertex 6.670277319907422 77.34722663146316 1.5
vertex 6.670277319907424 59.34722663146315 1.5
vertex 9.670277319907422 77.34722663146316 1.5
endloop
endfacet
facet normal -2.0006199322157987e-16 -6.6571446707929824e-18 1.0
outer loop
vertex 9.670277319907422 77.34722663146316 1.5
vertex 6.670277319907424 59.34722663146315 1.5
vertex 9.67027731990742 59.34722663146315 1.5
endloop
endfacet
facet normal -2.0006199322157987e-16 -6.6571446707929824e-18 1.0
outer loop
vertex 9.670277319907422 77.34722663146316 1.5
vertex 9.67027731990742 59.34722663146315 1.5
vertex 9.670277319907422 56.34722663146316 1.5
endloop
endfacet
facet normal -2.0006199322157987e-16 -6.6571446707929824e-18 1.0
outer loop
vertex 9.670277319907422 77.34722663146316 1.5
vertex 9.670277319907422 56.34722663146316 1.5
vertex 9.670277319907422 62.34722663146316 1.5
endloop
endfacet
facet normal -2.0006199322157987e-16 -6.6571446707929824e-18 1.0
outer loop
vertex 9.670277319907422 77.34722663146316 1.5
vertex 9.670277319907422 62.34722663146316 1.5
vertex 9.670277319907422 65.34722663146316 1.5
endloop
endfacet
facet normal -2.0006199322157987e-16 -6.6571446707929824e-18 1.0
outer loop
vertex 9.670277319907422 77.34722663146316 1.5
vertex 9.670277319907422 65.34722663146316 1.5
vertex 9.670277319907422 71.34722663146316 1.5
endloop
endfacet
facet normal -2.0006199322157987e-16 -6.6571446707929824e-18 1.0
outer loop
vertex 9.670277319907422 77.34722663146316 1.5
vertex 9.670277319907422 71.34722663146316 1.5
vertex 9.670277319907422 74.34722663146316 1.5
endloop
endfacet
facet normal -2.0006199322157987e-16 -6.6571446707929824e-18 1.0
outer loop
vertex 9.670277319907422 77.34722663146316 1.5
vertex 9.670277319907422 74.34722663146316 1.5
vertex 12.670277319907424 74.34722663146316 1.5
endloop
endfacet
facet normal -2.0006199322157987e-16 -6.6571446707929824e-18 1.0
outer loop
vertex 9.670277319907422 77.34722663146316 1.5
vertex 12.670277319907424 74.34722663146316 1.5
vertex 9.670277319907422 80.34722663146314 1.5
endloop
endfacet
facet normal -2.0006199322157987e-16 -6.6571446707929824e-18 1.0
outer loop
vertex 9.670277319907422 80.34722663146314 1.5
vertex 12.670277319907424 74.34722663146316 1.5
vertex 18.67027731990742 80.34722663146314 1.5
endloop
endfacet
facet normal -2.0006199322157987e-16 -6.6571446707929824e-18 1.0
outer loop
vertex 18.67027731990742 80.34722663146314 1.5
vertex 12.670277319907424 74.34722663146316 1.5
vertex 15.67027731990742 74.34722663146316 1.5
endloop
endfacet
facet normal -2.0006199322157987e-16 -6.6571446707929824e-18 1.0
outer loop
vertex 15.67027731990742 74.34722663146316 1.5
vertex 12.670277319907424 74.34722663146316 1.5
vertex 15.67027731990742 62.34722663146316 1.5
endloop
endfacet
facet normal -2.0006199322157987e-16 -6.6571446707929824e-18 1.0
outer loop
vertex 15.67027731990742 74.34722663146316 1.5
vertex 15.67027731990742 62.34722663146316 1.5
vertex 15.67027731990742 65.34722663146316 1.5
endloop
endfacet
facet normal -2.0006199322157987e-16 -6.6571446707929824e-18 1.0
outer loop
vertex 15.67027731990742 74.34722663146316 1.5
vertex 15.67027731990742 65.34722663146316 1.5
vertex 15.67027731990742 71.34722663146316 1.5
endloop
endfacet
facet normal -2.0006199322157987e-16 -6.6571446707929824e-18 1.0
outer loop
vertex 18.67027731990742 80.34722663146314 1.5
vertex 15.67027731990742 74.34722663146316 1.5
vertex 18.67027731990742 74.34722663146316 1.5
endloop
endfacet
facet normal -2.0006199322157987e-16 -6.6571446707929824e-18 1.0
outer loop
vertex 18.67027731990742 80.34722663146314 1.5
vertex 18.67027731990742 74.34722663146316 1.5
vertex 18.67027731990742 77.34722663146316 1.5
endloop
endfacet
facet normal -2.0006199322157987e-16 -6.6571446707929824e-18 1.0
outer loop
vertex 21.67027731990742 71.34722663146316 1.5
vertex 18.67027731990742 74.34722663146316 1.5
vertex 18.67027731990742 71.34722663146316 1.5
endloop
endfacet
facet normal -2.0006199322157987e-16 -6.6571446707929824e-18 1.0
outer loop
vertex 18.67027731990742 74.34722663146316 1.5
vertex 21.67027731990742 71.34722663146316 1.5
vertex 18.67027731990742 77.34722663146316 1.5
endloop
endfacet
facet normal -2.0006199322157987e-16 -6.6571446707929824e-18 1.0
outer loop
vertex 18.67027731990742 77.34722663146316 1.5
vertex 21.67027731990742 71.34722663146316 1.5
vertex 21.67027731990742 77.34722663146316 1.5
endloop
endfacet
facet normal -2.0006199322157987e-16 -6.6571446707929824e-18 1.0
outer loop
vertex 21.67027731990742 77.34722663146316 1.5
vertex 21.67027731990742 71.34722663146316 1.5
vertex 21.67027731990742 74.34722663146316 1.5
endloop
endfacet
facet normal -2.0006199322157987e-16 -6.6571446707929824e-18 1.0
outer loop
vertex 49.67652555886019 66.54722663146316 1.5000000000000093
vertex 24.670277319907424 70.14722663146316 1.500000000000011
vertex 24.670277319907424 66.54722663146316 1.5000000000000053
endloop
endfacet
facet normal -2.0006199322157987e-16 -6.6571446707929824e-18 1.0
outer loop
vertex 24.670277319907424 70.14722663146316 1.500000000000011
vertex 49.67652555886019 66.54722663146316 1.5000000000000093
vertex 49.67652555886019 70.14722663146316 1.5000000000000093
endloop
endfacet
facet normal -2.0006199322157987e-16 -6.6571446707929824e-18 1.0
outer loop
vertex 18.67027731990742 56.34722663146316 1.5
vertex 9.670277319907422 62.34722663146316 1.5
vertex 9.670277319907422 56.34722663146316 1.5
endloop
endfacet
facet normal -2.0006199322157987e-16 -6.6571446707929824e-18 1.0
outer loop
vertex 9.670277319907422 62.34722663146316 1.5
vertex 18.67027731990742 56.34722663146316 1.5
vertex 12.670277319907424 62.34722663146316 1.5
endloop
endfacet
facet normal -2.0006199322157987e-16 -6.6571446707929824e-18 1.0
outer loop
vertex 12.670277319907424 62.34722663146316 1.5
vertex 18.67027731990742 56.34722663146316 1.5
vertex 12.670277319907424 65.34722663146316 1.5
endloop
endfacet
facet normal -2.0006199322157987e-16 -6.6571446707929824e-18 1.0
outer loop
vertex 12.670277319907424 65.34722663146316 1.5
vertex 18.67027731990742 56.34722663146316 1.5
vertex 15.67027731990742 62.34722663146316 1.5
endloop
endfacet
facet normal -2.0006199322157987e-16 -6.6571446707929824e-18 1.0
outer loop
vertex 12.670277319907424 65.34722663146316 1.5
vertex 15.67027731990742 62.34722663146316 1.5
vertex 12.670277319907424 71.34722663146316 1.5
endloop
endfacet
facet normal -2.0006199322157987e-16 -6.6571446707929824e-18 1.0
outer loop
vertex 12.670277319907424 71.34722663146316 1.5
vertex 15.67027731990742 62.34722663146316 1.5
vertex 12.670277319907424 74.34722663146316 1.5
endloop
endfacet
facet normal -2.0006199322157987e-16 -6.6571446707929824e-18 1.0
outer loop
vertex 15.67027731990742 62.34722663146316 1.5
vertex 18.67027731990742 56.34722663146316 1.5
vertex 18.67027731990742 62.34722663146316 1.5
endloop
endfacet
facet normal -2.0006199322157987e-16 -6.6571446707929824e-18 1.0
outer loop
vertex 18.67027731990742 62.34722663146316 1.5
vertex 18.67027731990742 56.34722663146316 1.5
vertex 18.67027731990742 59.34722663146315 1.5
endloop
endfacet
facet normal -2.0006199322157987e-16 -6.6571446707929824e-18 1.0
outer loop
vertex 18.67027731990742 62.34722663146316 1.5
vertex 18.67027731990742 59.34722663146315 1.5
vertex 21.67027731990742 59.34722663146315 1.5
endloop
endfacet
facet normal -2.0006199322157987e-16 -6.6571446707929824e-18 1.0
outer loop
vertex 18.67027731990742 62.34722663146316 1.5
vertex 21.67027731990742 59.34722663146315 1.5
vertex 18.67027731990742 65.34722663146316 1.5
endloop
endfacet
facet normal -2.0006199322157987e-16 -6.6571446707929824e-18 1.0
outer loop
vertex 18.67027731990742 65.34722663146316 1.5
vertex 21.67027731990742 59.34722663146315 1.5
vertex 21.67027731990742 65.34722663146316 1.5
endloop
endfacet
facet normal -2.0006199322157987e-16 -6.6571446707929824e-18 1.0
outer loop
vertex 21.67027731990742 65.34722663146316 1.5
vertex 21.67027731990742 59.34722663146315 1.5
vertex 21.67027731990742 62.34722663146316 1.5
endloop
endfacet
facet normal -2.0006199322157987e-16 -6.6571446707929824e-18 1.0
outer loop
vertex 21.67027731990742 65.34722663146316 1.5
vertex 21.67027731990742 62.34722663146316 1.5
vertex 24.670277319907424 62.34722663146316 1.5
endloop
endfacet
facet normal -2.0006199322157987e-16 -6.6571446707929824e-18 1.0
outer loop
vertex 21.67027731990742 65.34722663146316 1.5
vertex 24.670277319907424 62.34722663146316 1.5
vertex 21.67027731990742 71.34722663146316 1.5
endloop
endfacet
facet normal -2.0006199322157987e-16 -6.6571446707929824e-18 1.0
outer loop
vertex 21.67027731990742 71.34722663146316 1.5
vertex 24.670277319907424 62.34722663146316 1.5
vertex 21.67027731990742 74.34722663146316 1.5
endloop
endfacet
facet normal -2.0006199322157987e-16 -6.6571446707929824e-18 1.0
outer loop
vertex 21.67027731990742 74.34722663146316 1.5
vertex 24.670277319907424 62.34722663146316 1.5
vertex 24.670277319907424 74.34722663146316 1.5
endloop
endfacet
facet normal -2.0006199322157987e-16 -6.6571446707929824e-18 1.0
outer loop
vertex 24.670277319907424 74.34722663146316 1.5
vertex 24.670277319907424 62.34722663146316 1.5
vertex 24.670277319907424 66.54722663146316 1.5000000000000053
endloop
endfacet
facet normal -2.0006199322157987e-16 -6.6571446707929824e-18 1.0
outer loop
vertex 24.670277319907424 74.34722663146316 1.5
vertex 24.670277319907424 66.54722663146316 1.5000000000000053
vertex 24.670277319907424 70.14722663146316 1.500000000000011
endloop
endfacet
facet normal -2.0006199322157987e-16 -6.6571446707929824e-18 1.0
outer loop
vertex 12.670277319907424 65.34722663146316 1.5
vertex 9.670277319907422 71.34722663146316 1.5
vertex 9.670277319907422 65.34722663146316 1.5
endloop
endfacet
facet normal -2.0006199322157987e-16 -6.6571446707929824e-18 1.0
outer loop
vertex 9.670277319907422 71.34722663146316 1.5
vertex 12.670277319907424 65.34722663146316 1.5
vertex 12.670277319907424 71.34722663146316 1.5
endloop
endfacet
facet normal 2.8199664825479026e-16 7.833240229299729e-16 1.0
outer loop
vertex 59.67652555886018 66.54722663146316 1.5000000000000102
vertex 52.17652555886019 70.14722663146316 1.5000000000000095
vertex 52.17652555886019 66.54722663146316 1.5000000000000095
endloop
endfacet
facet normal 2.8199664825479026e-16 7.833240229299729e-16 1.0
outer loop
vertex 52.17652555886019 70.14722663146316 1.5000000000000095
vertex 59.67652555886018 66.54722663146316 1.5000000000000102
vertex 59.67652555886018 70.14722663146316 1.5000000000000047
endloop
endfacet
facet normal -1.409983241273948e-16 0.0 1.0
outer loop
vertex 52.17652555886019 66.54722663146316 3.500000000000009
vertex 49.67652555886019 70.14722663146316 3.500000000000009
vertex 49.67652555886019 66.54722663146316 3.500000000000009
endloop
endfacet
facet normal -1.409983241273948e-16 0.0 1.0
outer loop
vertex 49.67652555886019 70.14722663146316 3.500000000000009
vertex 52.17652555886019 66.54722663146316 3.500000000000009
vertex 52.17652555886019 70.14722663146316 3.500000000000009
endloop
endfacet
facet normal 1.0 0.0 1.4099832412739478e-16
outer loop
vertex 52.17652555886019 70.14722663146316 1.5000000000000095
vertex 52.17652555886019 66.54722663146316 3.500000000000009
vertex 52.17652555886019 66.54722663146316 1.5000000000000095
endloop
endfacet
facet normal 1.0 0.0 1.4099832412739478e-16
outer loop
vertex 52.17652555886019 66.54722663146316 3.500000000000009
vertex 52.17652555886019 70.14722663146316 1.5000000000000095
vertex 52.17652555886019 70.14722663146316 3.500000000000009
endloop
endfacet
facet normal -1.0 -0.0 -1.4099832412739478e-16
outer loop
vertex 49.67652555886019 70.14722663146316 3.500000000000009
vertex 49.67652555886019 66.54722663146316 1.5000000000000093
vertex 49.67652555886019 66.54722663146316 3.500000000000009
endloop
endfacet
facet normal -1.0 -0.0 -1.4099832412739478e-16
outer loop
vertex 49.67652555886019 66.54722663146316 1.5000000000000093
vertex 49.67652555886019 70.14722663146316 3.500000000000009
vertex 49.67652555886019 70.14722663146316 1.5000000000000093
endloop
endfacet
endsolid candy
