solid robot
facet normal -0.11476931367816363 0.9933921706143267 -7.098378804817511e-17
outer loop
vertex 6.824472005977579 344.8827738185191 5.399999999999986
vertex 80.72447200597756 353.4206428814203 3.399999999999986
vertex 6.824472005977579 344.8827738185191 3.399999999999986
endloop
endfacet
facet normal -0.11476931367816363 0.9933921706143267 -7.098378804817511e-17
outer loop
vertex 80.72447200597756 353.4206428814203 3.399999999999986
vertex 6.824472005977579 344.8827738185191 5.399999999999986
vertex 80.72447200597756 353.4206428814203 5.399999999999986
endloop
endfacet
facet normal 1.0 0.0 0.0
outer loop
vertex 80.72447200597756 353.4206428814203 3.399999999999986
vertex 80.72447200597756 279.9093809514567 5.399999999999986
vertex 80.72447200597756 279.9093809514567 3.399999999999986
endloop
endfacet
facet normal 1.0 0.0 0.0
outer loop
vertex 80.72447200597756 279.9093809514567 5.399999999999986
vertex 80.72447200597756 353.4206428814203 3.399999999999986
vertex 80.72447200597756 353.4206428814203 5.399999999999986
endloop
endfacet
facet normal 1.0 0.0 0.0
outer loop
vertex 82.72447200597755 355.66501191643846 1.3999999999999861
vertex 82.72447200597755 277.66501191643846 3.399999999999986
vertex 82.72447200597755 277.66501191643846 1.3999999999999861
endloop
endfacet
facet normal 1.0 0.0 0.0
outer loop
vertex 82.72447200597755 277.66501191643846 3.399999999999986
vertex 82.72447200597755 355.66501191643846 1.3999999999999861
vertex 82.72447200597755 355.66501191643846 3.399999999999986
endloop
endfacet
facet normal -0.11476931367816338 0.9933921706143267 0.0
outer loop
vertex 4.824472005977583 346.6650119164385 3.399999999999986
vertex 82.72447200597755 355.66501191643846 1.3999999999999861
vertex 4.824472005977583 346.6650119164385 1.3999999999999861
endloop
endfacet
facet normal -0.11476931367816338 0.9933921706143267 0.0
outer loop
vertex 82.72447200597755 355.66501191643846 1.3999999999999861
vertex 4.824472005977583 346.6650119164385 3.399999999999986
vertex 82.72447200597755 355.66501191643846 3.399999999999986
endloop
endfacet
facet normal 0.0 0.0 -1.0
outer loop
vertex 82.72447200597755 355.66501191643846 1.3999999999999861
vertex 4.824472005977583 286.66501191643846 1.3999999999999861
vertex 4.824472005977583 346.6650119164385 1.3999999999999861
endloop
endfacet
facet normal 0.0 0.0 -1.0
outer loop
vertex 4.824472005977583 286.66501191643846 1.3999999999999861
vertex 82.72447200597755 355.66501191643846 1.3999999999999861
vertex 82.72447200597755 277.66501191643846 1.3999999999999861
endloop
endfacet
facet normal -0.11476931367816248 -0.9933921706143267 -1.906632997421564e-18
outer loop
vertex 80.72447200597756 279.9093809514567 5.399999999999986
vertex 78.22447200597755 280.19821278714346 3.3999999999999866
vertex 80.72447200597756 279.9093809514567 3.399999999999986
endloop
endfacet
facet normal -0.11476931367816248 -0.9933921706143267 -1.906632997421564e-18
outer loop
vertex 78.22447200597755 280.19821278714346 3.3999999999999866
vertex 80.72447200597756 279.9093809514567 5.399999999999986
vertex 78.22447200597755 280.19821278714346 5.3999999999999835
endloop
endfacet
facet normal -1.0 0.0 0.0
outer loop
vertex 6.824472005977579 344.8827738185191 5.399999999999986
vertex 6.824472005977579 288.44725001435785 3.399999999999986
vertex 6.824472005977579 288.44725001435785 5.399999999999986
endloop
endfacet
facet normal -1.0 0.0 0.0
outer loop
vertex 6.824472005977579 288.44725001435785 3.399999999999986
vertex 6.824472005977579 344.8827738185191 5.399999999999986
vertex 6.824472005977579 344.8827738185191 3.399999999999986
endloop
endfacet
facet normal 1.0396431210750871e-17 -1.4606315217187443e-17 1.0
outer loop
vertex 66.22447200597755 281.58460559844 5.399999999999984
vertex 6.824472005977579 344.8827738185191 5.399999999999986
vertex 6.824472005977579 288.44725001435785 5.399999999999986
endloop
endfacet
facet normal 1.0396431210750871e-17 -1.4606315217187443e-17 1.0
outer loop
vertex 6.824472005977579 344.8827738185191 5.399999999999986
vertex 66.22447200597755 281.58460559844 5.399999999999984
vertex 80.72447200597756 353.4206428814203 5.399999999999986
endloop
endfacet
facet normal 1.0396431210750871e-17 -1.4606315217187443e-17 1.0
outer loop
vertex 80.72447200597756 353.4206428814203 5.399999999999986
vertex 66.22447200597755 281.58460559844 5.399999999999984
vertex 78.22447200597755 280.19821278714346 5.3999999999999835
endloop
endfacet
facet normal 1.0396431210750871e-17 -1.4606315217187443e-17 1.0
outer loop
vertex 80.72447200597756 353.4206428814203 5.399999999999986
vertex 78.22447200597755 280.19821278714346 5.3999999999999835
vertex 80.72447200597756 279.9093809514567 5.399999999999986
endloop
endfacet
facet normal -1.0 -0.0 -0.0
outer loop
vertex 4.824472005977583 346.6650119164385 3.399999999999986
vertex 4.824472005977583 286.66501191643846 1.3999999999999861
vertex 4.824472005977583 286.66501191643846 3.399999999999986
endloop
endfacet
facet normal -1.0 -0.0 -0.0
outer loop
vertex 4.824472005977583 286.66501191643846 1.3999999999999861
vertex 4.824472005977583 346.6650119164385 3.399999999999986
vertex 4.824472005977583 346.6650119164385 1.3999999999999861
endloop
endfacet
facet normal -0.11476931367816338 -0.9933921706143267 -0.0
outer loop
vertex 82.72447200597755 277.66501191643846 3.399999999999986
vertex 4.824472005977583 286.66501191643846 1.3999999999999861
vertex 82.72447200597755 277.66501191643846 1.3999999999999861
endloop
endfacet
facet normal -0.11476931367816338 -0.9933921706143267 -0.0
outer loop
vertex 4.824472005977583 286.66501191643846 1.3999999999999861
vertex 82.72447200597755 277.66501191643846 3.399999999999986
vertex 4.824472005977583 286.66501191643846 3.399999999999986
endloop
endfacet
facet normal -0.11476931367816338 -0.9933921706143267 -0.0
outer loop
vertex 4.824472005977583 286.66501191643846 3.399999999999986
vertex 82.72447200597755 277.66501191643846 3.399999999999986
vertex 78.22447200597755 278.1849092206747 3.3999999999999866
endloop
endfacet
facet normal -0.11476931367816338 -0.9933921706143267 -0.0
outer loop
vertex 4.824472005977583 286.66501191643846 3.399999999999986
vertex 78.22447200597755 278.1849092206747 3.3999999999999866
vertex 66.22447200597755 279.57130203197124 3.399999999999988
endloop
endfacet
facet normal -0.11476931367816338 -0.9933921706143267 -0.0
outer loop
vertex 66.22447200597755 279.57130203197124 3.399999999999988
vertex 78.22447200597755 278.1849092206747 3.3999999999999866
vertex 78.22447200597755 278.1849092206747 13.39999999999998
endloop
endfacet
facet normal -0.11476931367816338 -0.9933921706143267 -0.0
outer loop
vertex 66.22447200597755 279.57130203197124 3.399999999999988
vertex 78.22447200597755 278.1849092206747 13.39999999999998
vertex 66.22447200597755 279.57130203197124 13.399999999999984
endloop
endfacet
facet normal -4.543250513309934e-18 9.693002148244223e-18 1.0
outer loop
vertex 4.824472005977583 286.66501191643846 3.399999999999986
vertex 6.824472005977579 288.44725001435785 3.399999999999986
vertex 4.824472005977583 346.6650119164385 3.399999999999986
endloop
endfacet
facet normal -4.543250513309934e-18 9.693002148244223e-18 1.0
outer loop
vertex 6.824472005977579 288.44725001435785 3.399999999999986
vertex 4.824472005977583 286.66501191643846 3.399999999999986
vertex 66.22447200597755 279.57130203197124 3.399999999999988
endloop
endfacet
facet normal -4.543250513309934e-18 9.693002148244223e-18 1.0
outer loop
vertex 6.824472005977579 288.44725001435785 3.399999999999986
vertex 66.22447200597755 279.57130203197124 3.399999999999988
vertex 66.22447200597755 281.58460559844 3.399999999999988
endloop
endfacet
facet normal -4.543250513309934e-18 9.693002148244223e-18 1.0
outer loop
vertex 82.72447200597755 277.66501191643846 3.399999999999986
vertex 78.22447200597755 280.19821278714346 3.3999999999999866
vertex 78.22447200597755 278.1849092206747 3.3999999999999866
endloop
endfacet
facet normal -4.543250513309934e-18 9.693002148244223e-18 1.0
outer loop
vertex 78.22447200597755 280.19821278714346 3.3999999999999866
vertex 82.72447200597755 277.66501191643846 3.399999999999986
vertex 80.72447200597756 279.9093809514567 3.399999999999986
endloop
endfacet
facet normal -4.543250513309934e-18 9.693002148244223e-18 1.0
outer loop
vertex 80.72447200597756 279.9093809514567 3.399999999999986
vertex 82.72447200597755 277.66501191643846 3.399999999999986
vertex 80.72447200597756 353.4206428814203 3.399999999999986
endloop
endfacet
facet normal -4.543250513309934e-18 9.693002148244223e-18 1.0
outer loop
vertex 4.824472005977583 346.6650119164385 3.399999999999986
vertex 6.824472005977579 344.8827738185191 3.399999999999986
vertex 82.72447200597755 355.66501191643846 3.399999999999986
endloop
endfacet
facet normal -4.543250513309934e-18 9.693002148244223e-18 1.0
outer loop
vertex 6.824472005977579 344.8827738185191 3.399999999999986
vertex 4.824472005977583 346.6650119164385 3.399999999999986
vertex 6.824472005977579 288.44725001435785 3.399999999999986
endloop
endfacet
facet normal -4.543250513309934e-18 9.693002148244223e-18 1.0
outer loop
vertex 82.72447200597755 355.66501191643846 3.399999999999986
vertex 6.824472005977579 344.8827738185191 3.399999999999986
vertex 80.72447200597756 353.4206428814203 3.399999999999986
endloop
endfacet
facet normal -4.543250513309934e-18 9.693002148244223e-18 1.0
outer loop
vertex 82.72447200597755 355.66501191643846 3.399999999999986
vertex 80.72447200597756 353.4206428814203 3.399999999999986
vertex 82.72447200597755 277.66501191643846 3.399999999999986
endloop
endfacet
facet normal 1.0 0.0 0.0
outer loop
vertex 78.22447200597755 280.19821278714346 3.3999999999999866
vertex 78.22447200597755 278.1849092206747 13.39999999999998
vertex 78.22447200597755 278.1849092206747 3.3999999999999866
endloop
endfacet
facet normal 1.0 0.0 0.0
outer loop
vertex 78.22447200597755 278.1849092206747 13.39999999999998
vertex 78.22447200597755 280.19821278714346 3.3999999999999866
vertex 78.22447200597755 280.19821278714346 13.39999999999998
endloop
endfacet
facet normal 1.0 0.0 0.0
outer loop
vertex 78.22447200597755 280.19821278714346 13.39999999999998
vertex 78.22447200597755 280.19821278714346 3.3999999999999866
vertex 78.22447200597755 280.19821278714346 5.3999999999999835
endloop
endfacet
facet normal -1.0 0.0 0.0
outer loop
vertex 66.22447200597755 281.58460559844 13.399999999999984
vertex 66.22447200597755 279.57130203197124 3.399999999999988
vertex 66.22447200597755 279.57130203197124 13.399999999999984
endloop
endfacet
facet normal -1.0 0.0 0.0
outer loop
vertex 66.22447200597755 279.57130203197124 3.399999999999988
vertex 66.22447200597755 281.58460559844 13.399999999999984
vertex 66.22447200597755 281.58460559844 3.399999999999988
endloop
endfacet
facet normal -1.0 0.0 0.0
outer loop
vertex 66.22447200597755 281.58460559844 3.399999999999988
vertex 66.22447200597755 281.58460559844 13.399999999999984
vertex 66.22447200597755 281.58460559844 5.399999999999984
endloop
endfacet
facet normal -0.11476931367816327 -0.9933921706143267 -5.262753068915676e-17
outer loop
vertex 66.22447200597755 281.58460559844 3.399999999999988
vertex 6.824472005977579 288.44725001435785 5.399999999999986
vertex 6.824472005977579 288.44725001435785 3.399999999999986
endloop
endfacet
facet normal -0.11476931367816327 -0.9933921706143267 -5.262753068915676e-17
outer loop
vertex 6.824472005977579 288.44725001435785 5.399999999999986
vertex 66.22447200597755 281.58460559844 3.399999999999988
vertex 66.22447200597755 281.58460559844 5.399999999999984
endloop
endfacet
facet normal 1.174986034394957e-16 -6.866957169373283e-32 1.0
outer loop
vertex 78.22447200597755 278.1849092206747 13.39999999999998
vertex 66.22447200597755 281.58460559844 13.399999999999984
vertex 66.22447200597755 279.57130203197124 13.399999999999984
endloop
endfacet
facet normal 1.174986034394957e-16 -6.866957169373283e-32 1.0
outer loop
vertex 66.22447200597755 281.58460559844 13.399999999999984
vertex 78.22447200597755 278.1849092206747 13.39999999999998
vertex 78.22447200597755 280.19821278714346 13.39999999999998
endloop
endfacet
facet normal 0.11476931367816573 0.9933921706143264 -1.3485234074893817e-17
outer loop
vertex 66.22447200597755 281.58460559844 5.399999999999984
vertex 78.22447200597755 280.19821278714346 13.39999999999998
vertex 78.22447200597755 280.19821278714346 5.3999999999999835
endloop
endfacet
facet normal 0.11476931367816573 0.9933921706143264 -1.3485234074893817e-17
outer loop
vertex 78.22447200597755 280.19821278714346 13.39999999999998
vertex 66.22447200597755 281.58460559844 5.399999999999984
vertex 66.22447200597755 281.58460559844 13.399999999999984
endloop
endfacet
endsolid robot
