solid robot
facet normal 0.0 0.0 1.0
outer loop
vertex 62.605753270552846 251.28008191153341 33.98086858374955
vertex 76.06564260030575 254.84844329530358 33.98086858374955
vertex 62.37621464319652 253.26686625276207 33.98086858374955
endloop
endfacet
facet normal 0.0 0.0 1.0
outer loop
vertex 76.06564260030575 254.84844329530358 33.98086858374955
vertex 62.605753270552846 251.28008191153341 33.98086858374955
vertex 76.29518122766206 252.8616589540749 33.98086858374955
endloop
endfacet
facet normal 0.0 0.0 -1.0
outer loop
vertex 21.833084881794743 248.5828076153729 32.12255039886636
vertex 16.1022704854651 245.90740739207527 32.12255039886636
vertex 15.872731858108791 247.89419173330393 32.12255039886636
endloop
endfacet
facet normal 0.0 0.0 -1.0
outer loop
vertex 16.1022704854651 245.90740739207527 32.12255039886636
vertex 21.833084881794743 248.5828076153729 32.12255039886636
vertex 22.062623509151074 246.5960232741442 32.12255039886636
endloop
endfacet
facet normal -1.0 -0.0 -0.0
outer loop
vertex 19.074116744289395 236.8500000000002 3.9999999999999925
vertex 19.074116744289395 195.75 1.999999999999998
vertex 19.074116744289395 195.75 3.9999999999999925
endloop
endfacet
facet normal -1.0 -0.0 -0.0
outer loop
vertex 19.074116744289395 195.75 1.999999999999998
vertex 19.074116744289395 236.8500000000002 3.9999999999999925
vertex 19.074116744289395 236.8500000000002 1.999999999999998
endloop
endfacet
facet normal 0.0 0.0 1.0
outer loop
vertex 84.97411674428936 230.79999999999998 34.49999999999999
vertex 79.97411674428938 240.79999999999995 34.49999999999999
vertex 79.97411674428938 230.79999999999998 34.49999999999999
endloop
endfacet
facet normal 0.0 0.0 1.0
outer loop
vertex 79.97411674428938 240.79999999999995 34.49999999999999
vertex 84.97411674428936 230.79999999999998 34.49999999999999
vertex 84.97411674428936 240.79999999999995 34.49999999999999
endloop
endfacet
facet normal 0.0 1.0 0.0
outer loop
vertex 22.074116744289388 199.65 3.9999999999999925
vertex 54.974116744289375 199.65 1.4099832412739487e-15
vertex 22.074116744289388 199.65 1.4099832412739487e-15
endloop
endfacet
facet normal 0.0 1.0 0.0
outer loop
vertex 54.974116744289375 199.65 1.4099832412739487e-15
vertex 22.074116744289388 199.65 3.9999999999999925
vertex 54.974116744289375 199.65 3.9999999999999925
endloop
endfacet
facet normal -1.0 -0.0 -0.0
outer loop
vertex 54.974116744289375 232.95000000000005 3.9999999999999925
vertex 54.974116744289375 199.65 1.4099832412739487e-15
vertex 54.974116744289375 199.65 3.9999999999999925
endloop
endfacet
facet normal -1.0 -0.0 -0.0
outer loop
vertex 54.974116744289375 199.65 1.4099832412739487e-15
vertex 54.974116744289375 232.95000000000005 3.9999999999999925
vertex 54.974116744289375 232.95000000000005 1.4099832412739487e-15
endloop
endfacet
facet normal 0.0 -1.0 0.0
outer loop
vertex 57.97411674428937 195.75 3.9999999999999925
vertex 19.074116744289395 195.75 1.999999999999998
vertex 57.97411674428937 195.75 1.999999999999998
endloop
endfacet
facet normal 0.0 -1.0 0.0
outer loop
vertex 19.074116744289395 195.75 1.999999999999998
vertex 57.97411674428937 195.75 3.9999999999999925
vertex 19.074116744289395 195.75 3.9999999999999925
endloop
endfacet
facet normal 0.0 -1.0 0.0
outer loop
vertex 54.974116744289375 232.95000000000005 3.9999999999999925
vertex 22.074116744289388 232.95000000000005 1.4099832412739487e-15
vertex 54.974116744289375 232.95000000000005 1.4099832412739487e-15
endloop
endfacet
facet normal 0.0 -1.0 0.0
outer loop
vertex 22.074116744289388 232.95000000000005 1.4099832412739487e-15
vertex 54.974116744289375 232.95000000000005 3.9999999999999925
vertex 22.074116744289388 232.95000000000005 3.9999999999999925
endloop
endfacet
facet normal 0.28734788556634594 0.0 -0.9578262852211513
outer loop
vertex 84.97411674428936 240.79999999999995 25.999999999999993
vertex 79.97411674428938 230.79999999999998 24.499999999999993
vertex 79.97411674428938 240.79999999999995 24.499999999999993
endloop
endfacet
facet normal 0.28734788556634594 0.0 -0.9578262852211513
outer loop
vertex 79.97411674428938 230.79999999999998 24.499999999999993
vertex 84.97411674428936 240.79999999999995 25.999999999999993
vertex 84.97411674428936 230.79999999999998 25.999999999999993
endloop
endfacet
facet normal -1.0 0.0 0.0
outer loop
vertex 2.074116744289402 186.29999999999998 58.99999999999998
vertex 2.074116744289402 202.29999999999998 36.89999999999999
vertex 2.074116744289402 186.29999999999998 0.0
endloop
endfacet
facet normal -1.0 0.0 0.0
outer loop
vertex 2.074116744289402 202.29999999999998 36.89999999999999
vertex 2.074116744289402 186.29999999999998 58.99999999999998
vertex 2.074116744289402 246.3 58.99999999999998
endloop
endfacet
facet normal -1.0 0.0 0.0
outer loop
vertex 2.074116744289402 202.29999999999998 36.89999999999999
vertex 2.074116744289402 246.3 58.99999999999998
vertex 2.074116744289402 230.3 36.89999999999999
endloop
endfacet
facet normal -1.0 0.0 0.0
outer loop
vertex 2.074116744289402 230.3 36.89999999999999
vertex 2.074116744289402 246.3 58.99999999999998
vertex 2.074116744289402 230.3 24.09999999999999
endloop
endfacet
facet normal -1.0 0.0 0.0
outer loop
vertex 2.074116744289402 186.29999999999998 0.0
vertex 2.074116744289402 202.29999999999998 24.09999999999999
vertex 2.074116744289402 246.3 0.0
endloop
endfacet
facet normal -1.0 0.0 0.0
outer loop
vertex 2.074116744289402 202.29999999999998 24.09999999999999
vertex 2.074116744289402 186.29999999999998 0.0
vertex 2.074116744289402 202.29999999999998 36.89999999999999
endloop
endfacet
facet normal -1.0 0.0 0.0
outer loop
vertex 2.074116744289402 246.3 0.0
vertex 2.074116744289402 202.29999999999998 24.09999999999999
vertex 2.074116744289402 230.3 24.09999999999999
endloop
endfacet
facet normal -1.0 0.0 0.0
outer loop
vertex 2.074116744289402 246.3 0.0
vertex 2.074116744289402 230.3 24.09999999999999
vertex 2.074116744289402 246.3 58.99999999999998
endloop
endfacet
facet normal 0.0 0.0 -1.0
outer loop
vertex 76.06564260030575 254.84844329530358 49.22366858374955
vertex 62.605753270552846 251.28008191153341 49.22366858374955
vertex 62.37621464319652 253.26686625276207 49.22366858374955
endloop
endfacet
facet normal 0.0 0.0 -1.0
outer loop
vertex 62.605753270552846 251.28008191153341 49.22366858374955
vertex 76.06564260030575 254.84844329530358 49.22366858374955
vertex 76.29518122766206 252.8616589540749 49.22366858374955
endloop
endfacet
facet normal 1.0 0.0 0.0
outer loop
vertex 84.97411674428936 240.79999999999995 25.999999999999993
vertex 84.97411674428936 230.79999999999998 34.49999999999999
vertex 84.97411674428936 230.79999999999998 25.999999999999993
endloop
endfacet
facet normal 1.0 0.0 0.0
outer loop
vertex 84.97411674428936 230.79999999999998 34.49999999999999
vertex 84.97411674428936 240.79999999999995 25.999999999999993
vertex 84.97411674428936 240.79999999999995 34.49999999999999
endloop
endfacet
facet normal 0.0 -1.0 0.0
outer loop
vertex 84.97411674428936 230.79999999999998 25.999999999999993
vertex 79.97411674428938 230.79999999999998 34.49999999999999
vertex 79.97411674428938 230.79999999999998 24.499999999999993
endloop
endfacet
facet normal 0.0 -1.0 0.0
outer loop
vertex 79.97411674428938 230.79999999999998 34.49999999999999
vertex 84.97411674428936 230.79999999999998 25.999999999999993
vertex 84.97411674428936 230.79999999999998 34.49999999999999
endloop
endfacet
facet normal -1.2574231595167303e-15 2.693450752558614e-15 1.0
outer loop
vertex 16.102270485465123 245.90740739207519 26.122550398866355
vertex 21.833084881794743 248.5828076153729 26.122550398866355
vertex 15.872731858108791 247.89419173330393 26.122550398866355
endloop
endfacet
facet normal -1.2574231595167303e-15 2.693450752558614e-15 1.0
outer loop
vertex 21.833084881794743 248.5828076153729 26.122550398866355
vertex 16.102270485465123 245.90740739207519 26.122550398866355
vertex 22.062623509151074 246.59602327414416 26.122550398866366
endloop
endfacet
facet normal -0.9933921706143269 -0.11476931367816151 4.307875584123255e-16
outer loop
vertex 22.062623509151074 246.5960232741442 32.12255039886636
vertex 21.833084881794743 248.5828076153729 26.122550398866355
vertex 22.062623509151074 246.59602327414416 26.122550398866366
endloop
endfacet
facet normal -0.9933921706143269 -0.11476931367816151 4.307875584123255e-16
outer loop
vertex 21.833084881794743 248.5828076153729 26.122550398866355
vertex 22.062623509151074 246.5960232741442 32.12255039886636
vertex 21.833084881794743 248.5828076153729 32.12255039886636
endloop
endfacet
facet normal 0.0 1.0 0.0
outer loop
vertex 2.074116744289402 202.29999999999998 36.89999999999999
vertex 4.074116744289398 202.29999999999998 24.09999999999999
vertex 2.074116744289402 202.29999999999998 24.09999999999999
endloop
endfacet
facet normal 0.0 1.0 0.0
outer loop
vertex 4.074116744289398 202.29999999999998 24.09999999999999
vertex 2.074116744289402 202.29999999999998 36.89999999999999
vertex 4.074116744289398 202.29999999999998 36.89999999999999
endloop
endfacet
facet normal -0.11476931367816338 -0.9933921706143267 0.0
outer loop
vertex 79.97411674428938 177.3 58.99999999999998
vertex 2.074116744289402 186.29999999999998 0.0
vertex 79.97411674428938 177.3 0.0
endloop
endfacet
facet normal -0.11476931367816338 -0.9933921706143267 0.0
outer loop
vertex 2.074116744289402 186.29999999999998 0.0
vertex 79.97411674428938 177.3 58.99999999999998
vertex 21.913311350234885 184.00792360136703 26.49860995595306
endloop
endfacet
facet normal -0.11476931367816338 -0.9933921706143267 0.0
outer loop
vertex 21.913311350234885 184.00792360136703 26.49860995595306
vertex 79.97411674428938 177.3 58.99999999999998
vertex 21.913311350234885 184.00792360136703 32.498609955953064
endloop
endfacet
facet normal -0.11476931367816338 -0.9933921706143267 0.0
outer loop
vertex 21.913311350234885 184.00792360136703 32.498609955953064
vertex 79.97411674428938 177.3 58.99999999999998
vertex 15.952958326548934 184.696539483436 32.498609955953064
endloop
endfacet
facet normal -0.11476931367816338 -0.9933921706143267 0.0
outer loop
vertex 2.074116744289402 186.29999999999998 0.0
vertex 15.952958326548934 184.696539483436 26.49860995595306
vertex 2.074116744289402 186.29999999999998 58.99999999999998
endloop
endfacet
facet normal -0.11476931367816338 -0.9933921706143267 0.0
outer loop
vertex 15.952958326548934 184.696539483436 26.49860995595306
vertex 2.074116744289402 186.29999999999998 0.0
vertex 21.913311350234885 184.00792360136703 26.49860995595306
endloop
endfacet
facet normal -0.11476931367816338 -0.9933921706143267 0.0
outer loop
vertex 2.074116744289402 186.29999999999998 58.99999999999998
vertex 15.952958326548934 184.696539483436 26.49860995595306
vertex 15.952958326548934 184.696539483436 32.498609955953064
endloop
endfacet
facet normal -0.11476931367816338 -0.9933921706143267 0.0
outer loop
vertex 2.074116744289402 186.29999999999998 58.99999999999998
vertex 15.952958326548934 184.696539483436 32.498609955953064
vertex 79.97411674428938 177.3 58.99999999999998
endloop
endfacet
facet normal 0.0 0.0 1.0
outer loop
vertex 4.074116744289398 202.29999999999998 24.09999999999999
vertex 2.074116744289402 230.3 24.09999999999999
vertex 2.074116744289402 202.29999999999998 24.09999999999999
endloop
endfacet
facet normal 0.0 0.0 1.0
outer loop
vertex 2.074116744289402 230.3 24.09999999999999
vertex 4.074116744289398 202.29999999999998 24.09999999999999
vertex 4.074116744289398 230.3 24.09999999999999
endloop
endfacet
facet normal 0.0 -1.0 0.0
outer loop
vertex 4.074116744289398 230.3 36.89999999999999
vertex 2.074116744289402 230.3 24.09999999999999
vertex 4.074116744289398 230.3 24.09999999999999
endloop
endfacet
facet normal 0.0 -1.0 0.0
outer loop
vertex 2.074116744289402 230.3 24.09999999999999
vertex 4.074116744289398 230.3 36.89999999999999
vertex 2.074116744289402 230.3 36.89999999999999
endloop
endfacet
facet normal -0.9933921706143278 -0.11476931367815423 -1.665344225325237e-31
outer loop
vertex 76.06564260030575 254.84844329530358 49.22366858374955
vertex 76.29518122766206 252.8616589540749 33.98086858374955
vertex 76.29518122766206 252.8616589540749 49.22366858374955
endloop
endfacet
facet normal -0.9933921706143278 -0.11476931367815423 -1.665344225325237e-31
outer loop
vertex 76.29518122766206 252.8616589540749 33.98086858374955
vertex 76.06564260030575 254.84844329530358 49.22366858374955
vertex 76.06564260030575 254.84844329530358 33.98086858374955
endloop
endfacet
facet normal 0.0 1.0 0.0
outer loop
vertex 79.97411674428938 240.79999999999995 34.49999999999999
vertex 84.97411674428936 240.79999999999995 25.999999999999993
vertex 79.97411674428938 240.79999999999995 24.499999999999993
endloop
endfacet
facet normal 0.0 1.0 0.0
outer loop
vertex 84.97411674428936 240.79999999999995 25.999999999999993
vertex 79.97411674428938 240.79999999999995 34.49999999999999
vertex 84.97411674428936 240.79999999999995 34.49999999999999
endloop
endfacet
facet normal 1.0 0.0 0.0
outer loop
vertex 4.074116744289398 188.08223809791937 1.9999999999999998
vertex 4.074116744289398 202.29999999999998 24.09999999999999
vertex 4.074116744289398 188.08223809791937 58.99999999999998
endloop
endfacet
facet normal 1.0 0.0 0.0
outer loop
vertex 4.074116744289398 202.29999999999998 24.09999999999999
vertex 4.074116744289398 188.08223809791937 1.9999999999999998
vertex 4.074116744289398 244.51776190208062 1.9999999999999998
endloop
endfacet
facet normal 1.0 0.0 0.0
outer loop
vertex 4.074116744289398 202.29999999999998 24.09999999999999
vertex 4.074116744289398 244.51776190208062 1.9999999999999998
vertex 4.074116744289398 230.3 24.09999999999999
endloop
endfacet
facet normal 1.0 0.0 0.0
outer loop
vertex 4.074116744289398 230.3 24.09999999999999
vertex 4.074116744289398 244.51776190208062 1.9999999999999998
vertex 4.074116744289398 230.3 36.89999999999999
endloop
endfacet
facet normal 1.0 0.0 0.0
outer loop
vertex 4.074116744289398 188.08223809791937 58.99999999999998
vertex 4.074116744289398 202.29999999999998 36.89999999999999
vertex 4.074116744289398 244.51776190208062 58.99999999999998
endloop
endfacet
facet normal 1.0 0.0 0.0
outer loop
vertex 4.074116744289398 202.29999999999998 36.89999999999999
vertex 4.074116744289398 188.08223809791937 58.99999999999998
vertex 4.074116744289398 202.29999999999998 24.09999999999999
endloop
endfacet
facet normal 1.0 0.0 0.0
outer loop
vertex 4.074116744289398 244.51776190208062 58.99999999999998
vertex 4.074116744289398 202.29999999999998 36.89999999999999
vertex 4.074116744289398 230.3 36.89999999999999
endloop
endfacet
facet normal 1.0 0.0 0.0
outer loop
vertex 4.074116744289398 244.51776190208062 58.99999999999998
vertex 4.074116744289398 230.3 36.89999999999999
vertex 4.074116744289398 244.51776190208062 1.9999999999999998
endloop
endfacet
facet normal 0.0 0.0 1.0
outer loop
vertex 2.074116744289402 186.29999999999998 58.99999999999998
vertex 4.074116744289398 188.08223809791937 58.99999999999998
vertex 2.074116744289402 246.3 58.99999999999998
endloop
endfacet
facet normal 0.0 0.0 1.0
outer loop
vertex 4.074116744289398 188.08223809791937 58.99999999999998
vertex 2.074116744289402 186.29999999999998 58.99999999999998
vertex 79.97411674428938 177.3 58.99999999999998
endloop
endfacet
facet normal 0.0 0.0 1.0
outer loop
vertex 4.074116744289398 188.08223809791937 58.99999999999998
vertex 79.97411674428938 177.3 58.99999999999998
vertex 77.97411674428938 179.54436903501824 58.99999999999998
endloop
endfacet
facet normal 0.0 0.0 1.0
outer loop
vertex 77.97411674428938 179.54436903501824 58.99999999999998
vertex 79.97411674428938 177.3 58.99999999999998
vertex 77.97411674428938 253.0556309649818 58.99999999999998
endloop
endfacet
facet normal 0.0 0.0 1.0
outer loop
vertex 2.074116744289402 246.3 58.99999999999998
vertex 4.074116744289398 244.51776190208062 58.99999999999998
vertex 79.97411674428938 255.3 58.99999999999998
endloop
endfacet
facet normal 0.0 0.0 1.0
outer loop
vertex 4.074116744289398 244.51776190208062 58.99999999999998
vertex 2.074116744289402 246.3 58.99999999999998
vertex 4.074116744289398 188.08223809791937 58.99999999999998
endloop
endfacet
facet normal 0.0 0.0 1.0
outer loop
vertex 79.97411674428938 255.3 58.99999999999998
vertex 4.074116744289398 244.51776190208062 58.99999999999998
vertex 77.97411674428938 253.0556309649818 58.99999999999998
endloop
endfacet
facet normal 0.0 0.0 1.0
outer loop
vertex 79.97411674428938 255.3 58.99999999999998
vertex 77.97411674428938 253.0556309649818 58.99999999999998
vertex 79.97411674428938 177.3 58.99999999999998
endloop
endfacet
facet normal 0.9933921706143274 0.11476931367815724 1.004957882640154e-15
outer loop
vertex 15.872731858108791 247.89419173330393 26.122550398866355
vertex 16.1022704854651 245.90740739207527 32.12255039886636
vertex 16.102270485465123 245.90740739207519 26.122550398866355
endloop
endfacet
facet normal 0.9933921706143274 0.11476931367815724 1.004957882640154e-15
outer loop
vertex 16.1022704854651 245.90740739207527 32.12255039886636
vertex 15.872731858108791 247.89419173330393 26.122550398866355
vertex 15.872731858108791 247.89419173330393 32.12255039886636
endloop
endfacet
facet normal 0.0 0.0 1.0
outer loop
vertex 4.074116744289398 188.08223809791937 1.9999999999999998
vertex 19.074116744289395 195.75 1.999999999999998
vertex 4.074116744289398 244.51776190208062 1.9999999999999998
endloop
endfacet
facet normal 0.0 0.0 1.0
outer loop
vertex 19.074116744289395 195.75 1.999999999999998
vertex 4.074116744289398 188.08223809791937 1.9999999999999998
vertex 77.97411674428938 179.54436903501824 1.9999999999999998
endloop
endfacet
facet normal 0.0 0.0 1.0
outer loop
vertex 19.074116744289395 195.75 1.999999999999998
vertex 77.97411674428938 179.54436903501824 1.9999999999999998
vertex 57.97411674428937 195.75 1.999999999999998
endloop
endfacet
facet normal 0.0 0.0 1.0
outer loop
vertex 57.97411674428937 195.75 1.999999999999998
vertex 77.97411674428938 179.54436903501824 1.9999999999999998
vertex 57.97411674428937 236.8500000000002 1.999999999999998
endloop
endfacet
facet normal 0.0 0.0 1.0
outer loop
vertex 4.074116744289398 244.51776190208062 1.9999999999999998
vertex 19.074116744289395 236.8500000000002 1.999999999999998
vertex 77.97411674428938 253.0556309649818 1.9999999999999998
endloop
endfacet
facet normal 0.0 0.0 1.0
outer loop
vertex 19.074116744289395 236.8500000000002 1.999999999999998
vertex 4.074116744289398 244.51776190208062 1.9999999999999998
vertex 19.074116744289395 195.75 1.999999999999998
endloop
endfacet
facet normal 0.0 0.0 1.0
outer loop
vertex 77.97411674428938 253.0556309649818 1.9999999999999998
vertex 19.074116744289395 236.8500000000002 1.999999999999998
vertex 57.97411674428937 236.8500000000002 1.999999999999998
endloop
endfacet
facet normal 0.0 0.0 1.0
outer loop
vertex 77.97411674428938 253.0556309649818 1.9999999999999998
vertex 57.97411674428937 236.8500000000002 1.999999999999998
vertex 77.97411674428938 179.54436903501824 1.9999999999999998
endloop
endfacet
facet normal -0.11476931367816341 0.9933921706143267 0.0
outer loop
vertex 2.074116744289402 246.3 0.0
vertex 15.872731858108791 247.89419173330393 26.122550398866355
vertex 79.97411674428938 255.3 0.0
endloop
endfacet
facet normal -0.11476931367816341 0.9933921706143267 0.0
outer loop
vertex 15.872731858108791 247.89419173330393 26.122550398866355
vertex 2.074116744289402 246.3 0.0
vertex 2.074116744289402 246.3 58.99999999999998
endloop
endfacet
facet normal -0.11476931367816341 0.9933921706143267 0.0
outer loop
vertex 15.872731858108791 247.89419173330393 26.122550398866355
vertex 2.074116744289402 246.3 58.99999999999998
vertex 15.872731858108791 247.89419173330393 32.12255039886636
endloop
endfacet
facet normal -0.11476931367816341 0.9933921706143267 0.0
outer loop
vertex 15.872731858108791 247.89419173330393 32.12255039886636
vertex 2.074116744289402 246.3 58.99999999999998
vertex 21.833084881794743 248.5828076153729 32.12255039886636
endloop
endfacet
facet normal -0.11476931367816341 0.9933921706143267 0.0
outer loop
vertex 21.833084881794743 248.5828076153729 32.12255039886636
vertex 2.074116744289402 246.3 58.99999999999998
vertex 62.37621464319652 253.26686625276207 33.98086858374955
endloop
endfacet
facet normal -0.11476931367816341 0.9933921706143267 0.0
outer loop
vertex 62.37621464319652 253.26686625276207 33.98086858374955
vertex 2.074116744289402 246.3 58.99999999999998
vertex 62.37621464319652 253.26686625276207 49.22366858374955
endloop
endfacet
facet normal -0.11476931367816341 0.9933921706143267 0.0
outer loop
vertex 62.37621464319652 253.26686625276207 49.22366858374955
vertex 2.074116744289402 246.3 58.99999999999998
vertex 76.06564260030575 254.84844329530358 49.22366858374955
endloop
endfacet
facet normal -0.11476931367816341 0.9933921706143267 0.0
outer loop
vertex 79.97411674428938 255.3 0.0
vertex 76.06564260030575 254.84844329530358 33.98086858374955
vertex 79.97411674428938 255.3 58.99999999999998
endloop
endfacet
facet normal -0.11476931367816341 0.9933921706143267 0.0
outer loop
vertex 76.06564260030575 254.84844329530358 33.98086858374955
vertex 79.97411674428938 255.3 0.0
vertex 21.833084881794743 248.5828076153729 26.122550398866355
endloop
endfacet
facet normal -0.11476931367816341 0.9933921706143267 0.0
outer loop
vertex 21.833084881794743 248.5828076153729 26.122550398866355
vertex 79.97411674428938 255.3 0.0
vertex 15.872731858108791 247.89419173330393 26.122550398866355
endloop
endfacet
facet normal -0.11476931367816341 0.9933921706143267 0.0
outer loop
vertex 76.06564260030575 254.84844329530358 33.98086858374955
vertex 21.833084881794743 248.5828076153729 26.122550398866355
vertex 21.833084881794743 248.5828076153729 32.12255039886636
endloop
endfacet
facet normal -0.11476931367816341 0.9933921706143267 0.0
outer loop
vertex 76.06564260030575 254.84844329530358 33.98086858374955
vertex 21.833084881794743 248.5828076153729 32.12255039886636
vertex 62.37621464319652 253.26686625276207 33.98086858374955
endloop
endfacet
facet normal -0.11476931367816341 0.9933921706143267 0.0
outer loop
vertex 79.97411674428938 255.3 58.99999999999998
vertex 76.06564260030575 254.84844329530358 33.98086858374955
vertex 76.06564260030575 254.84844329530358 49.22366858374955
endloop
endfacet
facet normal -0.11476931367816341 0.9933921706143267 0.0
outer loop
vertex 79.97411674428938 255.3 58.99999999999998
vertex 76.06564260030575 254.84844329530358 49.22366858374955
vertex 2.074116744289402 246.3 58.99999999999998
endloop
endfacet
facet normal 0.11476931367816363 -0.9933921706143267 -7.780524823060099e-32
outer loop
vertex 77.97411674428938 253.0556309649818 1.9999999999999998
vertex 76.29518122766206 252.8616589540749 33.98086858374955
vertex 4.074116744289398 244.51776190208062 1.9999999999999998
endloop
endfacet
facet normal 0.11476931367816363 -0.9933921706143267 -7.780524823060099e-32
outer loop
vertex 76.29518122766206 252.8616589540749 33.98086858374955
vertex 77.97411674428938 253.0556309649818 1.9999999999999998
vertex 77.97411674428938 253.0556309649818 58.99999999999998
endloop
endfacet
facet normal 0.11476931367816363 -0.9933921706143267 -7.780524823060099e-32
outer loop
vertex 4.074116744289398 244.51776190208062 1.9999999999999998
vertex 76.29518122766206 252.8616589540749 33.98086858374955
vertex 22.062623509151074 246.59602327414416 26.122550398866366
endloop
endfacet
facet normal 0.11476931367816363 -0.9933921706143267 -7.780524823060099e-32
outer loop
vertex 4.074116744289398 244.51776190208062 1.9999999999999998
vertex 22.062623509151074 246.59602327414416 26.122550398866366
vertex 16.102270485465123 245.90740739207519 26.122550398866355
endloop
endfacet
facet normal 0.11476931367816363 -0.9933921706143267 -7.780524823060099e-32
outer loop
vertex 22.062623509151074 246.59602327414416 26.122550398866366
vertex 76.29518122766206 252.8616589540749 33.98086858374955
vertex 22.062623509151074 246.5960232741442 32.12255039886636
endloop
endfacet
facet normal 0.11476931367816363 -0.9933921706143267 -7.780524823060099e-32
outer loop
vertex 22.062623509151074 246.5960232741442 32.12255039886636
vertex 76.29518122766206 252.8616589540749 33.98086858374955
vertex 16.1022704854651 245.90740739207527 32.12255039886636
endloop
endfacet
facet normal 0.11476931367816363 -0.9933921706143267 -7.780524823060099e-32
outer loop
vertex 76.29518122766206 252.8616589540749 33.98086858374955
vertex 77.97411674428938 253.0556309649818 58.99999999999998
vertex 76.29518122766206 252.8616589540749 49.22366858374955
endloop
endfacet
facet normal 0.11476931367816363 -0.9933921706143267 -7.780524823060099e-32
outer loop
vertex 76.29518122766206 252.8616589540749 49.22366858374955
vertex 77.97411674428938 253.0556309649818 58.99999999999998
vertex 62.605753270552846 251.28008191153341 49.22366858374955
endloop
endfacet
facet normal 0.11476931367816363 -0.9933921706143267 -7.780524823060099e-32
outer loop
vertex 16.102270485465123 245.90740739207519 26.122550398866355
vertex 4.074116744289398 244.51776190208062 58.99999999999998
vertex 4.074116744289398 244.51776190208062 1.9999999999999998
endloop
endfacet
facet normal 0.11476931367816363 -0.9933921706143267 -7.780524823060099e-32
outer loop
vertex 4.074116744289398 244.51776190208062 58.99999999999998
vertex 16.102270485465123 245.90740739207519 26.122550398866355
vertex 16.1022704854651 245.90740739207527 32.12255039886636
endloop
endfacet
facet normal 0.11476931367816363 -0.9933921706143267 -7.780524823060099e-32
outer loop
vertex 4.074116744289398 244.51776190208062 58.99999999999998
vertex 16.1022704854651 245.90740739207527 32.12255039886636
vertex 62.605753270552846 251.28008191153341 33.98086858374955
endloop
endfacet
facet normal 0.11476931367816363 -0.9933921706143267 -7.780524823060099e-32
outer loop
vertex 62.605753270552846 251.28008191153341 33.98086858374955
vertex 16.1022704854651 245.90740739207527 32.12255039886636
vertex 76.29518122766206 252.8616589540749 33.98086858374955
endloop
endfacet
facet normal 0.11476931367816363 -0.9933921706143267 -7.780524823060099e-32
outer loop
vertex 4.074116744289398 244.51776190208062 58.99999999999998
vertex 62.605753270552846 251.28008191153341 33.98086858374955
vertex 62.605753270552846 251.28008191153341 49.22366858374955
endloop
endfacet
facet normal 0.11476931367816363 -0.9933921706143267 -7.780524823060099e-32
outer loop
vertex 4.074116744289398 244.51776190208062 58.99999999999998
vertex 62.605753270552846 251.28008191153341 49.22366858374955
vertex 77.97411674428938 253.0556309649818 58.99999999999998
endloop
endfacet
facet normal -0.0 -0.0 -1.0
outer loop
vertex 4.074116744289398 230.3 36.89999999999999
vertex 2.074116744289402 202.29999999999998 36.89999999999999
vertex 2.074116744289402 230.3 36.89999999999999
endloop
endfacet
facet normal -0.0 -0.0 -1.0
outer loop
vertex 2.074116744289402 202.29999999999998 36.89999999999999
vertex 4.074116744289398 230.3 36.89999999999999
vertex 4.074116744289398 202.29999999999998 36.89999999999999
endloop
endfacet
facet normal 0.9933921706143265 0.11476931367816537 7.924443888080001e-19
outer loop
vertex 62.37621464319652 253.26686625276207 33.98086858374955
vertex 62.605753270552846 251.28008191153341 49.22366858374955
vertex 62.605753270552846 251.28008191153341 33.98086858374955
endloop
endfacet
facet normal 0.9933921706143265 0.11476931367816537 7.924443888080001e-19
outer loop
vertex 62.605753270552846 251.28008191153341 49.22366858374955
vertex 62.37621464319652 253.26686625276207 33.98086858374955
vertex 62.37621464319652 253.26686625276207 49.22366858374955
endloop
endfacet
facet normal 1.0 0.0 0.0
outer loop
vertex 22.074116744289388 232.95000000000005 1.4099832412739487e-15
vertex 22.074116744289388 199.65 3.9999999999999925
vertex 22.074116744289388 199.65 1.4099832412739487e-15
endloop
endfacet
facet normal 1.0 0.0 0.0
outer loop
vertex 22.074116744289388 199.65 3.9999999999999925
vertex 22.074116744289388 232.95000000000005 1.4099832412739487e-15
vertex 22.074116744289388 232.95000000000005 3.9999999999999925
endloop
endfacet
facet normal 0.0 1.0 0.0
outer loop
vertex 19.074116744289395 236.8500000000002 3.9999999999999925
vertex 57.97411674428937 236.8500000000002 1.999999999999998
vertex 19.074116744289395 236.8500000000002 1.999999999999998
endloop
endfacet
facet normal 0.0 1.0 0.0
outer loop
vertex 57.97411674428937 236.8500000000002 1.999999999999998
vertex 19.074116744289395 236.8500000000002 3.9999999999999925
vertex 57.97411674428937 236.8500000000002 3.9999999999999925
endloop
endfacet
facet normal 1.0 0.0 0.0
outer loop
vertex 57.97411674428937 236.8500000000002 1.999999999999998
vertex 57.97411674428937 195.75 3.9999999999999925
vertex 57.97411674428937 195.75 1.999999999999998
endloop
endfacet
facet normal 1.0 0.0 0.0
outer loop
vertex 57.97411674428937 195.75 3.9999999999999925
vertex 57.97411674428937 236.8500000000002 1.999999999999998
vertex 57.97411674428937 236.8500000000002 3.9999999999999925
endloop
endfacet
facet normal 0.0 0.0 1.0
outer loop
vertex 19.074116744289395 195.75 3.9999999999999925
vertex 22.074116744289388 199.65 3.9999999999999925
vertex 19.074116744289395 236.8500000000002 3.9999999999999925
endloop
endfacet
facet normal 0.0 0.0 1.0
outer loop
vertex 22.074116744289388 199.65 3.9999999999999925
vertex 19.074116744289395 195.75 3.9999999999999925
vertex 57.97411674428937 195.75 3.9999999999999925
endloop
endfacet
facet normal 0.0 0.0 1.0
outer loop
vertex 22.074116744289388 199.65 3.9999999999999925
vertex 57.97411674428937 195.75 3.9999999999999925
vertex 54.974116744289375 199.65 3.9999999999999925
endloop
endfacet
facet normal 0.0 0.0 1.0
outer loop
vertex 54.974116744289375 199.65 3.9999999999999925
vertex 57.97411674428937 195.75 3.9999999999999925
vertex 54.974116744289375 232.95000000000005 3.9999999999999925
endloop
endfacet
facet normal 0.0 0.0 1.0
outer loop
vertex 19.074116744289395 236.8500000000002 3.9999999999999925
vertex 22.074116744289388 232.95000000000005 3.9999999999999925
vertex 57.97411674428937 236.8500000000002 3.9999999999999925
endloop
endfacet
facet normal 0.0 0.0 1.0
outer loop
vertex 22.074116744289388 232.95000000000005 3.9999999999999925
vertex 19.074116744289395 236.8500000000002 3.9999999999999925
vertex 22.074116744289388 199.65 3.9999999999999925
endloop
endfacet
facet normal 0.0 0.0 1.0
outer loop
vertex 57.97411674428937 236.8500000000002 3.9999999999999925
vertex 22.074116744289388 232.95000000000005 3.9999999999999925
vertex 54.974116744289375 232.95000000000005 3.9999999999999925
endloop
endfacet
facet normal 0.0 0.0 1.0
outer loop
vertex 57.97411674428937 236.8500000000002 3.9999999999999925
vertex 54.974116744289375 232.95000000000005 3.9999999999999925
vertex 57.97411674428937 195.75 3.9999999999999925
endloop
endfacet
facet normal 1.0 0.0 0.0
outer loop
vertex 79.97411674428938 177.3 0.0
vertex 79.97411674428938 191.7965452616461 24.499999999999993
vertex 79.97411674428938 177.3 58.99999999999998
endloop
endfacet
facet normal 1.0 0.0 0.0
outer loop
vertex 79.97411674428938 191.7965452616461 24.499999999999993
vertex 79.97411674428938 177.3 0.0
vertex 79.97411674428938 255.3 0.0
endloop
endfacet
facet normal 1.0 0.0 0.0
outer loop
vertex 79.97411674428938 191.7965452616461 24.499999999999993
vertex 79.97411674428938 255.3 0.0
vertex 79.97411674428938 201.7965452616461 24.499999999999993
endloop
endfacet
facet normal 1.0 0.0 0.0
outer loop
vertex 79.97411674428938 201.7965452616461 24.499999999999993
vertex 79.97411674428938 255.3 0.0
vertex 79.97411674428938 201.7965452616461 34.49999999999999
endloop
endfacet
facet normal 1.0 0.0 0.0
outer loop
vertex 79.97411674428938 201.7965452616461 34.49999999999999
vertex 79.97411674428938 255.3 0.0
vertex 79.97411674428938 230.79999999999998 24.499999999999993
endloop
endfacet
facet normal 1.0 0.0 0.0
outer loop
vertex 79.97411674428938 230.79999999999998 24.499999999999993
vertex 79.97411674428938 255.3 0.0
vertex 79.97411674428938 240.79999999999995 24.499999999999993
endloop
endfacet
facet normal 1.0 0.0 0.0
outer loop
vertex 79.97411674428938 240.79999999999995 24.499999999999993
vertex 79.97411674428938 255.3 0.0
vertex 79.97411674428938 240.79999999999995 34.49999999999999
endloop
endfacet
facet normal 1.0 0.0 0.0
outer loop
vertex 79.97411674428938 177.3 58.99999999999998
vertex 79.97411674428938 191.7965452616461 34.49999999999999
vertex 79.97411674428938 255.3 58.99999999999998
endloop
endfacet
facet normal 1.0 0.0 0.0
outer loop
vertex 79.97411674428938 191.7965452616461 34.49999999999999
vertex 79.97411674428938 177.3 58.99999999999998
vertex 79.97411674428938 191.7965452616461 24.499999999999993
endloop
endfacet
facet normal 1.0 0.0 0.0
outer loop
vertex 79.97411674428938 255.3 58.99999999999998
vertex 79.97411674428938 191.7965452616461 34.49999999999999
vertex 79.97411674428938 201.7965452616461 34.49999999999999
endloop
endfacet
facet normal 1.0 0.0 0.0
outer loop
vertex 79.97411674428938 255.3 58.99999999999998
vertex 79.97411674428938 201.7965452616461 34.49999999999999
vertex 79.97411674428938 230.79999999999998 34.49999999999999
endloop
endfacet
facet normal 1.0 0.0 0.0
outer loop
vertex 79.97411674428938 230.79999999999998 34.49999999999999
vertex 79.97411674428938 201.7965452616461 34.49999999999999
vertex 79.97411674428938 230.79999999999998 24.499999999999993
endloop
endfacet
facet normal 1.0 0.0 0.0
outer loop
vertex 79.97411674428938 255.3 58.99999999999998
vertex 79.97411674428938 230.79999999999998 34.49999999999999
vertex 79.97411674428938 240.79999999999995 34.49999999999999
endloop
endfacet
facet normal 1.0 0.0 0.0
outer loop
vertex 79.97411674428938 255.3 58.99999999999998
vertex 79.97411674428938 240.79999999999995 34.49999999999999
vertex 79.97411674428938 255.3 0.0
endloop
endfacet
facet normal -1.0 0.0 0.0
outer loop
vertex 77.97411674428938 253.0556309649818 58.99999999999998
vertex 77.97411674428938 179.54436903501824 1.9999999999999998
vertex 77.97411674428938 179.54436903501824 58.99999999999998
endloop
endfacet
facet normal -1.0 0.0 0.0
outer loop
vertex 77.97411674428938 179.54436903501824 1.9999999999999998
vertex 77.97411674428938 253.0556309649818 58.99999999999998
vertex 77.97411674428938 253.0556309649818 1.9999999999999998
endloop
endfacet
facet normal 0.0 1.0 0.0
outer loop
vertex 79.97411674428938 201.7965452616461 34.49999999999999
vertex 84.97411674428936 201.7965452616461 25.999999999999993
vertex 79.97411674428938 201.7965452616461 24.499999999999993
endloop
endfacet
facet normal 0.0 1.0 0.0
outer loop
vertex 84.97411674428936 201.7965452616461 25.999999999999993
vertex 79.97411674428938 201.7965452616461 34.49999999999999
vertex 84.97411674428936 201.7965452616461 34.49999999999999
endloop
endfacet
facet normal 0.28734788556634594 0.0 -0.9578262852211513
outer loop
vertex 84.97411674428936 201.7965452616461 25.999999999999993
vertex 79.97411674428938 191.7965452616461 24.499999999999993
vertex 79.97411674428938 201.7965452616461 24.499999999999993
endloop
endfacet
facet normal 0.28734788556634594 0.0 -0.9578262852211513
outer loop
vertex 79.97411674428938 191.7965452616461 24.499999999999993
vertex 84.97411674428936 201.7965452616461 25.999999999999993
vertex 84.97411674428936 191.7965452616461 25.999999999999993
endloop
endfacet
facet normal 0.0 -1.0 0.0
outer loop
vertex 84.97411674428936 191.7965452616461 25.999999999999993
vertex 79.97411674428938 191.7965452616461 34.49999999999999
vertex 79.97411674428938 191.7965452616461 24.499999999999993
endloop
endfacet
facet normal 0.0 -1.0 0.0
outer loop
vertex 79.97411674428938 191.7965452616461 34.49999999999999
vertex 84.97411674428936 191.7965452616461 25.999999999999993
vertex 84.97411674428936 191.7965452616461 34.49999999999999
endloop
endfacet
facet normal 1.0 0.0 0.0
outer loop
vertex 84.97411674428936 201.7965452616461 25.999999999999993
vertex 84.97411674428936 191.7965452616461 34.49999999999999
vertex 84.97411674428936 191.7965452616461 25.999999999999993
endloop
endfacet
facet normal 1.0 0.0 0.0
outer loop
vertex 84.97411674428936 191.7965452616461 34.49999999999999
vertex 84.97411674428936 201.7965452616461 25.999999999999993
vertex 84.97411674428936 201.7965452616461 34.49999999999999
endloop
endfacet
facet normal 0.0 0.0 1.0
outer loop
vertex 84.97411674428936 191.7965452616461 34.49999999999999
vertex 79.97411674428938 201.7965452616461 34.49999999999999
vertex 79.97411674428938 191.7965452616461 34.49999999999999
endloop
endfacet
facet normal 0.0 0.0 1.0
outer loop
vertex 79.97411674428938 201.7965452616461 34.49999999999999
vertex 84.97411674428936 191.7965452616461 34.49999999999999
vertex 84.97411674428936 201.7965452616461 34.49999999999999
endloop
endfacet
facet normal 0.11476931367816334 0.9933921706143267 3.8902624115300496e-32
outer loop
vertex 4.074116744289398 188.08223809791937 1.9999999999999998
vertex 15.952958326548934 186.7098430499048 26.512808493216053
vertex 77.97411674428938 179.54436903501824 1.9999999999999998
endloop
endfacet
facet normal 0.11476931367816334 0.9933921706143267 3.8902624115300496e-32
outer loop
vertex 15.952958326548934 186.7098430499048 26.512808493216053
vertex 4.074116744289398 188.08223809791937 1.9999999999999998
vertex 4.074116744289398 188.08223809791937 58.99999999999998
endloop
endfacet
facet normal 0.11476931367816334 0.9933921706143267 3.8902624115300496e-32
outer loop
vertex 15.952958326548934 186.7098430499048 26.512808493216053
vertex 4.074116744289398 188.08223809791937 58.99999999999998
vertex 15.952958326548934 186.7098430499048 32.49999999999999
endloop
endfacet
facet normal 0.11476931367816334 0.9933921706143267 3.8902624115300496e-32
outer loop
vertex 15.952958326548934 186.7098430499048 32.49999999999999
vertex 4.074116744289398 188.08223809791937 58.99999999999998
vertex 21.913311350234896 186.02122716783583 32.49999999999999
endloop
endfacet
facet normal 0.11476931367816334 0.9933921706143267 3.8902624115300496e-32
outer loop
vertex 77.97411674428938 179.54436903501824 1.9999999999999998
vertex 21.913311350234874 186.02122716783583 26.512808493216053
vertex 77.97411674428938 179.54436903501824 58.99999999999998
endloop
endfacet
facet normal 0.11476931367816334 0.9933921706143267 3.8902624115300496e-32
outer loop
vertex 21.913311350234874 186.02122716783583 26.512808493216053
vertex 77.97411674428938 179.54436903501824 1.9999999999999998
vertex 15.952958326548934 186.7098430499048 26.512808493216053
endloop
endfacet
facet normal 0.11476931367816334 0.9933921706143267 3.8902624115300496e-32
outer loop
vertex 77.97411674428938 179.54436903501824 58.99999999999998
vertex 21.913311350234874 186.02122716783583 26.512808493216053
vertex 21.913311350234896 186.02122716783583 32.49999999999999
endloop
endfacet
facet normal 0.11476931367816334 0.9933921706143267 3.8902624115300496e-32
outer loop
vertex 77.97411674428938 179.54436903501824 58.99999999999998
vertex 21.913311350234896 186.02122716783583 32.49999999999999
vertex 4.074116744289398 188.08223809791937 58.99999999999998
endloop
endfacet
facet normal 1.0 0.0 0.0
outer loop
vertex 15.952958326548934 186.7098430499048 26.512808493216053
vertex 15.952958326548934 184.696539483436 32.498609955953064
vertex 15.952958326548934 184.696539483436 26.49860995595306
endloop
endfacet
facet normal 1.0 0.0 0.0
outer loop
vertex 15.952958326548934 184.696539483436 32.498609955953064
vertex 15.952958326548934 186.7098430499048 26.512808493216053
vertex 15.952958326548934 186.7098430499048 32.49999999999999
endloop
endfacet
facet normal 7.976718135830917e-05 0.0006904292697569277 -0.999999758472281
outer loop
vertex 21.913311350234896 186.02122716783583 32.49999999999999
vertex 15.952958326548934 184.696539483436 32.498609955953064
vertex 15.952958326548934 186.7098430499048 32.49999999999999
endloop
endfacet
facet normal 7.976718135830917e-05 0.0006904292697569277 -0.999999758472281
outer loop
vertex 15.952958326548934 184.696539483436 32.498609955953064
vertex 21.913311350234896 186.02122716783583 32.49999999999999
vertex 21.913311350234885 184.00792360136703 32.498609955953064
endloop
endfacet
facet normal -1.0 -7.278116948012388e-18 1.8799733622049493e-15
outer loop
vertex 21.913311350234896 186.02122716783583 32.49999999999999
vertex 21.913311350234885 184.00792360136703 26.49860995595306
vertex 21.913311350234885 184.00792360136703 32.498609955953064
endloop
endfacet
facet normal -1.0 -7.278116948012388e-18 1.8799733622049493e-15
outer loop
vertex 21.913311350234885 184.00792360136703 26.49860995595306
vertex 21.913311350234896 186.02122716783583 32.49999999999999
vertex 21.913311350234874 186.02122716783583 26.512808493216053
endloop
endfacet
endsolid robot
