solid robot
facet normal 0.0 1.0 0.0
outer loop
vertex 130.77682918919598 57.526037128688195 5.0
vertex 166.77682918919598 57.526037128688195 0.0
vertex 130.77682918919598 57.526037128688195 0.0
endloop
endfacet
facet normal 0.0 1.0 0.0
outer loop
vertex 166.77682918919598 57.526037128688195 0.0
vertex 130.77682918919598 57.526037128688195 5.0
vertex 166.77682918919598 57.526037128688195 5.0
endloop
endfacet
facet normal 0.0 0.0 1.0
outer loop
vertex 130.77682918919598 21.5260371286882 5.0
vertex 134.57682918919596 25.326037128688196 5.0
vertex 130.77682918919598 57.526037128688195 5.0
endloop
endfacet
facet normal 0.0 0.0 1.0
outer loop
vertex 134.57682918919596 25.326037128688196 5.0
vertex 130.77682918919598 21.5260371286882 5.0
vertex 166.77682918919598 21.5260371286882 5.0
endloop
endfacet
facet normal 0.0 0.0 1.0
outer loop
vertex 134.57682918919596 25.326037128688196 5.0
vertex 166.77682918919598 21.5260371286882 5.0
vertex 162.976829189196 25.326037128688196 5.0
endloop
endfacet
facet normal 0.0 0.0 1.0
outer loop
vertex 162.976829189196 25.326037128688196 5.0
vertex 166.77682918919598 21.5260371286882 5.0
vertex 162.976829189196 53.72603712868819 5.0
endloop
endfacet
facet normal 0.0 0.0 1.0
outer loop
vertex 130.77682918919598 57.526037128688195 5.0
vertex 134.57682918919596 53.72603712868819 5.0
vertex 166.77682918919598 57.526037128688195 5.0
endloop
endfacet
facet normal 0.0 0.0 1.0
outer loop
vertex 134.57682918919596 53.72603712868819 5.0
vertex 130.77682918919598 57.526037128688195 5.0
vertex 134.57682918919596 25.326037128688196 5.0
endloop
endfacet
facet normal 0.0 0.0 1.0
outer loop
vertex 166.77682918919598 57.526037128688195 5.0
vertex 134.57682918919596 53.72603712868819 5.0
vertex 162.976829189196 53.72603712868819 5.0
endloop
endfacet
facet normal 0.0 0.0 1.0
outer loop
vertex 166.77682918919598 57.526037128688195 5.0
vertex 162.976829189196 53.72603712868819 5.0
vertex 166.77682918919598 21.5260371286882 5.0
endloop
endfacet
facet normal -0.0 -1.0 -0.0
outer loop
vertex 166.77682918919598 21.5260371286882 5.0
vertex 130.77682918919598 21.5260371286882 0.0
vertex 166.77682918919598 21.5260371286882 0.0
endloop
endfacet
facet normal -0.0 -1.0 -0.0
outer loop
vertex 130.77682918919598 21.5260371286882 0.0
vertex 166.77682918919598 21.5260371286882 5.0
vertex 130.77682918919598 21.5260371286882 5.0
endloop
endfacet
facet normal -1.0 0.0 0.0
outer loop
vertex 162.976829189196 53.72603712868819 5.0
vertex 162.976829189196 25.326037128688196 8.459899447643692e-15
vertex 162.976829189196 25.326037128688196 5.0
endloop
endfacet
facet normal -1.0 0.0 0.0
outer loop
vertex 162.976829189196 25.326037128688196 8.459899447643692e-15
vertex 162.976829189196 53.72603712868819 5.0
vertex 162.976829189196 53.72603712868819 8.459899447643692e-15
endloop
endfacet
facet normal -1.0 0.0 0.0
outer loop
vertex 130.77682918919598 57.526037128688195 5.0
vertex 130.77682918919598 21.5260371286882 0.0
vertex 130.77682918919598 21.5260371286882 5.0
endloop
endfacet
facet normal -1.0 0.0 0.0
outer loop
vertex 130.77682918919598 21.5260371286882 0.0
vertex 130.77682918919598 57.526037128688195 5.0
vertex 130.77682918919598 57.526037128688195 0.0
endloop
endfacet
facet normal -0.0 -1.0 -0.0
outer loop
vertex 162.976829189196 53.72603712868819 5.0
vertex 134.57682918919596 53.72603712868819 8.459899447643692e-15
vertex 162.976829189196 53.72603712868819 8.459899447643692e-15
endloop
endfacet
facet normal -0.0 -1.0 -0.0
outer loop
vertex 134.57682918919596 53.72603712868819 8.459899447643692e-15
vertex 162.976829189196 53.72603712868819 5.0
vertex 134.57682918919596 53.72603712868819 5.0
endloop
endfacet
facet normal 1.0 0.0 0.0
outer loop
vertex 166.77682918919598 57.526037128688195 0.0
vertex 166.77682918919598 21.5260371286882 5.0
vertex 166.77682918919598 21.5260371286882 0.0
endloop
endfacet
facet normal 1.0 0.0 0.0
outer loop
vertex 166.77682918919598 21.5260371286882 5.0
vertex 166.77682918919598 57.526037128688195 0.0
vertex 166.77682918919598 57.526037128688195 5.0
endloop
endfacet
facet normal 0.0 1.0 0.0
outer loop
vertex 134.57682918919596 25.326037128688196 5.0
vertex 162.976829189196 25.326037128688196 8.459899447643692e-15
vertex 134.57682918919596 25.326037128688196 8.459899447643692e-15
endloop
endfacet
facet normal 0.0 1.0 0.0
outer loop
vertex 162.976829189196 25.326037128688196 8.459899447643692e-15
vertex 134.57682918919596 25.326037128688196 5.0
vertex 162.976829189196 25.326037128688196 5.0
endloop
endfacet
facet normal 1.0 0.0 0.0
outer loop
vertex 134.57682918919596 53.72603712868819 8.459899447643692e-15
vertex 134.57682918919596 25.326037128688196 5.0
vertex 134.57682918919596 25.326037128688196 8.459899447643692e-15
endloop
endfacet
facet normal 1.0 0.0 0.0
outer loop
vertex 134.57682918919596 25.326037128688196 5.0
vertex 134.57682918919596 53.72603712868819 8.459899447643692e-15
vertex 134.57682918919596 53.72603712868819 5.0
endloop
endfacet
facet normal 0.0 0.0 -1.0
outer loop
vertex 130.77682918919598 57.526037128688195 0.0
vertex 134.57682918919596 53.72603712868819 8.459899447643692e-15
vertex 130.77682918919598 21.5260371286882 0.0
endloop
endfacet
facet normal 0.0 0.0 -1.0
outer loop
vertex 134.57682918919596 53.72603712868819 8.459899447643692e-15
vertex 130.77682918919598 57.526037128688195 0.0
vertex 166.77682918919598 57.526037128688195 0.0
endloop
endfacet
facet normal 0.0 0.0 -1.0
outer loop
vertex 134.57682918919596 53.72603712868819 8.459899447643692e-15
vertex 166.77682918919598 57.526037128688195 0.0
vertex 162.976829189196 53.72603712868819 8.459899447643692e-15
endloop
endfacet
facet normal 0.0 0.0 -1.0
outer loop
vertex 162.976829189196 53.72603712868819 8.459899447643692e-15
vertex 166.77682918919598 57.526037128688195 0.0
vertex 162.976829189196 25.326037128688196 8.459899447643692e-15
endloop
endfacet
facet normal 0.0 0.0 -1.0
outer loop
vertex 130.77682918919598 21.5260371286882 0.0
vertex 134.57682918919596 25.326037128688196 8.459899447643692e-15
vertex 166.77682918919598 21.5260371286882 0.0
endloop
endfacet
facet normal 0.0 0.0 -1.0
outer loop
vertex 134.57682918919596 25.326037128688196 8.459899447643692e-15
vertex 130.77682918919598 21.5260371286882 0.0
vertex 134.57682918919596 53.72603712868819 8.459899447643692e-15
endloop
endfacet
facet normal 0.0 0.0 -1.0
outer loop
vertex 166.77682918919598 21.5260371286882 0.0
vertex 134.57682918919596 25.326037128688196 8.459899447643692e-15
vertex 162.976829189196 25.326037128688196 8.459899447643692e-15
endloop
endfacet
facet normal 0.0 0.0 -1.0
outer loop
vertex 166.77682918919598 21.5260371286882 0.0
vertex 162.976829189196 25.326037128688196 8.459899447643692e-15
vertex 166.77682918919598 57.526037128688195 0.0
endloop
endfacet
facet normal 0.9962278067967067 -0.08677647702588297 0.0
outer loop
vertex 123.63973067000525 29.555567836646972 0.0
vertex 123.32950292654417 28.153695425655716 5.6
vertex 123.32950292654417 28.153695425655716 0.0
endloop
endfacet
facet normal 0.9398227625310539 -0.34166236993338656 0.0
outer loop
vertex 123.32950292654417 28.153695425655716 5.6
vertex 123.63973067000525 29.555567836646972 0.0
vertex 123.63973067000525 29.555567836646972 5.6
endloop
endfacet
facet normal 0.6430792024400708 -0.7657996731450353 0.0
outer loop
vertex 121.69741334604375 25.82094025799164 5.6
vertex 120.48677571675998 25.049030910934924 0.0
vertex 121.69741334604375 25.82094025799164 0.0
endloop
endfacet
facet normal 0.4229632698430215 -0.9061468271553454 0.0
outer loop
vertex 120.48677571675998 25.049030910934924 0.0
vertex 121.69741334604375 25.82094025799164 5.6
vertex 120.48677571675998 25.049030910934924 5.6
endloop
endfacet
facet normal -0.49999999999999406 0.8660254037844423 0.0
outer loop
vertex 116.78080973661011 29.901007643555797 5.59999999999999
vertex 117.07075923027129 30.12349371519284 2.1999999999999895
vertex 116.78080973661011 29.901007643555797 2.1999999999999895
endloop
endfacet
facet normal -0.7071067811865434 0.7071067811865518 0.0
outer loop
vertex 117.07075923027129 30.12349371519284 2.1999999999999895
vertex 116.78080973661011 29.901007643555797 5.59999999999999
vertex 117.07075923027129 30.12349371519284 5.59999999999999
endloop
endfacet
facet normal 0.0 0.0 1.0
outer loop
vertex 114.72851357980544 30.751096545710478 2.1999999999999895
vertex 114.72851357980544 31.47578987199753 2.1999999999999895
vertex 114.68080973661012 31.113443208854008 2.1999999999999895
endloop
endfacet
facet normal 0.0 0.0 1.0
outer loop
vertex 114.72851357980544 31.47578987199753 2.1999999999999895
vertex 114.72851357980544 30.751096545710478 2.1999999999999895
vertex 114.8683741713119 30.41344320885401 2.1999999999999895
endloop
endfacet
facet normal 0.0 0.0 1.0
outer loop
vertex 114.72851357980544 31.47578987199753 2.1999999999999895
vertex 114.8683741713119 30.41344320885401 2.1999999999999895
vertex 114.8683741713119 31.813443208854007 2.1999999999999895
endloop
endfacet
facet normal 0.0 0.0 1.0
outer loop
vertex 114.8683741713119 31.813443208854007 2.1999999999999895
vertex 114.8683741713119 30.41344320885401 2.1999999999999895
vertex 115.09086024294893 30.12349371519284 2.1999999999999895
endloop
endfacet
facet normal 0.0 0.0 1.0
outer loop
vertex 114.8683741713119 31.813443208854007 2.1999999999999895
vertex 115.09086024294893 30.12349371519284 2.1999999999999895
vertex 115.09086024294893 32.10339270251517 2.1999999999999895
endloop
endfacet
facet normal 0.0 0.0 1.0
outer loop
vertex 115.09086024294893 32.10339270251517 2.1999999999999895
vertex 115.09086024294893 30.12349371519284 2.1999999999999895
vertex 115.38080973661012 29.901007643555797 2.1999999999999895
endloop
endfacet
facet normal 0.0 0.0 1.0
outer loop
vertex 115.09086024294893 32.10339270251517 2.1999999999999895
vertex 115.38080973661012 29.901007643555797 2.1999999999999895
vertex 115.38080973661012 32.325878774152216 2.1999999999999895
endloop
endfacet
facet normal 0.0 0.0 1.0
outer loop
vertex 115.38080973661012 32.325878774152216 2.1999999999999895
vertex 115.38080973661012 29.901007643555797 2.1999999999999895
vertex 115.7184630734666 29.761147052049314 2.1999999999999895
endloop
endfacet
facet normal 0.0 0.0 1.0
outer loop
vertex 115.38080973661012 32.325878774152216 2.1999999999999895
vertex 115.7184630734666 29.761147052049314 2.1999999999999895
vertex 115.7184630734666 32.4657393656587 2.1999999999999895
endloop
endfacet
facet normal 0.0 0.0 1.0
outer loop
vertex 115.7184630734666 32.4657393656587 2.1999999999999895
vertex 115.7184630734666 29.761147052049314 2.1999999999999895
vertex 116.0808097366101 29.71344320885401 2.1999999999999895
endloop
endfacet
facet normal 0.0 0.0 1.0
outer loop
vertex 115.7184630734666 32.4657393656587 2.1999999999999895
vertex 116.0808097366101 29.71344320885401 2.1999999999999895
vertex 116.0808097366101 32.51344320885401 2.1999999999999895
endloop
endfacet
facet normal 0.0 0.0 1.0
outer loop
vertex 116.0808097366101 32.51344320885401 2.1999999999999895
vertex 116.0808097366101 29.71344320885401 2.1999999999999895
vertex 116.44315639975363 29.761147052049314 2.1999999999999895
endloop
endfacet
facet normal 0.0 0.0 1.0
outer loop
vertex 116.0808097366101 32.51344320885401 2.1999999999999895
vertex 116.44315639975363 29.761147052049314 2.1999999999999895
vertex 116.44315639975363 32.4657393656587 2.1999999999999895
endloop
endfacet
facet normal 0.0 0.0 1.0
outer loop
vertex 116.44315639975363 32.4657393656587 2.1999999999999895
vertex 116.44315639975363 29.761147052049314 2.1999999999999895
vertex 116.78080973661011 29.901007643555797 2.1999999999999895
endloop
endfacet
facet normal 0.0 0.0 1.0
outer loop
vertex 116.44315639975363 32.4657393656587 2.1999999999999895
vertex 116.78080973661011 29.901007643555797 2.1999999999999895
vertex 116.78080973661011 32.325878774152216 2.1999999999999895
endloop
endfacet
facet normal 0.0 0.0 1.0
outer loop
vertex 116.78080973661011 32.325878774152216 2.1999999999999895
vertex 116.78080973661011 29.901007643555797 2.1999999999999895
vertex 117.07075923027129 30.12349371519284 2.1999999999999895
endloop
endfacet
facet normal 0.0 0.0 1.0
outer loop
vertex 116.78080973661011 32.325878774152216 2.1999999999999895
vertex 117.07075923027129 30.12349371519284 2.1999999999999895
vertex 117.07075923027129 32.10339270251517 2.1999999999999895
endloop
endfacet
facet normal 0.0 0.0 1.0
outer loop
vertex 117.07075923027129 32.10339270251517 2.1999999999999895
vertex 117.07075923027129 30.12349371519284 2.1999999999999895
vertex 117.29324530190833 30.41344320885401 2.1999999999999895
endloop
endfacet
facet normal 0.0 0.0 1.0
outer loop
vertex 117.07075923027129 32.10339270251517 2.1999999999999895
vertex 117.29324530190833 30.41344320885401 2.1999999999999895
vertex 117.29324530190833 31.813443208854007 2.1999999999999895
endloop
endfacet
facet normal 0.0 0.0 1.0
outer loop
vertex 117.29324530190833 31.813443208854007 2.1999999999999895
vertex 117.29324530190833 30.41344320885401 2.1999999999999895
vertex 117.43310589341479 30.751096545710478 2.1999999999999895
endloop
endfacet
facet normal 0.0 0.0 1.0
outer loop
vertex 117.29324530190833 31.813443208854007 2.1999999999999895
vertex 117.43310589341479 30.751096545710478 2.1999999999999895
vertex 117.43310589341479 31.475789871997538 2.1999999999999895
endloop
endfacet
facet normal 0.0 0.0 1.0
outer loop
vertex 117.43310589341479 31.475789871997538 2.1999999999999895
vertex 117.43310589341479 30.751096545710478 2.1999999999999895
vertex 117.48080973661011 31.113443208854008 2.1999999999999895
endloop
endfacet
facet normal -0.49999999999999406 -0.8660254037844423 0.0
outer loop
vertex 116.78080973661011 32.325878774152216 5.59999999999999
vertex 116.44315639975363 32.4657393656587 2.1999999999999895
vertex 116.78080973661011 32.325878774152216 2.1999999999999895
endloop
endfacet
facet normal -0.25881904510252174 -0.9659258262890682 0.0
outer loop
vertex 116.44315639975363 32.4657393656587 2.1999999999999895
vertex 116.78080973661011 32.325878774152216 5.59999999999999
vertex 116.44315639975363 32.4657393656587 5.59999999999999
endloop
endfacet
facet normal -0.7071067811865434 -0.7071067811865518 0.0
outer loop
vertex 117.07075923027129 32.10339270251517 5.59999999999999
vertex 116.78080973661011 32.325878774152216 2.1999999999999895
vertex 117.07075923027129 32.10339270251517 2.1999999999999895
endloop
endfacet
facet normal -0.49999999999999406 -0.8660254037844423 0.0
outer loop
vertex 116.78080973661011 32.325878774152216 2.1999999999999895
vertex 117.07075923027129 32.10339270251517 5.59999999999999
vertex 116.78080973661011 32.325878774152216 5.59999999999999
endloop
endfacet
facet normal 0.8660254037844426 -0.49999999999999317 0.0
outer loop
vertex 114.8683741713119 31.813443208854007 2.1999999999999895
vertex 114.72851357980544 31.47578987199753 5.59999999999999
vertex 114.72851357980544 31.47578987199753 2.1999999999999895
endloop
endfacet
facet normal 0.9659258262890699 -0.25881904510251474 0.0
outer loop
vertex 114.72851357980544 31.47578987199753 5.59999999999999
vertex 114.8683741713119 31.813443208854007 2.1999999999999895
vertex 114.8683741713119 31.813443208854007 5.59999999999999
endloop
endfacet
facet normal 0.9659258262890699 -0.25881904510251474 0.0
outer loop
vertex 114.72851357980544 31.47578987199753 2.1999999999999895
vertex 114.68080973661012 31.113443208854008 5.59999999999999
vertex 114.68080973661012 31.113443208854008 2.1999999999999895
endloop
endfacet
facet normal 1.0 -1.0069554182081006e-15 0.0
outer loop
vertex 114.68080973661012 31.113443208854008 5.59999999999999
vertex 114.72851357980544 31.47578987199753 2.1999999999999895
vertex 114.72851357980544 31.47578987199753 5.59999999999999
endloop
endfacet
facet normal 1.0 -1.0069554182081006e-15 0.0
outer loop
vertex 114.68080973661012 31.113443208854008 2.1999999999999895
vertex 114.72851357980544 30.751096545710478 5.59999999999999
vertex 114.72851357980544 30.751096545710478 2.1999999999999895
endloop
endfacet
facet normal 0.9659258262890693 0.2588190451025167 0.0
outer loop
vertex 114.72851357980544 30.751096545710478 5.59999999999999
vertex 114.68080973661012 31.113443208854008 2.1999999999999895
vertex 114.68080973661012 31.113443208854008 5.59999999999999
endloop
endfacet
facet normal 0.0 -1.0 0.0
outer loop
vertex 116.0808097366101 32.51344320885401 5.59999999999999
vertex 115.7184630734666 32.4657393656587 2.1999999999999895
vertex 116.0808097366101 32.51344320885401 2.1999999999999895
endloop
endfacet
facet normal 0.25881904510252174 -0.9659258262890682 0.0
outer loop
vertex 115.7184630734666 32.4657393656587 2.1999999999999895
vertex 116.0808097366101 32.51344320885401 5.59999999999999
vertex 115.7184630734666 32.4657393656587 5.59999999999999
endloop
endfacet
facet normal 0.9659258262890693 0.2588190451025167 0.0
outer loop
vertex 114.72851357980544 30.751096545710478 2.1999999999999895
vertex 114.8683741713119 30.41344320885401 5.59999999999999
vertex 114.8683741713119 30.41344320885401 2.1999999999999895
endloop
endfacet
facet normal 0.8660254037844413 0.4999999999999958 0.0
outer loop
vertex 114.8683741713119 30.41344320885401 5.59999999999999
vertex 114.72851357980544 30.751096545710478 2.1999999999999895
vertex 114.72851357980544 30.751096545710478 5.59999999999999
endloop
endfacet
facet normal 0.8660254037844413 0.4999999999999958 0.0
outer loop
vertex 114.8683741713119 30.41344320885401 2.1999999999999895
vertex 115.09086024294893 30.12349371519284 5.59999999999999
vertex 115.09086024294893 30.12349371519284 2.1999999999999895
endloop
endfacet
facet normal 0.7071067811865434 0.7071067811865518 0.0
outer loop
vertex 115.09086024294893 30.12349371519284 5.59999999999999
vertex 114.8683741713119 30.41344320885401 2.1999999999999895
vertex 114.8683741713119 30.41344320885401 5.59999999999999
endloop
endfacet
facet normal -0.9659258262890693 0.2588190451025167 0.0
outer loop
vertex 117.43310589341479 30.751096545710478 5.59999999999999
vertex 117.29324530190833 30.41344320885401 2.1999999999999895
vertex 117.29324530190833 30.41344320885401 5.59999999999999
endloop
endfacet
facet normal -0.8660254037844413 0.4999999999999958 0.0
outer loop
vertex 117.29324530190833 30.41344320885401 2.1999999999999895
vertex 117.43310589341479 30.751096545710478 5.59999999999999
vertex 117.43310589341479 30.751096545710478 2.1999999999999895
endloop
endfacet
facet normal -1.0 0.0 0.0
outer loop
vertex 117.48080973661011 31.113443208854008 5.59999999999999
vertex 117.43310589341479 30.751096545710478 2.1999999999999895
vertex 117.43310589341479 30.751096545710478 5.59999999999999
endloop
endfacet
facet normal -0.9659258262890693 0.2588190451025167 0.0
outer loop
vertex 117.43310589341479 30.751096545710478 2.1999999999999895
vertex 117.48080973661011 31.113443208854008 5.59999999999999
vertex 117.48080973661011 31.113443208854008 2.1999999999999895
endloop
endfacet
facet normal -0.9659258262890693 -0.2588190451025167 0.0
outer loop
vertex 117.43310589341479 31.475789871997538 5.59999999999999
vertex 117.48080973661011 31.113443208854008 2.1999999999999895
vertex 117.48080973661011 31.113443208854008 5.59999999999999
endloop
endfacet
facet normal -1.0 0.0 0.0
outer loop
vertex 117.48080973661011 31.113443208854008 2.1999999999999895
vertex 117.43310589341479 31.475789871997538 5.59999999999999
vertex 117.43310589341479 31.475789871997538 2.1999999999999895
endloop
endfacet
facet normal 0.49999999999999406 -0.8660254037844423 0.0
outer loop
vertex 115.38080973661012 32.325878774152216 5.59999999999999
vertex 115.09086024294893 32.10339270251517 2.1999999999999895
vertex 115.38080973661012 32.325878774152216 2.1999999999999895
endloop
endfacet
facet normal 0.7071067811865434 -0.7071067811865518 0.0
outer loop
vertex 115.09086024294893 32.10339270251517 2.1999999999999895
vertex 115.38080973661012 32.325878774152216 5.59999999999999
vertex 115.09086024294893 32.10339270251517 5.59999999999999
endloop
endfacet
facet normal -0.17402308938602312 0.9847415723734549 0.0
outer loop
vertex 117.20335074100024 35.44891710834333 5.6
vertex 118.6377483562657 35.51209139767121 0.0
vertex 117.20335074100024 35.44891710834333 0.0
endloop
endfacet
facet normal 0.08677647702588179 0.9962278067967069 0.0
outer loop
vertex 118.6377483562657 35.51209139767121 0.0
vertex 117.20335074100024 35.44891710834333 5.6
vertex 118.6377483562657 35.51209139767121 5.6
endloop
endfacet
facet normal -0.9962278067967069 0.08677647702588358 0.0
outer loop
vertex 112.68122479524146 30.510109083931678 5.6
vertex 112.74439908456934 29.075711468666206 0.0
vertex 112.74439908456934 29.075711468666206 5.6
endloop
endfacet
facet normal -0.9847415723734553 -0.17402308938602076 0.0
outer loop
vertex 112.74439908456934 29.075711468666206 0.0
vertex 112.68122479524146 30.510109083931678 5.6
vertex 112.68122479524146 30.510109083931678 0.0
endloop
endfacet
facet normal -0.8193703501294622 0.573264536953685 0.0
outer loop
vertex 113.6539408069113 33.18579341353459 5.6
vertex 112.99145253870255 31.911981494922927 0.0
vertex 112.99145253870255 31.911981494922927 5.6
endloop
endfacet
facet normal -0.9398227625310556 0.34166236993338206 0.0
outer loop
vertex 112.99145253870255 31.911981494922927 0.0
vertex 113.6539408069113 33.18579341353459 5.6
vertex 113.6539408069113 33.18579341353459 0.0
endloop
endfacet
facet normal 0.3416623699333846 0.9398227625310546 0.0
outer loop
vertex 120.03962076725698 35.201863654210136 5.6
vertex 121.31343268586859 34.53937538600137 0.0
vertex 120.03962076725698 35.201863654210136 0.0
endloop
endfacet
facet normal 0.5732645369536848 0.8193703501294622 0.0
outer loop
vertex 121.31343268586859 34.53937538600137 0.0
vertex 120.03962076725698 35.201863654210136 5.6
vertex 121.31343268586859 34.53937538600137 5.6
endloop
endfacet
facet normal 0.9398227625310539 -0.34166236993338656 0.0
outer loop
vertex 123.32950292654417 28.153695425655716 0.0
vertex 122.6670146583354 26.879883507044056 5.6
vertex 122.6670146583354 26.879883507044056 0.0
endloop
endfacet
facet normal 0.8193703501294637 -0.5732645369536828 0.0
outer loop
vertex 122.6670146583354 26.879883507044056 5.6
vertex 123.32950292654417 28.153695425655716 0.0
vertex 123.32950292654417 28.153695425655716 5.6
endloop
endfacet
facet normal 0.08677647702588179 0.9962278067967069 0.0
outer loop
vertex 118.6377483562657 35.51209139767121 5.6
vertex 120.03962076725698 35.201863654210136 0.0
vertex 118.6377483562657 35.51209139767121 0.0
endloop
endfacet
facet normal 0.3416623699333846 0.9398227625310546 0.0
outer loop
vertex 120.03962076725698 35.201863654210136 0.0
vertex 118.6377483562657 35.51209139767121 5.6
vertex 120.03962076725698 35.201863654210136 5.6
endloop
endfacet
facet normal 0.5732645369536848 0.8193703501294622 0.0
outer loop
vertex 121.31343268586859 34.53937538600137 5.6
vertex 122.37237593492102 33.56977407370973 0.0
vertex 121.31343268586859 34.53937538600137 0.0
endloop
endfacet
facet normal 0.7657996731450316 0.6430792024400749 0.0
outer loop
vertex 122.37237593492102 33.56977407370973 0.0
vertex 121.31343268586859 34.53937538600137 5.6
vertex 122.37237593492102 33.56977407370973 5.6
endloop
endfacet
facet normal 0.7657996731450316 0.6430792024400749 0.0
outer loop
vertex 122.37237593492102 33.56977407370973 0.0
vertex 123.14428528197774 32.35913644442594 5.6
vertex 123.14428528197774 32.35913644442594 0.0
endloop
endfacet
facet normal 0.9061468271553463 0.42296326984301946 0.0
outer loop
vertex 123.14428528197774 32.35913644442594 5.6
vertex 122.37237593492102 33.56977407370973 0.0
vertex 122.37237593492102 33.56977407370973 5.6
endloop
endfacet
facet normal -0.42296326984302246 0.906146827155345 0.0
outer loop
vertex 115.83417974848673 35.01664600964372 5.6
vertex 117.20335074100024 35.44891710834333 0.0
vertex 115.83417974848673 35.01664600964372 0.0
endloop
endfacet
facet normal -0.17402308938602312 0.9847415723734549 0.0
outer loop
vertex 117.20335074100024 35.44891710834333 0.0
vertex 115.83417974848673 35.01664600964372 5.6
vertex 117.20335074100024 35.44891710834333 5.6
endloop
endfacet
facet normal -0.9398227625310556 0.34166236993338206 0.0
outer loop
vertex 112.99145253870255 31.911981494922927 5.6
vertex 112.68122479524146 30.510109083931678 0.0
vertex 112.68122479524146 30.510109083931678 5.6
endloop
endfacet
facet normal -0.9962278067967069 0.08677647702588358 0.0
outer loop
vertex 112.68122479524146 30.510109083931678 0.0
vertex 112.99145253870255 31.911981494922927 5.6
vertex 112.99145253870255 31.911981494922927 0.0
endloop
endfacet
facet normal -0.6430792024400723 0.7657996731450339 0.0
outer loop
vertex 114.62354211920297 34.24473666258701 5.6
vertex 113.6539408069113 33.18579341353459 0.0
vertex 113.6539408069113 33.18579341353459 5.6
endloop
endfacet
facet normal -0.8193703501294622 0.573264536953685 0.0
outer loop
vertex 113.6539408069113 33.18579341353459 0.0
vertex 114.62354211920297 34.24473666258701 5.6
vertex 114.62354211920297 34.24473666258701 0.0
endloop
endfacet
facet normal -0.5732645369536856 -0.8193703501294617 0.0
outer loop
vertex 115.00752277937808 25.52630153457728 5.6
vertex 113.94857953032567 26.495902846868923 0.0
vertex 115.00752277937808 25.52630153457728 0.0
endloop
endfacet
facet normal -0.7657996731450327 -0.6430792024400735 0.0
outer loop
vertex 113.94857953032567 26.495902846868923 0.0
vertex 115.00752277937808 25.52630153457728 5.6
vertex 113.94857953032567 26.495902846868923 5.6
endloop
endfacet
facet normal -0.341662369933383 -0.9398227625310553 0.0
outer loop
vertex 116.28133469798973 24.863813266368513 5.6
vertex 115.00752277937808 25.52630153457728 0.0
vertex 116.28133469798973 24.863813266368513 0.0
endloop
endfacet
facet normal -0.5732645369536856 -0.8193703501294617 0.0
outer loop
vertex 115.00752277937808 25.52630153457728 0.0
vertex 116.28133469798973 24.863813266368513 5.6
vertex 115.00752277937808 25.52630153457728 5.6
endloop
endfacet
facet normal 0.0 0.0 1.0
outer loop
vertex 112.74439908456934 29.075711468666206 5.6
vertex 112.99145253870255 31.911981494922927 5.6
vertex 112.68122479524146 30.510109083931678 5.6
endloop
endfacet
facet normal 0.0 0.0 1.0
outer loop
vertex 112.99145253870255 31.911981494922927 5.6
vertex 112.74439908456934 29.075711468666206 5.6
vertex 113.17667018326895 27.7065404761527 5.6
endloop
endfacet
facet normal 0.0 0.0 1.0
outer loop
vertex 112.99145253870255 31.911981494922927 5.6
vertex 113.17667018326895 27.7065404761527 5.6
vertex 113.6539408069113 33.18579341353459 5.6
endloop
endfacet
facet normal 0.0 0.0 1.0
outer loop
vertex 113.6539408069113 33.18579341353459 5.6
vertex 113.17667018326895 27.7065404761527 5.6
vertex 113.94857953032567 26.495902846868923 5.6
endloop
endfacet
facet normal 0.0 0.0 1.0
outer loop
vertex 113.6539408069113 33.18579341353459 5.6
vertex 113.94857953032567 26.495902846868923 5.6
vertex 114.62354211920297 34.24473666258701 5.6
endloop
endfacet
facet normal 0.0 0.0 1.0
outer loop
vertex 114.62354211920297 34.24473666258701 5.6
vertex 113.94857953032567 26.495902846868923 5.6
vertex 114.68080973661012 31.113443208854008 5.59999999999999
endloop
endfacet
facet normal 0.0 0.0 1.0
outer loop
vertex 114.68080973661012 31.113443208854008 5.59999999999999
vertex 113.94857953032567 26.495902846868923 5.6
vertex 115.00752277937808 25.52630153457728 5.6
endloop
endfacet
facet normal 0.0 0.0 1.0
outer loop
vertex 114.68080973661012 31.113443208854008 5.59999999999999
vertex 115.00752277937808 25.52630153457728 5.6
vertex 114.72851357980544 30.751096545710478 5.59999999999999
endloop
endfacet
facet normal 0.0 0.0 1.0
outer loop
vertex 114.72851357980544 30.751096545710478 5.59999999999999
vertex 115.00752277937808 25.52630153457728 5.6
vertex 114.8683741713119 30.41344320885401 5.59999999999999
endloop
endfacet
facet normal 0.0 0.0 1.0
outer loop
vertex 114.8683741713119 30.41344320885401 5.59999999999999
vertex 115.00752277937808 25.52630153457728 5.6
vertex 115.09086024294893 30.12349371519284 5.59999999999999
endloop
endfacet
facet normal 0.0 0.0 1.0
outer loop
vertex 115.09086024294893 30.12349371519284 5.59999999999999
vertex 115.00752277937808 25.52630153457728 5.6
vertex 116.28133469798973 24.863813266368513 5.6
endloop
endfacet
facet normal 0.0 0.0 1.0
outer loop
vertex 115.09086024294893 30.12349371519284 5.59999999999999
vertex 116.28133469798973 24.863813266368513 5.6
vertex 115.38080973661012 29.901007643555797 5.59999999999999
endloop
endfacet
facet normal 0.0 0.0 1.0
outer loop
vertex 115.38080973661012 29.901007643555797 5.59999999999999
vertex 116.28133469798973 24.863813266368513 5.6
vertex 115.7184630734666 29.761147052049314 5.59999999999999
endloop
endfacet
facet normal 0.0 0.0 1.0
outer loop
vertex 115.7184630734666 29.761147052049314 5.59999999999999
vertex 116.28133469798973 24.863813266368513 5.6
vertex 116.0808097366101 29.71344320885401 5.59999999999999
endloop
endfacet
facet normal 0.0 0.0 1.0
outer loop
vertex 116.0808097366101 29.71344320885401 5.59999999999999
vertex 116.28133469798973 24.863813266368513 5.6
vertex 116.44315639975363 29.761147052049314 5.59999999999999
endloop
endfacet
facet normal 0.0 0.0 1.0
outer loop
vertex 116.44315639975363 29.761147052049314 5.59999999999999
vertex 116.28133469798973 24.863813266368513 5.6
vertex 117.683207108981 24.553585522907433 5.6
endloop
endfacet
facet normal 0.0 0.0 1.0
outer loop
vertex 116.44315639975363 29.761147052049314 5.59999999999999
vertex 117.683207108981 24.553585522907433 5.6
vertex 116.78080973661011 29.901007643555797 5.59999999999999
endloop
endfacet
facet normal 0.0 0.0 1.0
outer loop
vertex 116.78080973661011 29.901007643555797 5.59999999999999
vertex 117.683207108981 24.553585522907433 5.6
vertex 117.07075923027129 30.12349371519284 5.59999999999999
endloop
endfacet
facet normal 0.0 0.0 1.0
outer loop
vertex 117.07075923027129 30.12349371519284 5.59999999999999
vertex 117.683207108981 24.553585522907433 5.6
vertex 117.29324530190833 30.41344320885401 5.59999999999999
endloop
endfacet
facet normal 0.0 0.0 1.0
outer loop
vertex 117.29324530190833 30.41344320885401 5.59999999999999
vertex 117.683207108981 24.553585522907433 5.6
vertex 117.43310589341479 30.751096545710478 5.59999999999999
endloop
endfacet
facet normal 0.0 0.0 1.0
outer loop
vertex 117.43310589341479 30.751096545710478 5.59999999999999
vertex 117.683207108981 24.553585522907433 5.6
vertex 117.48080973661011 31.113443208854008 5.59999999999999
endloop
endfacet
facet normal 0.0 0.0 1.0
outer loop
vertex 114.62354211920297 34.24473666258701 5.6
vertex 114.72851357980544 31.47578987199753 5.59999999999999
vertex 115.83417974848673 35.01664600964372 5.6
endloop
endfacet
facet normal 0.0 0.0 1.0
outer loop
vertex 114.72851357980544 31.47578987199753 5.59999999999999
vertex 114.62354211920297 34.24473666258701 5.6
vertex 114.68080973661012 31.113443208854008 5.59999999999999
endloop
endfacet
facet normal 0.0 0.0 1.0
outer loop
vertex 115.83417974848673 35.01664600964372 5.6
vertex 114.72851357980544 31.47578987199753 5.59999999999999
vertex 114.8683741713119 31.813443208854007 5.59999999999999
endloop
endfacet
facet normal 0.0 0.0 1.0
outer loop
vertex 115.83417974848673 35.01664600964372 5.6
vertex 114.8683741713119 31.813443208854007 5.59999999999999
vertex 115.09086024294893 32.10339270251517 5.59999999999999
endloop
endfacet
facet normal 0.0 0.0 1.0
outer loop
vertex 115.83417974848673 35.01664600964372 5.6
vertex 115.09086024294893 32.10339270251517 5.59999999999999
vertex 115.38080973661012 32.325878774152216 5.59999999999999
endloop
endfacet
facet normal 0.0 0.0 1.0
outer loop
vertex 115.83417974848673 35.01664600964372 5.6
vertex 115.38080973661012 32.325878774152216 5.59999999999999
vertex 115.7184630734666 32.4657393656587 5.59999999999999
endloop
endfacet
facet normal 0.0 0.0 1.0
outer loop
vertex 115.83417974848673 35.01664600964372 5.6
vertex 115.7184630734666 32.4657393656587 5.59999999999999
vertex 116.0808097366101 32.51344320885401 5.59999999999999
endloop
endfacet
facet normal 0.0 0.0 1.0
outer loop
vertex 115.83417974848673 35.01664600964372 5.6
vertex 116.0808097366101 32.51344320885401 5.59999999999999
vertex 117.20335074100024 35.44891710834333 5.6
endloop
endfacet
facet normal 0.0 0.0 1.0
outer loop
vertex 117.20335074100024 35.44891710834333 5.6
vertex 116.0808097366101 32.51344320885401 5.59999999999999
vertex 116.44315639975363 32.4657393656587 5.59999999999999
endloop
endfacet
facet normal 0.0 0.0 1.0
outer loop
vertex 117.20335074100024 35.44891710834333 5.6
vertex 116.44315639975363 32.4657393656587 5.59999999999999
vertex 116.78080973661011 32.325878774152216 5.59999999999999
endloop
endfacet
facet normal 0.0 0.0 1.0
outer loop
vertex 117.20335074100024 35.44891710834333 5.6
vertex 116.78080973661011 32.325878774152216 5.59999999999999
vertex 117.07075923027129 32.10339270251517 5.59999999999999
endloop
endfacet
facet normal 0.0 0.0 1.0
outer loop
vertex 117.20335074100024 35.44891710834333 5.6
vertex 117.07075923027129 32.10339270251517 5.59999999999999
vertex 117.29324530190833 31.813443208854007 5.59999999999999
endloop
endfacet
facet normal 0.0 0.0 1.0
outer loop
vertex 117.20335074100024 35.44891710834333 5.6
vertex 117.29324530190833 31.813443208854007 5.59999999999999
vertex 118.6377483562657 35.51209139767121 5.6
endloop
endfacet
facet normal 0.0 0.0 1.0
outer loop
vertex 118.6377483562657 35.51209139767121 5.6
vertex 117.29324530190833 31.813443208854007 5.59999999999999
vertex 117.43310589341479 31.475789871997538 5.59999999999999
endloop
endfacet
facet normal 0.0 0.0 1.0
outer loop
vertex 118.6377483562657 35.51209139767121 5.6
vertex 117.43310589341479 31.475789871997538 5.59999999999999
vertex 117.48080973661011 31.113443208854008 5.59999999999999
endloop
endfacet
facet normal 0.0 0.0 1.0
outer loop
vertex 118.6377483562657 35.51209139767121 5.6
vertex 117.48080973661011 31.113443208854008 5.59999999999999
vertex 117.683207108981 24.553585522907433 5.6
endloop
endfacet
facet normal 0.0 0.0 1.0
outer loop
vertex 118.6377483562657 35.51209139767121 5.6
vertex 117.683207108981 24.553585522907433 5.6
vertex 119.11760472424646 24.61675981223532 5.6
endloop
endfacet
facet normal 0.0 0.0 1.0
outer loop
vertex 118.6377483562657 35.51209139767121 5.6
vertex 119.11760472424646 24.61675981223532 5.6
vertex 120.03962076725698 35.201863654210136 5.6
endloop
endfacet
facet normal 0.0 0.0 1.0
outer loop
vertex 120.03962076725698 35.201863654210136 5.6
vertex 119.11760472424646 24.61675981223532 5.6
vertex 120.48677571675998 25.049030910934924 5.6
endloop
endfacet
facet normal 0.0 0.0 1.0
outer loop
vertex 120.03962076725698 35.201863654210136 5.6
vertex 120.48677571675998 25.049030910934924 5.6
vertex 121.31343268586859 34.53937538600137 5.6
endloop
endfacet
facet normal 0.0 0.0 1.0
outer loop
vertex 121.31343268586859 34.53937538600137 5.6
vertex 120.48677571675998 25.049030910934924 5.6
vertex 121.69741334604375 25.82094025799164 5.6
endloop
endfacet
facet normal 0.0 0.0 1.0
outer loop
vertex 121.31343268586859 34.53937538600137 5.6
vertex 121.69741334604375 25.82094025799164 5.6
vertex 122.37237593492102 33.56977407370973 5.6
endloop
endfacet
facet normal 0.0 0.0 1.0
outer loop
vertex 122.37237593492102 33.56977407370973 5.6
vertex 121.69741334604375 25.82094025799164 5.6
vertex 122.6670146583354 26.879883507044056 5.6
endloop
endfacet
facet normal 0.0 0.0 1.0
outer loop
vertex 122.37237593492102 33.56977407370973 5.6
vertex 122.6670146583354 26.879883507044056 5.6
vertex 123.14428528197774 32.35913644442594 5.6
endloop
endfacet
facet normal 0.0 0.0 1.0
outer loop
vertex 123.14428528197774 32.35913644442594 5.6
vertex 122.6670146583354 26.879883507044056 5.6
vertex 123.32950292654417 28.153695425655716 5.6
endloop
endfacet
facet normal 0.0 0.0 1.0
outer loop
vertex 123.14428528197774 32.35913644442594 5.6
vertex 123.32950292654417 28.153695425655716 5.6
vertex 123.57655638067735 30.989965451912443 5.6
endloop
endfacet
facet normal 0.0 0.0 1.0
outer loop
vertex 123.57655638067735 30.989965451912443 5.6
vertex 123.32950292654417 28.153695425655716 5.6
vertex 123.63973067000525 29.555567836646972 5.6
endloop
endfacet
facet normal -0.08677647702588179 -0.9962278067967069 0.0
outer loop
vertex 117.683207108981 24.553585522907433 5.6
vertex 116.28133469798973 24.863813266368513 0.0
vertex 117.683207108981 24.553585522907433 0.0
endloop
endfacet
facet normal -0.341662369933383 -0.9398227625310553 0.0
outer loop
vertex 116.28133469798973 24.863813266368513 0.0
vertex 117.683207108981 24.553585522907433 5.6
vertex 116.28133469798973 24.863813266368513 5.6
endloop
endfacet
facet normal 0.8193703501294637 -0.5732645369536828 0.0
outer loop
vertex 122.6670146583354 26.879883507044056 0.0
vertex 121.69741334604375 25.82094025799164 5.6
vertex 121.69741334604375 25.82094025799164 0.0
endloop
endfacet
facet normal 0.6430792024400708 -0.7657996731450353 0.0
outer loop
vertex 121.69741334604375 25.82094025799164 5.6
vertex 122.6670146583354 26.879883507044056 0.0
vertex 122.6670146583354 26.879883507044056 5.6
endloop
endfacet
facet normal 0.4229632698430215 -0.9061468271553454 0.0
outer loop
vertex 120.48677571675998 25.049030910934924 5.6
vertex 119.11760472424646 24.61675981223532 0.0
vertex 120.48677571675998 25.049030910934924 0.0
endloop
endfacet
facet normal 0.17402308938602426 -0.9847415723734547 0.0
outer loop
vertex 119.11760472424646 24.61675981223532 0.0
vertex 120.48677571675998 25.049030910934924 5.6
vertex 119.11760472424646 24.61675981223532 5.6
endloop
endfacet
facet normal 0.0 0.0 -1.0
outer loop
vertex 112.99145253870255 31.911981494922927 0.0
vertex 112.74439908456934 29.075711468666206 0.0
vertex 112.68122479524146 30.510109083931678 0.0
endloop
endfacet
facet normal 0.0 0.0 -1.0
outer loop
vertex 112.74439908456934 29.075711468666206 0.0
vertex 112.99145253870255 31.911981494922927 0.0
vertex 113.17667018326895 27.7065404761527 0.0
endloop
endfacet
facet normal 0.0 0.0 -1.0
outer loop
vertex 113.17667018326895 27.7065404761527 0.0
vertex 112.99145253870255 31.911981494922927 0.0
vertex 113.6539408069113 33.18579341353459 0.0
endloop
endfacet
facet normal 0.0 0.0 -1.0
outer loop
vertex 113.17667018326895 27.7065404761527 0.0
vertex 113.6539408069113 33.18579341353459 0.0
vertex 113.94857953032567 26.495902846868923 0.0
endloop
endfacet
facet normal 0.0 0.0 -1.0
outer loop
vertex 113.94857953032567 26.495902846868923 0.0
vertex 113.6539408069113 33.18579341353459 0.0
vertex 114.62354211920297 34.24473666258701 0.0
endloop
endfacet
facet normal 0.0 0.0 -1.0
outer loop
vertex 113.94857953032567 26.495902846868923 0.0
vertex 114.62354211920297 34.24473666258701 0.0
vertex 115.00752277937808 25.52630153457728 0.0
endloop
endfacet
facet normal 0.0 0.0 -1.0
outer loop
vertex 115.00752277937808 25.52630153457728 0.0
vertex 114.62354211920297 34.24473666258701 0.0
vertex 115.83417974848673 35.01664600964372 0.0
endloop
endfacet
facet normal 0.0 0.0 -1.0
outer loop
vertex 115.00752277937808 25.52630153457728 0.0
vertex 115.83417974848673 35.01664600964372 0.0
vertex 116.28133469798973 24.863813266368513 0.0
endloop
endfacet
facet normal 0.0 0.0 -1.0
outer loop
vertex 116.28133469798973 24.863813266368513 0.0
vertex 115.83417974848673 35.01664600964372 0.0
vertex 117.20335074100024 35.44891710834333 0.0
endloop
endfacet
facet normal 0.0 0.0 -1.0
outer loop
vertex 116.28133469798973 24.863813266368513 0.0
vertex 117.20335074100024 35.44891710834333 0.0
vertex 117.683207108981 24.553585522907433 0.0
endloop
endfacet
facet normal 0.0 0.0 -1.0
outer loop
vertex 117.683207108981 24.553585522907433 0.0
vertex 117.20335074100024 35.44891710834333 0.0
vertex 118.6377483562657 35.51209139767121 0.0
endloop
endfacet
facet normal 0.0 0.0 -1.0
outer loop
vertex 117.683207108981 24.553585522907433 0.0
vertex 118.6377483562657 35.51209139767121 0.0
vertex 119.11760472424646 24.61675981223532 0.0
endloop
endfacet
facet normal 0.0 0.0 -1.0
outer loop
vertex 119.11760472424646 24.61675981223532 0.0
vertex 118.6377483562657 35.51209139767121 0.0
vertex 120.03962076725698 35.201863654210136 0.0
endloop
endfacet
facet normal 0.0 0.0 -1.0
outer loop
vertex 119.11760472424646 24.61675981223532 0.0
vertex 120.03962076725698 35.201863654210136 0.0
vertex 120.48677571675998 25.049030910934924 0.0
endloop
endfacet
facet normal 0.0 0.0 -1.0
outer loop
vertex 120.48677571675998 25.049030910934924 0.0
vertex 120.03962076725698 35.201863654210136 0.0
vertex 121.31343268586859 34.53937538600137 0.0
endloop
endfacet
facet normal 0.0 0.0 -1.0
outer loop
vertex 120.48677571675998 25.049030910934924 0.0
vertex 121.31343268586859 34.53937538600137 0.0
vertex 121.69741334604375 25.82094025799164 0.0
endloop
endfacet
facet normal 0.0 0.0 -1.0
outer loop
vertex 121.69741334604375 25.82094025799164 0.0
vertex 121.31343268586859 34.53937538600137 0.0
vertex 122.37237593492102 33.56977407370973 0.0
endloop
endfacet
facet normal 0.0 0.0 -1.0
outer loop
vertex 121.69741334604375 25.82094025799164 0.0
vertex 122.37237593492102 33.56977407370973 0.0
vertex 122.6670146583354 26.879883507044056 0.0
endloop
endfacet
facet normal 0.0 0.0 -1.0
outer loop
vertex 122.6670146583354 26.879883507044056 0.0
vertex 122.37237593492102 33.56977407370973 0.0
vertex 123.14428528197774 32.35913644442594 0.0
endloop
endfacet
facet normal 0.0 0.0 -1.0
outer loop
vertex 122.6670146583354 26.879883507044056 0.0
vertex 123.14428528197774 32.35913644442594 0.0
vertex 123.32950292654417 28.153695425655716 0.0
endloop
endfacet
facet normal 0.0 0.0 -1.0
outer loop
vertex 123.32950292654417 28.153695425655716 0.0
vertex 123.14428528197774 32.35913644442594 0.0
vertex 123.57655638067735 30.989965451912443 0.0
endloop
endfacet
facet normal 0.0 0.0 -1.0
outer loop
vertex 123.32950292654417 28.153695425655716 0.0
vertex 123.57655638067735 30.989965451912443 0.0
vertex 123.63973067000525 29.555567836646972 0.0
endloop
endfacet
facet normal 0.49999999999999406 0.8660254037844423 0.0
outer loop
vertex 115.38080973661012 29.901007643555797 5.59999999999999
vertex 115.7184630734666 29.761147052049314 2.1999999999999895
vertex 115.38080973661012 29.901007643555797 2.1999999999999895
endloop
endfacet
facet normal 0.25881904510252174 0.9659258262890682 0.0
outer loop
vertex 115.7184630734666 29.761147052049314 2.1999999999999895
vertex 115.38080973661012 29.901007643555797 5.59999999999999
vertex 115.7184630734666 29.761147052049314 5.59999999999999
endloop
endfacet
facet normal 0.25881904510252174 0.9659258262890682 0.0
outer loop
vertex 115.7184630734666 29.761147052049314 5.59999999999999
vertex 116.0808097366101 29.71344320885401 2.1999999999999895
vertex 115.7184630734666 29.761147052049314 2.1999999999999895
endloop
endfacet
facet normal 0.0 1.0 0.0
outer loop
vertex 116.0808097366101 29.71344320885401 2.1999999999999895
vertex 115.7184630734666 29.761147052049314 5.59999999999999
vertex 116.0808097366101 29.71344320885401 5.59999999999999
endloop
endfacet
facet normal 0.7071067811865434 0.7071067811865518 0.0
outer loop
vertex 115.09086024294893 30.12349371519284 5.59999999999999
vertex 115.38080973661012 29.901007643555797 2.1999999999999895
vertex 115.09086024294893 30.12349371519284 2.1999999999999895
endloop
endfacet
facet normal 0.49999999999999406 0.8660254037844423 0.0
outer loop
vertex 115.38080973661012 29.901007643555797 2.1999999999999895
vertex 115.09086024294893 30.12349371519284 5.59999999999999
vertex 115.38080973661012 29.901007643555797 5.59999999999999
endloop
endfacet
facet normal -0.7071067811865434 -0.7071067811865518 0.0
outer loop
vertex 117.07075923027129 32.10339270251517 5.59999999999999
vertex 117.29324530190833 31.813443208854007 2.1999999999999895
vertex 117.29324530190833 31.813443208854007 5.59999999999999
endloop
endfacet
facet normal -0.8660254037844413 -0.4999999999999958 0.0
outer loop
vertex 117.29324530190833 31.813443208854007 2.1999999999999895
vertex 117.07075923027129 32.10339270251517 5.59999999999999
vertex 117.07075923027129 32.10339270251517 2.1999999999999895
endloop
endfacet
facet normal 0.25881904510252174 -0.9659258262890682 0.0
outer loop
vertex 115.7184630734666 32.4657393656587 5.59999999999999
vertex 115.38080973661012 32.325878774152216 2.1999999999999895
vertex 115.7184630734666 32.4657393656587 2.1999999999999895
endloop
endfacet
facet normal 0.49999999999999406 -0.8660254037844423 0.0
outer loop
vertex 115.38080973661012 32.325878774152216 2.1999999999999895
vertex 115.7184630734666 32.4657393656587 5.59999999999999
vertex 115.38080973661012 32.325878774152216 5.59999999999999
endloop
endfacet
facet normal -0.25881904510252174 -0.9659258262890682 0.0
outer loop
vertex 116.44315639975363 32.4657393656587 5.59999999999999
vertex 116.0808097366101 32.51344320885401 2.1999999999999895
vertex 116.44315639975363 32.4657393656587 2.1999999999999895
endloop
endfacet
facet normal 0.0 -1.0 0.0
outer loop
vertex 116.0808097366101 32.51344320885401 2.1999999999999895
vertex 116.44315639975363 32.4657393656587 5.59999999999999
vertex 116.0808097366101 32.51344320885401 5.59999999999999
endloop
endfacet
facet normal 0.0 1.0 0.0
outer loop
vertex 116.0808097366101 29.71344320885401 5.59999999999999
vertex 116.44315639975363 29.761147052049314 2.1999999999999895
vertex 116.0808097366101 29.71344320885401 2.1999999999999895
endloop
endfacet
facet normal -0.25881904510252174 0.9659258262890682 0.0
outer loop
vertex 116.44315639975363 29.761147052049314 2.1999999999999895
vertex 116.0808097366101 29.71344320885401 5.59999999999999
vertex 116.44315639975363 29.761147052049314 5.59999999999999
endloop
endfacet
facet normal -0.25881904510252174 0.9659258262890682 0.0
outer loop
vertex 116.44315639975363 29.761147052049314 5.59999999999999
vertex 116.78080973661011 29.901007643555797 2.1999999999999895
vertex 116.44315639975363 29.761147052049314 2.1999999999999895
endloop
endfacet
facet normal -0.49999999999999406 0.8660254037844423 0.0
outer loop
vertex 116.78080973661011 29.901007643555797 2.1999999999999895
vertex 116.44315639975363 29.761147052049314 5.59999999999999
vertex 116.78080973661011 29.901007643555797 5.59999999999999
endloop
endfacet
facet normal -0.8660254037844413 -0.4999999999999958 0.0
outer loop
vertex 117.29324530190833 31.813443208854007 5.59999999999999
vertex 117.43310589341479 31.475789871997538 2.1999999999999895
vertex 117.43310589341479 31.475789871997538 5.59999999999999
endloop
endfacet
facet normal -0.9659258262890693 -0.2588190451025167 0.0
outer loop
vertex 117.43310589341479 31.475789871997538 2.1999999999999895
vertex 117.29324530190833 31.813443208854007 5.59999999999999
vertex 117.29324530190833 31.813443208854007 2.1999999999999895
endloop
endfacet
facet normal -0.8660254037844413 0.4999999999999958 0.0
outer loop
vertex 117.29324530190833 30.41344320885401 5.59999999999999
vertex 117.07075923027129 30.12349371519284 2.1999999999999895
vertex 117.07075923027129 30.12349371519284 5.59999999999999
endloop
endfacet
facet normal -0.7071067811865434 0.7071067811865518 0.0
outer loop
vertex 117.07075923027129 30.12349371519284 2.1999999999999895
vertex 117.29324530190833 30.41344320885401 5.59999999999999
vertex 117.29324530190833 30.41344320885401 2.1999999999999895
endloop
endfacet
facet normal 0.7071067811865434 -0.7071067811865518 0.0
outer loop
vertex 115.09086024294893 32.10339270251517 2.1999999999999895
vertex 114.8683741713119 31.813443208854007 5.59999999999999
vertex 114.8683741713119 31.813443208854007 2.1999999999999895
endloop
endfacet
facet normal 0.8660254037844426 -0.49999999999999317 0.0
outer loop
vertex 114.8683741713119 31.813443208854007 5.59999999999999
vertex 115.09086024294893 32.10339270251517 2.1999999999999895
vertex 115.09086024294893 32.10339270251517 5.59999999999999
endloop
endfacet
facet normal -0.9061468271553446 -0.42296326984302335 0.0
outer loop
vertex 113.17667018326895 27.7065404761527 5.6
vertex 113.94857953032567 26.495902846868923 0.0
vertex 113.94857953032567 26.495902846868923 5.6
endloop
endfacet
facet normal -0.7657996731450327 -0.6430792024400735 0.0
outer loop
vertex 113.94857953032567 26.495902846868923 0.0
vertex 113.17667018326895 27.7065404761527 5.6
vertex 113.17667018326895 27.7065404761527 0.0
endloop
endfacet
facet normal -0.9847415723734553 -0.17402308938602076 0.0
outer loop
vertex 112.74439908456934 29.075711468666206 5.6
vertex 113.17667018326895 27.7065404761527 0.0
vertex 113.17667018326895 27.7065404761527 5.6
endloop
endfacet
facet normal -0.9061468271553446 -0.42296326984302335 0.0
outer loop
vertex 113.17667018326895 27.7065404761527 0.0
vertex 112.74439908456934 29.075711468666206 5.6
vertex 112.74439908456934 29.075711468666206 0.0
endloop
endfacet
facet normal 0.9847415723734545 0.17402308938602537 0.0
outer loop
vertex 123.57655638067735 30.989965451912443 0.0
vertex 123.63973067000525 29.555567836646972 5.6
vertex 123.63973067000525 29.555567836646972 0.0
endloop
endfacet
facet normal 0.9962278067967067 -0.08677647702588297 0.0
outer loop
vertex 123.63973067000525 29.555567836646972 5.6
vertex 123.57655638067735 30.989965451912443 0.0
vertex 123.57655638067735 30.989965451912443 5.6
endloop
endfacet
facet normal 0.17402308938602426 -0.9847415723734547 0.0
outer loop
vertex 119.11760472424646 24.61675981223532 5.6
vertex 117.683207108981 24.553585522907433 0.0
vertex 119.11760472424646 24.61675981223532 0.0
endloop
endfacet
facet normal -0.08677647702588179 -0.9962278067967069 0.0
outer loop
vertex 117.683207108981 24.553585522907433 0.0
vertex 119.11760472424646 24.61675981223532 5.6
vertex 117.683207108981 24.553585522907433 5.6
endloop
endfacet
facet normal -0.6430792024400723 0.7657996731450339 0.0
outer loop
vertex 114.62354211920297 34.24473666258701 5.6
vertex 115.83417974848673 35.01664600964372 0.0
vertex 114.62354211920297 34.24473666258701 0.0
endloop
endfacet
facet normal -0.42296326984302246 0.906146827155345 0.0
outer loop
vertex 115.83417974848673 35.01664600964372 0.0
vertex 114.62354211920297 34.24473666258701 5.6
vertex 115.83417974848673 35.01664600964372 5.6
endloop
endfacet
facet normal 0.9061468271553463 0.42296326984301946 0.0
outer loop
vertex 123.14428528197774 32.35913644442594 0.0
vertex 123.57655638067735 30.989965451912443 5.6
vertex 123.57655638067735 30.989965451912443 0.0
endloop
endfacet
facet normal 0.9847415723734545 0.17402308938602537 0.0
outer loop
vertex 123.57655638067735 30.989965451912443 5.6
vertex 123.14428528197774 32.35913644442594 0.0
vertex 123.14428528197774 32.35913644442594 5.6
endloop
endfacet
facet normal 0.9962278067967067 -0.08677647702588297 0.0
outer loop
vertex 123.63973067000525 46.755567836646975 0.0
vertex 123.32950292654417 45.35369542565572 5.6
vertex 123.32950292654417 45.35369542565572 0.0
endloop
endfacet
facet normal 0.9398227625310539 -0.34166236993338656 0.0
outer loop
vertex 123.32950292654417 45.35369542565572 5.6
vertex 123.63973067000525 46.755567836646975 0.0
vertex 123.63973067000525 46.755567836646975 5.6
endloop
endfacet
facet normal 0.6430792024400708 -0.7657996731450353 0.0
outer loop
vertex 121.69741334604375 43.02094025799164 5.6
vertex 120.48677571675998 42.24903091093493 0.0
vertex 121.69741334604375 43.02094025799164 0.0
endloop
endfacet
facet normal 0.4229632698430215 -0.9061468271553454 0.0
outer loop
vertex 120.48677571675998 42.24903091093493 0.0
vertex 121.69741334604375 43.02094025799164 5.6
vertex 120.48677571675998 42.24903091093493 5.6
endloop
endfacet
facet normal -0.49999999999999406 0.8660254037844423 0.0
outer loop
vertex 116.78080973661011 47.101007643555796 5.59999999999999
vertex 117.07075923027129 47.32349371519284 2.1999999999999895
vertex 116.78080973661011 47.101007643555796 2.1999999999999895
endloop
endfacet
facet normal -0.7071067811865434 0.7071067811865518 0.0
outer loop
vertex 117.07075923027129 47.32349371519284 2.1999999999999895
vertex 116.78080973661011 47.101007643555796 5.59999999999999
vertex 117.07075923027129 47.32349371519284 5.59999999999999
endloop
endfacet
facet normal 0.0 0.0 1.0
outer loop
vertex 114.72851357980544 47.95109654571048 2.1999999999999895
vertex 114.72851357980544 48.67578987199754 2.1999999999999895
vertex 114.68080973661012 48.31344320885401 2.1999999999999895
endloop
endfacet
facet normal 0.0 0.0 1.0
outer loop
vertex 114.72851357980544 48.67578987199754 2.1999999999999895
vertex 114.72851357980544 47.95109654571048 2.1999999999999895
vertex 114.8683741713119 47.61344320885401 2.1999999999999895
endloop
endfacet
facet normal 0.0 0.0 1.0
outer loop
vertex 114.72851357980544 48.67578987199754 2.1999999999999895
vertex 114.8683741713119 47.61344320885401 2.1999999999999895
vertex 114.8683741713119 49.01344320885401 2.1999999999999895
endloop
endfacet
facet normal 0.0 0.0 1.0
outer loop
vertex 114.8683741713119 49.01344320885401 2.1999999999999895
vertex 114.8683741713119 47.61344320885401 2.1999999999999895
vertex 115.09086024294893 47.32349371519284 2.1999999999999895
endloop
endfacet
facet normal 0.0 0.0 1.0
outer loop
vertex 114.8683741713119 49.01344320885401 2.1999999999999895
vertex 115.09086024294893 47.32349371519284 2.1999999999999895
vertex 115.09086024294893 49.303392702515175 2.1999999999999895
endloop
endfacet
facet normal 0.0 0.0 1.0
outer loop
vertex 115.09086024294893 49.303392702515175 2.1999999999999895
vertex 115.09086024294893 47.32349371519284 2.1999999999999895
vertex 115.38080973661012 47.101007643555796 2.1999999999999895
endloop
endfacet
facet normal 0.0 0.0 1.0
outer loop
vertex 115.09086024294893 49.303392702515175 2.1999999999999895
vertex 115.38080973661012 47.101007643555796 2.1999999999999895
vertex 115.38080973661012 49.52587877415222 2.1999999999999895
endloop
endfacet
facet normal 0.0 0.0 1.0
outer loop
vertex 115.38080973661012 49.52587877415222 2.1999999999999895
vertex 115.38080973661012 47.101007643555796 2.1999999999999895
vertex 115.7184630734666 46.96114705204932 2.1999999999999895
endloop
endfacet
facet normal 0.0 0.0 1.0
outer loop
vertex 115.38080973661012 49.52587877415222 2.1999999999999895
vertex 115.7184630734666 46.96114705204932 2.1999999999999895
vertex 115.7184630734666 49.6657393656587 2.1999999999999895
endloop
endfacet
facet normal 0.0 0.0 1.0
outer loop
vertex 115.7184630734666 49.6657393656587 2.1999999999999895
vertex 115.7184630734666 46.96114705204932 2.1999999999999895
vertex 116.0808097366101 46.91344320885401 2.1999999999999895
endloop
endfacet
facet normal 0.0 0.0 1.0
outer loop
vertex 115.7184630734666 49.6657393656587 2.1999999999999895
vertex 116.0808097366101 46.91344320885401 2.1999999999999895
vertex 116.0808097366101 49.71344320885401 2.1999999999999895
endloop
endfacet
facet normal 0.0 0.0 1.0
outer loop
vertex 116.0808097366101 49.71344320885401 2.1999999999999895
vertex 116.0808097366101 46.91344320885401 2.1999999999999895
vertex 116.44315639975363 46.96114705204932 2.1999999999999895
endloop
endfacet
facet normal 0.0 0.0 1.0
outer loop
vertex 116.0808097366101 49.71344320885401 2.1999999999999895
vertex 116.44315639975363 46.96114705204932 2.1999999999999895
vertex 116.44315639975363 49.6657393656587 2.1999999999999895
endloop
endfacet
facet normal 0.0 0.0 1.0
outer loop
vertex 116.44315639975363 49.6657393656587 2.1999999999999895
vertex 116.44315639975363 46.96114705204932 2.1999999999999895
vertex 116.78080973661011 47.101007643555796 2.1999999999999895
endloop
endfacet
facet normal 0.0 0.0 1.0
outer loop
vertex 116.44315639975363 49.6657393656587 2.1999999999999895
vertex 116.78080973661011 47.101007643555796 2.1999999999999895
vertex 116.78080973661011 49.52587877415222 2.1999999999999895
endloop
endfacet
facet normal 0.0 0.0 1.0
outer loop
vertex 116.78080973661011 49.52587877415222 2.1999999999999895
vertex 116.78080973661011 47.101007643555796 2.1999999999999895
vertex 117.07075923027129 47.32349371519284 2.1999999999999895
endloop
endfacet
facet normal 0.0 0.0 1.0
outer loop
vertex 116.78080973661011 49.52587877415222 2.1999999999999895
vertex 117.07075923027129 47.32349371519284 2.1999999999999895
vertex 117.07075923027129 49.303392702515175 2.1999999999999895
endloop
endfacet
facet normal 0.0 0.0 1.0
outer loop
vertex 117.07075923027129 49.303392702515175 2.1999999999999895
vertex 117.07075923027129 47.32349371519284 2.1999999999999895
vertex 117.29324530190833 47.61344320885401 2.1999999999999895
endloop
endfacet
facet normal 0.0 0.0 1.0
outer loop
vertex 117.07075923027129 49.303392702515175 2.1999999999999895
vertex 117.29324530190833 47.61344320885401 2.1999999999999895
vertex 117.29324530190833 49.01344320885401 2.1999999999999895
endloop
endfacet
facet normal 0.0 0.0 1.0
outer loop
vertex 117.29324530190833 49.01344320885401 2.1999999999999895
vertex 117.29324530190833 47.61344320885401 2.1999999999999895
vertex 117.43310589341479 47.95109654571048 2.1999999999999895
endloop
endfacet
facet normal 0.0 0.0 1.0
outer loop
vertex 117.29324530190833 49.01344320885401 2.1999999999999895
vertex 117.43310589341479 47.95109654571048 2.1999999999999895
vertex 117.43310589341479 48.67578987199754 2.1999999999999895
endloop
endfacet
facet normal 0.0 0.0 1.0
outer loop
vertex 117.43310589341479 48.67578987199754 2.1999999999999895
vertex 117.43310589341479 47.95109654571048 2.1999999999999895
vertex 117.48080973661011 48.31344320885401 2.1999999999999895
endloop
endfacet
facet normal -0.49999999999999406 -0.8660254037844423 0.0
outer loop
vertex 116.78080973661011 49.52587877415222 5.59999999999999
vertex 116.44315639975363 49.6657393656587 2.1999999999999895
vertex 116.78080973661011 49.52587877415222 2.1999999999999895
endloop
endfacet
facet normal -0.25881904510252174 -0.9659258262890682 0.0
outer loop
vertex 116.44315639975363 49.6657393656587 2.1999999999999895
vertex 116.78080973661011 49.52587877415222 5.59999999999999
vertex 116.44315639975363 49.6657393656587 5.59999999999999
endloop
endfacet
facet normal -0.7071067811865434 -0.7071067811865518 0.0
outer loop
vertex 117.07075923027129 49.303392702515175 5.59999999999999
vertex 116.78080973661011 49.52587877415222 2.1999999999999895
vertex 117.07075923027129 49.303392702515175 2.1999999999999895
endloop
endfacet
facet normal -0.49999999999999406 -0.8660254037844423 0.0
outer loop
vertex 116.78080973661011 49.52587877415222 2.1999999999999895
vertex 117.07075923027129 49.303392702515175 5.59999999999999
vertex 116.78080973661011 49.52587877415222 5.59999999999999
endloop
endfacet
facet normal 0.8660254037844426 -0.49999999999999317 0.0
outer loop
vertex 114.8683741713119 49.01344320885401 2.1999999999999895
vertex 114.72851357980544 48.67578987199754 5.59999999999999
vertex 114.72851357980544 48.67578987199754 2.1999999999999895
endloop
endfacet
facet normal 0.9659258262890699 -0.25881904510251474 0.0
outer loop
vertex 114.72851357980544 48.67578987199754 5.59999999999999
vertex 114.8683741713119 49.01344320885401 2.1999999999999895
vertex 114.8683741713119 49.01344320885401 5.59999999999999
endloop
endfacet
facet normal 0.9659258262890699 -0.25881904510251474 0.0
outer loop
vertex 114.72851357980544 48.67578987199754 2.1999999999999895
vertex 114.68080973661012 48.31344320885401 5.59999999999999
vertex 114.68080973661012 48.31344320885401 2.1999999999999895
endloop
endfacet
facet normal 1.0 -1.0069554182081006e-15 0.0
outer loop
vertex 114.68080973661012 48.31344320885401 5.59999999999999
vertex 114.72851357980544 48.67578987199754 2.1999999999999895
vertex 114.72851357980544 48.67578987199754 5.59999999999999
endloop
endfacet
facet normal 1.0 -1.0069554182081006e-15 0.0
outer loop
vertex 114.68080973661012 48.31344320885401 2.1999999999999895
vertex 114.72851357980544 47.95109654571048 5.59999999999999
vertex 114.72851357980544 47.95109654571048 2.1999999999999895
endloop
endfacet
facet normal 0.9659258262890693 0.2588190451025167 0.0
outer loop
vertex 114.72851357980544 47.95109654571048 5.59999999999999
vertex 114.68080973661012 48.31344320885401 2.1999999999999895
vertex 114.68080973661012 48.31344320885401 5.59999999999999
endloop
endfacet
facet normal 0.0 -1.0 0.0
outer loop
vertex 116.0808097366101 49.71344320885401 5.59999999999999
vertex 115.7184630734666 49.6657393656587 2.1999999999999895
vertex 116.0808097366101 49.71344320885401 2.1999999999999895
endloop
endfacet
facet normal 0.25881904510252174 -0.9659258262890682 0.0
outer loop
vertex 115.7184630734666 49.6657393656587 2.1999999999999895
vertex 116.0808097366101 49.71344320885401 5.59999999999999
vertex 115.7184630734666 49.6657393656587 5.59999999999999
endloop
endfacet
facet normal 0.9659258262890693 0.2588190451025167 0.0
outer loop
vertex 114.72851357980544 47.95109654571048 2.1999999999999895
vertex 114.8683741713119 47.61344320885401 5.59999999999999
vertex 114.8683741713119 47.61344320885401 2.1999999999999895
endloop
endfacet
facet normal 0.8660254037844413 0.4999999999999958 0.0
outer loop
vertex 114.8683741713119 47.61344320885401 5.59999999999999
vertex 114.72851357980544 47.95109654571048 2.1999999999999895
vertex 114.72851357980544 47.95109654571048 5.59999999999999
endloop
endfacet
facet normal 0.8660254037844413 0.4999999999999958 0.0
outer loop
vertex 114.8683741713119 47.61344320885401 2.1999999999999895
vertex 115.09086024294893 47.32349371519284 5.59999999999999
vertex 115.09086024294893 47.32349371519284 2.1999999999999895
endloop
endfacet
facet normal 0.7071067811865434 0.7071067811865518 0.0
outer loop
vertex 115.09086024294893 47.32349371519284 5.59999999999999
vertex 114.8683741713119 47.61344320885401 2.1999999999999895
vertex 114.8683741713119 47.61344320885401 5.59999999999999
endloop
endfacet
facet normal -0.9659258262890693 0.2588190451025167 0.0
outer loop
vertex 117.43310589341479 47.95109654571048 5.59999999999999
vertex 117.29324530190833 47.61344320885401 2.1999999999999895
vertex 117.29324530190833 47.61344320885401 5.59999999999999
endloop
endfacet
facet normal -0.8660254037844413 0.4999999999999958 0.0
outer loop
vertex 117.29324530190833 47.61344320885401 2.1999999999999895
vertex 117.43310589341479 47.95109654571048 5.59999999999999
vertex 117.43310589341479 47.95109654571048 2.1999999999999895
endloop
endfacet
facet normal -1.0 0.0 0.0
outer loop
vertex 117.48080973661011 48.31344320885401 5.59999999999999
vertex 117.43310589341479 47.95109654571048 2.1999999999999895
vertex 117.43310589341479 47.95109654571048 5.59999999999999
endloop
endfacet
facet normal -0.9659258262890693 0.2588190451025167 0.0
outer loop
vertex 117.43310589341479 47.95109654571048 2.1999999999999895
vertex 117.48080973661011 48.31344320885401 5.59999999999999
vertex 117.48080973661011 48.31344320885401 2.1999999999999895
endloop
endfacet
facet normal -0.9659258262890693 -0.2588190451025167 0.0
outer loop
vertex 117.43310589341479 48.67578987199754 5.59999999999999
vertex 117.48080973661011 48.31344320885401 2.1999999999999895
vertex 117.48080973661011 48.31344320885401 5.59999999999999
endloop
endfacet
facet normal -1.0 0.0 0.0
outer loop
vertex 117.48080973661011 48.31344320885401 2.1999999999999895
vertex 117.43310589341479 48.67578987199754 5.59999999999999
vertex 117.43310589341479 48.67578987199754 2.1999999999999895
endloop
endfacet
facet normal 0.49999999999999406 -0.8660254037844423 0.0
outer loop
vertex 115.38080973661012 49.52587877415222 5.59999999999999
vertex 115.09086024294893 49.303392702515175 2.1999999999999895
vertex 115.38080973661012 49.52587877415222 2.1999999999999895
endloop
endfacet
facet normal 0.7071067811865434 -0.7071067811865518 0.0
outer loop
vertex 115.09086024294893 49.303392702515175 2.1999999999999895
vertex 115.38080973661012 49.52587877415222 5.59999999999999
vertex 115.09086024294893 49.303392702515175 5.59999999999999
endloop
endfacet
facet normal -0.17402308938602312 0.9847415723734549 0.0
outer loop
vertex 117.20335074100024 52.64891710834334 5.6
vertex 118.6377483562657 52.712091397671216 0.0
vertex 117.20335074100024 52.64891710834334 0.0
endloop
endfacet
facet normal 0.08677647702588179 0.9962278067967069 0.0
outer loop
vertex 118.6377483562657 52.712091397671216 0.0
vertex 117.20335074100024 52.64891710834334 5.6
vertex 118.6377483562657 52.712091397671216 5.6
endloop
endfacet
facet normal -0.9962278067967069 0.08677647702588358 0.0
outer loop
vertex 112.68122479524146 47.71010908393168 5.6
vertex 112.74439908456934 46.27571146866621 0.0
vertex 112.74439908456934 46.27571146866621 5.6
endloop
endfacet
facet normal -0.9847415723734553 -0.17402308938602076 0.0
outer loop
vertex 112.74439908456934 46.27571146866621 0.0
vertex 112.68122479524146 47.71010908393168 5.6
vertex 112.68122479524146 47.71010908393168 0.0
endloop
endfacet
facet normal -0.8193703501294622 0.573264536953685 0.0
outer loop
vertex 113.6539408069113 50.38579341353459 5.6
vertex 112.99145253870255 49.11198149492293 0.0
vertex 112.99145253870255 49.11198149492293 5.6
endloop
endfacet
facet normal -0.9398227625310556 0.34166236993338206 0.0
outer loop
vertex 112.99145253870255 49.11198149492293 0.0
vertex 113.6539408069113 50.38579341353459 5.6
vertex 113.6539408069113 50.38579341353459 0.0
endloop
endfacet
facet normal 0.3416623699333846 0.9398227625310546 0.0
outer loop
vertex 120.03962076725698 52.40186365421014 5.6
vertex 121.31343268586859 51.73937538600137 0.0
vertex 120.03962076725698 52.40186365421014 0.0
endloop
endfacet
facet normal 0.5732645369536848 0.8193703501294622 0.0
outer loop
vertex 121.31343268586859 51.73937538600137 0.0
vertex 120.03962076725698 52.40186365421014 5.6
vertex 121.31343268586859 51.73937538600137 5.6
endloop
endfacet
facet normal 0.9398227625310539 -0.34166236993338656 0.0
outer loop
vertex 123.32950292654417 45.35369542565572 0.0
vertex 122.6670146583354 44.07988350704406 5.6
vertex 122.6670146583354 44.07988350704406 0.0
endloop
endfacet
facet normal 0.8193703501294637 -0.5732645369536828 0.0
outer loop
vertex 122.6670146583354 44.07988350704406 5.6
vertex 123.32950292654417 45.35369542565572 0.0
vertex 123.32950292654417 45.35369542565572 5.6
endloop
endfacet
facet normal 0.08677647702588179 0.9962278067967069 0.0
outer loop
vertex 118.6377483562657 52.712091397671216 5.6
vertex 120.03962076725698 52.40186365421014 0.0
vertex 118.6377483562657 52.712091397671216 0.0
endloop
endfacet
facet normal 0.3416623699333846 0.9398227625310546 0.0
outer loop
vertex 120.03962076725698 52.40186365421014 0.0
vertex 118.6377483562657 52.712091397671216 5.6
vertex 120.03962076725698 52.40186365421014 5.6
endloop
endfacet
facet normal 0.5732645369536848 0.8193703501294622 0.0
outer loop
vertex 121.31343268586859 51.73937538600137 5.6
vertex 122.37237593492102 50.76977407370973 0.0
vertex 121.31343268586859 51.73937538600137 0.0
endloop
endfacet
facet normal 0.7657996731450316 0.6430792024400749 0.0
outer loop
vertex 122.37237593492102 50.76977407370973 0.0
vertex 121.31343268586859 51.73937538600137 5.6
vertex 122.37237593492102 50.76977407370973 5.6
endloop
endfacet
facet normal 0.7657996731450316 0.6430792024400749 0.0
outer loop
vertex 122.37237593492102 50.76977407370973 0.0
vertex 123.14428528197774 49.559136444425945 5.6
vertex 123.14428528197774 49.559136444425945 0.0
endloop
endfacet
facet normal 0.9061468271553463 0.42296326984301946 0.0
outer loop
vertex 123.14428528197774 49.559136444425945 5.6
vertex 122.37237593492102 50.76977407370973 0.0
vertex 122.37237593492102 50.76977407370973 5.6
endloop
endfacet
facet normal -0.42296326984302246 0.906146827155345 0.0
outer loop
vertex 115.83417974848673 52.21664600964372 5.6
vertex 117.20335074100024 52.64891710834334 0.0
vertex 115.83417974848673 52.21664600964372 0.0
endloop
endfacet
facet normal -0.17402308938602312 0.9847415723734549 0.0
outer loop
vertex 117.20335074100024 52.64891710834334 0.0
vertex 115.83417974848673 52.21664600964372 5.6
vertex 117.20335074100024 52.64891710834334 5.6
endloop
endfacet
facet normal -0.9398227625310556 0.34166236993338206 0.0
outer loop
vertex 112.99145253870255 49.11198149492293 5.6
vertex 112.68122479524146 47.71010908393168 0.0
vertex 112.68122479524146 47.71010908393168 5.6
endloop
endfacet
facet normal -0.9962278067967069 0.08677647702588358 0.0
outer loop
vertex 112.68122479524146 47.71010908393168 0.0
vertex 112.99145253870255 49.11198149492293 5.6
vertex 112.99145253870255 49.11198149492293 0.0
endloop
endfacet
facet normal -0.6430792024400723 0.7657996731450339 0.0
outer loop
vertex 114.62354211920297 51.44473666258701 5.6
vertex 113.6539408069113 50.38579341353459 0.0
vertex 113.6539408069113 50.38579341353459 5.6
endloop
endfacet
facet normal -0.8193703501294622 0.573264536953685 0.0
outer loop
vertex 113.6539408069113 50.38579341353459 0.0
vertex 114.62354211920297 51.44473666258701 5.6
vertex 114.62354211920297 51.44473666258701 0.0
endloop
endfacet
facet normal -0.5732645369536856 -0.8193703501294617 0.0
outer loop
vertex 115.00752277937808 42.72630153457728 5.6
vertex 113.94857953032567 43.695902846868925 0.0
vertex 115.00752277937808 42.72630153457728 0.0
endloop
endfacet
facet normal -0.7657996731450327 -0.6430792024400735 0.0
outer loop
vertex 113.94857953032567 43.695902846868925 0.0
vertex 115.00752277937808 42.72630153457728 5.6
vertex 113.94857953032567 43.695902846868925 5.6
endloop
endfacet
facet normal -0.341662369933383 -0.9398227625310553 0.0
outer loop
vertex 116.28133469798973 42.06381326636852 5.6
vertex 115.00752277937808 42.72630153457728 0.0
vertex 116.28133469798973 42.06381326636852 0.0
endloop
endfacet
facet normal -0.5732645369536856 -0.8193703501294617 0.0
outer loop
vertex 115.00752277937808 42.72630153457728 0.0
vertex 116.28133469798973 42.06381326636852 5.6
vertex 115.00752277937808 42.72630153457728 5.6
endloop
endfacet
facet normal 0.0 0.0 1.0
outer loop
vertex 112.74439908456934 46.27571146866621 5.6
vertex 112.99145253870255 49.11198149492293 5.6
vertex 112.68122479524146 47.71010908393168 5.6
endloop
endfacet
facet normal 0.0 0.0 1.0
outer loop
vertex 112.99145253870255 49.11198149492293 5.6
vertex 112.74439908456934 46.27571146866621 5.6
vertex 113.17667018326895 44.9065404761527 5.6
endloop
endfacet
facet normal 0.0 0.0 1.0
outer loop
vertex 112.99145253870255 49.11198149492293 5.6
vertex 113.17667018326895 44.9065404761527 5.6
vertex 113.6539408069113 50.38579341353459 5.6
endloop
endfacet
facet normal 0.0 0.0 1.0
outer loop
vertex 113.6539408069113 50.38579341353459 5.6
vertex 113.17667018326895 44.9065404761527 5.6
vertex 113.94857953032567 43.695902846868925 5.6
endloop
endfacet
facet normal 0.0 0.0 1.0
outer loop
vertex 113.6539408069113 50.38579341353459 5.6
vertex 113.94857953032567 43.695902846868925 5.6
vertex 114.62354211920297 51.44473666258701 5.6
endloop
endfacet
facet normal 0.0 0.0 1.0
outer loop
vertex 114.62354211920297 51.44473666258701 5.6
vertex 113.94857953032567 43.695902846868925 5.6
vertex 114.68080973661012 48.31344320885401 5.59999999999999
endloop
endfacet
facet normal 0.0 0.0 1.0
outer loop
vertex 114.68080973661012 48.31344320885401 5.59999999999999
vertex 113.94857953032567 43.695902846868925 5.6
vertex 115.00752277937808 42.72630153457728 5.6
endloop
endfacet
facet normal 0.0 0.0 1.0
outer loop
vertex 114.68080973661012 48.31344320885401 5.59999999999999
vertex 115.00752277937808 42.72630153457728 5.6
vertex 114.72851357980544 47.95109654571048 5.59999999999999
endloop
endfacet
facet normal 0.0 0.0 1.0
outer loop
vertex 114.72851357980544 47.95109654571048 5.59999999999999
vertex 115.00752277937808 42.72630153457728 5.6
vertex 114.8683741713119 47.61344320885401 5.59999999999999
endloop
endfacet
facet normal 0.0 0.0 1.0
outer loop
vertex 114.8683741713119 47.61344320885401 5.59999999999999
vertex 115.00752277937808 42.72630153457728 5.6
vertex 115.09086024294893 47.32349371519284 5.59999999999999
endloop
endfacet
facet normal 0.0 0.0 1.0
outer loop
vertex 115.09086024294893 47.32349371519284 5.59999999999999
vertex 115.00752277937808 42.72630153457728 5.6
vertex 116.28133469798973 42.06381326636852 5.6
endloop
endfacet
facet normal 0.0 0.0 1.0
outer loop
vertex 115.09086024294893 47.32349371519284 5.59999999999999
vertex 116.28133469798973 42.06381326636852 5.6
vertex 115.38080973661012 47.101007643555796 5.59999999999999
endloop
endfacet
facet normal 0.0 0.0 1.0
outer loop
vertex 115.38080973661012 47.101007643555796 5.59999999999999
vertex 116.28133469798973 42.06381326636852 5.6
vertex 115.7184630734666 46.96114705204932 5.59999999999999
endloop
endfacet
facet normal 0.0 0.0 1.0
outer loop
vertex 115.7184630734666 46.96114705204932 5.59999999999999
vertex 116.28133469798973 42.06381326636852 5.6
vertex 116.0808097366101 46.91344320885401 5.59999999999999
endloop
endfacet
facet normal 0.0 0.0 1.0
outer loop
vertex 116.0808097366101 46.91344320885401 5.59999999999999
vertex 116.28133469798973 42.06381326636852 5.6
vertex 116.44315639975363 46.96114705204932 5.59999999999999
endloop
endfacet
facet normal 0.0 0.0 1.0
outer loop
vertex 116.44315639975363 46.96114705204932 5.59999999999999
vertex 116.28133469798973 42.06381326636852 5.6
vertex 117.683207108981 41.753585522907436 5.6
endloop
endfacet
facet normal 0.0 0.0 1.0
outer loop
vertex 116.44315639975363 46.96114705204932 5.59999999999999
vertex 117.683207108981 41.753585522907436 5.6
vertex 116.78080973661011 47.101007643555796 5.59999999999999
endloop
endfacet
facet normal 0.0 0.0 1.0
outer loop
vertex 116.78080973661011 47.101007643555796 5.59999999999999
vertex 117.683207108981 41.753585522907436 5.6
vertex 117.07075923027129 47.32349371519284 5.59999999999999
endloop
endfacet
facet normal 0.0 0.0 1.0
outer loop
vertex 117.07075923027129 47.32349371519284 5.59999999999999
vertex 117.683207108981 41.753585522907436 5.6
vertex 117.29324530190833 47.61344320885401 5.59999999999999
endloop
endfacet
facet normal 0.0 0.0 1.0
outer loop
vertex 117.29324530190833 47.61344320885401 5.59999999999999
vertex 117.683207108981 41.753585522907436 5.6
vertex 117.43310589341479 47.95109654571048 5.59999999999999
endloop
endfacet
facet normal 0.0 0.0 1.0
outer loop
vertex 117.43310589341479 47.95109654571048 5.59999999999999
vertex 117.683207108981 41.753585522907436 5.6
vertex 117.48080973661011 48.31344320885401 5.59999999999999
endloop
endfacet
facet normal 0.0 0.0 1.0
outer loop
vertex 114.62354211920297 51.44473666258701 5.6
vertex 114.72851357980544 48.67578987199754 5.59999999999999
vertex 115.83417974848673 52.21664600964372 5.6
endloop
endfacet
facet normal 0.0 0.0 1.0
outer loop
vertex 114.72851357980544 48.67578987199754 5.59999999999999
vertex 114.62354211920297 51.44473666258701 5.6
vertex 114.68080973661012 48.31344320885401 5.59999999999999
endloop
endfacet
facet normal 0.0 0.0 1.0
outer loop
vertex 115.83417974848673 52.21664600964372 5.6
vertex 114.72851357980544 48.67578987199754 5.59999999999999
vertex 114.8683741713119 49.01344320885401 5.59999999999999
endloop
endfacet
facet normal 0.0 0.0 1.0
outer loop
vertex 115.83417974848673 52.21664600964372 5.6
vertex 114.8683741713119 49.01344320885401 5.59999999999999
vertex 115.09086024294893 49.303392702515175 5.59999999999999
endloop
endfacet
facet normal 0.0 0.0 1.0
outer loop
vertex 115.83417974848673 52.21664600964372 5.6
vertex 115.09086024294893 49.303392702515175 5.59999999999999
vertex 115.38080973661012 49.52587877415222 5.59999999999999
endloop
endfacet
facet normal 0.0 0.0 1.0
outer loop
vertex 115.83417974848673 52.21664600964372 5.6
vertex 115.38080973661012 49.52587877415222 5.59999999999999
vertex 115.7184630734666 49.6657393656587 5.59999999999999
endloop
endfacet
facet normal 0.0 0.0 1.0
outer loop
vertex 115.83417974848673 52.21664600964372 5.6
vertex 115.7184630734666 49.6657393656587 5.59999999999999
vertex 116.0808097366101 49.71344320885401 5.59999999999999
endloop
endfacet
facet normal 0.0 0.0 1.0
outer loop
vertex 115.83417974848673 52.21664600964372 5.6
vertex 116.0808097366101 49.71344320885401 5.59999999999999
vertex 117.20335074100024 52.64891710834334 5.6
endloop
endfacet
facet normal 0.0 0.0 1.0
outer loop
vertex 117.20335074100024 52.64891710834334 5.6
vertex 116.0808097366101 49.71344320885401 5.59999999999999
vertex 116.44315639975363 49.6657393656587 5.59999999999999
endloop
endfacet
facet normal 0.0 0.0 1.0
outer loop
vertex 117.20335074100024 52.64891710834334 5.6
vertex 116.44315639975363 49.6657393656587 5.59999999999999
vertex 116.78080973661011 49.52587877415222 5.59999999999999
endloop
endfacet
facet normal 0.0 0.0 1.0
outer loop
vertex 117.20335074100024 52.64891710834334 5.6
vertex 116.78080973661011 49.52587877415222 5.59999999999999
vertex 117.07075923027129 49.303392702515175 5.59999999999999
endloop
endfacet
facet normal 0.0 0.0 1.0
outer loop
vertex 117.20335074100024 52.64891710834334 5.6
vertex 117.07075923027129 49.303392702515175 5.59999999999999
vertex 117.29324530190833 49.01344320885401 5.59999999999999
endloop
endfacet
facet normal 0.0 0.0 1.0
outer loop
vertex 117.20335074100024 52.64891710834334 5.6
vertex 117.29324530190833 49.01344320885401 5.59999999999999
vertex 118.6377483562657 52.712091397671216 5.6
endloop
endfacet
facet normal 0.0 0.0 1.0
outer loop
vertex 118.6377483562657 52.712091397671216 5.6
vertex 117.29324530190833 49.01344320885401 5.59999999999999
vertex 117.43310589341479 48.67578987199754 5.59999999999999
endloop
endfacet
facet normal 0.0 0.0 1.0
outer loop
vertex 118.6377483562657 52.712091397671216 5.6
vertex 117.43310589341479 48.67578987199754 5.59999999999999
vertex 117.48080973661011 48.31344320885401 5.59999999999999
endloop
endfacet
facet normal 0.0 0.0 1.0
outer loop
vertex 118.6377483562657 52.712091397671216 5.6
vertex 117.48080973661011 48.31344320885401 5.59999999999999
vertex 117.683207108981 41.753585522907436 5.6
endloop
endfacet
facet normal 0.0 0.0 1.0
outer loop
vertex 118.6377483562657 52.712091397671216 5.6
vertex 117.683207108981 41.753585522907436 5.6
vertex 119.11760472424646 41.81675981223532 5.6
endloop
endfacet
facet normal 0.0 0.0 1.0
outer loop
vertex 118.6377483562657 52.712091397671216 5.6
vertex 119.11760472424646 41.81675981223532 5.6
vertex 120.03962076725698 52.40186365421014 5.6
endloop
endfacet
facet normal 0.0 0.0 1.0
outer loop
vertex 120.03962076725698 52.40186365421014 5.6
vertex 119.11760472424646 41.81675981223532 5.6
vertex 120.48677571675998 42.24903091093493 5.6
endloop
endfacet
facet normal 0.0 0.0 1.0
outer loop
vertex 120.03962076725698 52.40186365421014 5.6
vertex 120.48677571675998 42.24903091093493 5.6
vertex 121.31343268586859 51.73937538600137 5.6
endloop
endfacet
facet normal 0.0 0.0 1.0
outer loop
vertex 121.31343268586859 51.73937538600137 5.6
vertex 120.48677571675998 42.24903091093493 5.6
vertex 121.69741334604375 43.02094025799164 5.6
endloop
endfacet
facet normal 0.0 0.0 1.0
outer loop
vertex 121.31343268586859 51.73937538600137 5.6
vertex 121.69741334604375 43.02094025799164 5.6
vertex 122.37237593492102 50.76977407370973 5.6
endloop
endfacet
facet normal 0.0 0.0 1.0
outer loop
vertex 122.37237593492102 50.76977407370973 5.6
vertex 121.69741334604375 43.02094025799164 5.6
vertex 122.6670146583354 44.07988350704406 5.6
endloop
endfacet
facet normal 0.0 0.0 1.0
outer loop
vertex 122.37237593492102 50.76977407370973 5.6
vertex 122.6670146583354 44.07988350704406 5.6
vertex 123.14428528197774 49.559136444425945 5.6
endloop
endfacet
facet normal 0.0 0.0 1.0
outer loop
vertex 123.14428528197774 49.559136444425945 5.6
vertex 122.6670146583354 44.07988350704406 5.6
vertex 123.32950292654417 45.35369542565572 5.6
endloop
endfacet
facet normal 0.0 0.0 1.0
outer loop
vertex 123.14428528197774 49.559136444425945 5.6
vertex 123.32950292654417 45.35369542565572 5.6
vertex 123.57655638067735 48.18996545191244 5.6
endloop
endfacet
facet normal 0.0 0.0 1.0
outer loop
vertex 123.57655638067735 48.18996545191244 5.6
vertex 123.32950292654417 45.35369542565572 5.6
vertex 123.63973067000525 46.755567836646975 5.6
endloop
endfacet
facet normal -0.08677647702588179 -0.9962278067967069 0.0
outer loop
vertex 117.683207108981 41.753585522907436 5.6
vertex 116.28133469798973 42.06381326636852 0.0
vertex 117.683207108981 41.753585522907436 0.0
endloop
endfacet
facet normal -0.341662369933383 -0.9398227625310553 0.0
outer loop
vertex 116.28133469798973 42.06381326636852 0.0
vertex 117.683207108981 41.753585522907436 5.6
vertex 116.28133469798973 42.06381326636852 5.6
endloop
endfacet
facet normal 0.8193703501294637 -0.5732645369536828 0.0
outer loop
vertex 122.6670146583354 44.07988350704406 0.0
vertex 121.69741334604375 43.02094025799164 5.6
vertex 121.69741334604375 43.02094025799164 0.0
endloop
endfacet
facet normal 0.6430792024400708 -0.7657996731450353 0.0
outer loop
vertex 121.69741334604375 43.02094025799164 5.6
vertex 122.6670146583354 44.07988350704406 0.0
vertex 122.6670146583354 44.07988350704406 5.6
endloop
endfacet
facet normal 0.4229632698430215 -0.9061468271553454 0.0
outer loop
vertex 120.48677571675998 42.24903091093493 5.6
vertex 119.11760472424646 41.81675981223532 0.0
vertex 120.48677571675998 42.24903091093493 0.0
endloop
endfacet
facet normal 0.17402308938602426 -0.9847415723734547 0.0
outer loop
vertex 119.11760472424646 41.81675981223532 0.0
vertex 120.48677571675998 42.24903091093493 5.6
vertex 119.11760472424646 41.81675981223532 5.6
endloop
endfacet
facet normal 0.0 0.0 -1.0
outer loop
vertex 112.99145253870255 49.11198149492293 0.0
vertex 112.74439908456934 46.27571146866621 0.0
vertex 112.68122479524146 47.71010908393168 0.0
endloop
endfacet
facet normal 0.0 0.0 -1.0
outer loop
vertex 112.74439908456934 46.27571146866621 0.0
vertex 112.99145253870255 49.11198149492293 0.0
vertex 113.17667018326895 44.9065404761527 0.0
endloop
endfacet
facet normal 0.0 0.0 -1.0
outer loop
vertex 113.17667018326895 44.9065404761527 0.0
vertex 112.99145253870255 49.11198149492293 0.0
vertex 113.6539408069113 50.38579341353459 0.0
endloop
endfacet
facet normal 0.0 0.0 -1.0
outer loop
vertex 113.17667018326895 44.9065404761527 0.0
vertex 113.6539408069113 50.38579341353459 0.0
vertex 113.94857953032567 43.695902846868925 0.0
endloop
endfacet
facet normal 0.0 0.0 -1.0
outer loop
vertex 113.94857953032567 43.695902846868925 0.0
vertex 113.6539408069113 50.38579341353459 0.0
vertex 114.62354211920297 51.44473666258701 0.0
endloop
endfacet
facet normal 0.0 0.0 -1.0
outer loop
vertex 113.94857953032567 43.695902846868925 0.0
vertex 114.62354211920297 51.44473666258701 0.0
vertex 115.00752277937808 42.72630153457728 0.0
endloop
endfacet
facet normal 0.0 0.0 -1.0
outer loop
vertex 115.00752277937808 42.72630153457728 0.0
vertex 114.62354211920297 51.44473666258701 0.0
vertex 115.83417974848673 52.21664600964372 0.0
endloop
endfacet
facet normal 0.0 0.0 -1.0
outer loop
vertex 115.00752277937808 42.72630153457728 0.0
vertex 115.83417974848673 52.21664600964372 0.0
vertex 116.28133469798973 42.06381326636852 0.0
endloop
endfacet
facet normal 0.0 0.0 -1.0
outer loop
vertex 116.28133469798973 42.06381326636852 0.0
vertex 115.83417974848673 52.21664600964372 0.0
vertex 117.20335074100024 52.64891710834334 0.0
endloop
endfacet
facet normal 0.0 0.0 -1.0
outer loop
vertex 116.28133469798973 42.06381326636852 0.0
vertex 117.20335074100024 52.64891710834334 0.0
vertex 117.683207108981 41.753585522907436 0.0
endloop
endfacet
facet normal 0.0 0.0 -1.0
outer loop
vertex 117.683207108981 41.753585522907436 0.0
vertex 117.20335074100024 52.64891710834334 0.0
vertex 118.6377483562657 52.712091397671216 0.0
endloop
endfacet
facet normal 0.0 0.0 -1.0
outer loop
vertex 117.683207108981 41.753585522907436 0.0
vertex 118.6377483562657 52.712091397671216 0.0
vertex 119.11760472424646 41.81675981223532 0.0
endloop
endfacet
facet normal 0.0 0.0 -1.0
outer loop
vertex 119.11760472424646 41.81675981223532 0.0
vertex 118.6377483562657 52.712091397671216 0.0
vertex 120.03962076725698 52.40186365421014 0.0
endloop
endfacet
facet normal 0.0 0.0 -1.0
outer loop
vertex 119.11760472424646 41.81675981223532 0.0
vertex 120.03962076725698 52.40186365421014 0.0
vertex 120.48677571675998 42.24903091093493 0.0
endloop
endfacet
facet normal 0.0 0.0 -1.0
outer loop
vertex 120.48677571675998 42.24903091093493 0.0
vertex 120.03962076725698 52.40186365421014 0.0
vertex 121.31343268586859 51.73937538600137 0.0
endloop
endfacet
facet normal 0.0 0.0 -1.0
outer loop
vertex 120.48677571675998 42.24903091093493 0.0
vertex 121.31343268586859 51.73937538600137 0.0
vertex 121.69741334604375 43.02094025799164 0.0
endloop
endfacet
facet normal 0.0 0.0 -1.0
outer loop
vertex 121.69741334604375 43.02094025799164 0.0
vertex 121.31343268586859 51.73937538600137 0.0
vertex 122.37237593492102 50.76977407370973 0.0
endloop
endfacet
facet normal 0.0 0.0 -1.0
outer loop
vertex 121.69741334604375 43.02094025799164 0.0
vertex 122.37237593492102 50.76977407370973 0.0
vertex 122.6670146583354 44.07988350704406 0.0
endloop
endfacet
facet normal 0.0 0.0 -1.0
outer loop
vertex 122.6670146583354 44.07988350704406 0.0
vertex 122.37237593492102 50.76977407370973 0.0
vertex 123.14428528197774 49.559136444425945 0.0
endloop
endfacet
facet normal 0.0 0.0 -1.0
outer loop
vertex 122.6670146583354 44.07988350704406 0.0
vertex 123.14428528197774 49.559136444425945 0.0
vertex 123.32950292654417 45.35369542565572 0.0
endloop
endfacet
facet normal 0.0 0.0 -1.0
outer loop
vertex 123.32950292654417 45.35369542565572 0.0
vertex 123.14428528197774 49.559136444425945 0.0
vertex 123.57655638067735 48.18996545191244 0.0
endloop
endfacet
facet normal 0.0 0.0 -1.0
outer loop
vertex 123.32950292654417 45.35369542565572 0.0
vertex 123.57655638067735 48.18996545191244 0.0
vertex 123.63973067000525 46.755567836646975 0.0
endloop
endfacet
facet normal 0.49999999999999406 0.8660254037844423 0.0
outer loop
vertex 115.38080973661012 47.101007643555796 5.59999999999999
vertex 115.7184630734666 46.96114705204932 2.1999999999999895
vertex 115.38080973661012 47.101007643555796 2.1999999999999895
endloop
endfacet
facet normal 0.25881904510252174 0.9659258262890682 0.0
outer loop
vertex 115.7184630734666 46.96114705204932 2.1999999999999895
vertex 115.38080973661012 47.101007643555796 5.59999999999999
vertex 115.7184630734666 46.96114705204932 5.59999999999999
endloop
endfacet
facet normal 0.25881904510252174 0.9659258262890682 0.0
outer loop
vertex 115.7184630734666 46.96114705204932 5.59999999999999
vertex 116.0808097366101 46.91344320885401 2.1999999999999895
vertex 115.7184630734666 46.96114705204932 2.1999999999999895
endloop
endfacet
facet normal 0.0 1.0 0.0
outer loop
vertex 116.0808097366101 46.91344320885401 2.1999999999999895
vertex 115.7184630734666 46.96114705204932 5.59999999999999
vertex 116.0808097366101 46.91344320885401 5.59999999999999
endloop
endfacet
facet normal 0.7071067811865434 0.7071067811865518 0.0
outer loop
vertex 115.09086024294893 47.32349371519284 5.59999999999999
vertex 115.38080973661012 47.101007643555796 2.1999999999999895
vertex 115.09086024294893 47.32349371519284 2.1999999999999895
endloop
endfacet
facet normal 0.49999999999999406 0.8660254037844423 0.0
outer loop
vertex 115.38080973661012 47.101007643555796 2.1999999999999895
vertex 115.09086024294893 47.32349371519284 5.59999999999999
vertex 115.38080973661012 47.101007643555796 5.59999999999999
endloop
endfacet
facet normal -0.7071067811865434 -0.7071067811865518 0.0
outer loop
vertex 117.07075923027129 49.303392702515175 5.59999999999999
vertex 117.29324530190833 49.01344320885401 2.1999999999999895
vertex 117.29324530190833 49.01344320885401 5.59999999999999
endloop
endfacet
facet normal -0.8660254037844413 -0.4999999999999958 0.0
outer loop
vertex 117.29324530190833 49.01344320885401 2.1999999999999895
vertex 117.07075923027129 49.303392702515175 5.59999999999999
vertex 117.07075923027129 49.303392702515175 2.1999999999999895
endloop
endfacet
facet normal 0.25881904510252174 -0.9659258262890682 0.0
outer loop
vertex 115.7184630734666 49.6657393656587 5.59999999999999
vertex 115.38080973661012 49.52587877415222 2.1999999999999895
vertex 115.7184630734666 49.6657393656587 2.1999999999999895
endloop
endfacet
facet normal 0.49999999999999406 -0.8660254037844423 0.0
outer loop
vertex 115.38080973661012 49.52587877415222 2.1999999999999895
vertex 115.7184630734666 49.6657393656587 5.59999999999999
vertex 115.38080973661012 49.52587877415222 5.59999999999999
endloop
endfacet
facet normal -0.25881904510252174 -0.9659258262890682 0.0
outer loop
vertex 116.44315639975363 49.6657393656587 5.59999999999999
vertex 116.0808097366101 49.71344320885401 2.1999999999999895
vertex 116.44315639975363 49.6657393656587 2.1999999999999895
endloop
endfacet
facet normal 0.0 -1.0 0.0
outer loop
vertex 116.0808097366101 49.71344320885401 2.1999999999999895
vertex 116.44315639975363 49.6657393656587 5.59999999999999
vertex 116.0808097366101 49.71344320885401 5.59999999999999
endloop
endfacet
facet normal 0.0 1.0 0.0
outer loop
vertex 116.0808097366101 46.91344320885401 5.59999999999999
vertex 116.44315639975363 46.96114705204932 2.1999999999999895
vertex 116.0808097366101 46.91344320885401 2.1999999999999895
endloop
endfacet
facet normal -0.25881904510252174 0.9659258262890682 0.0
outer loop
vertex 116.44315639975363 46.96114705204932 2.1999999999999895
vertex 116.0808097366101 46.91344320885401 5.59999999999999
vertex 116.44315639975363 46.96114705204932 5.59999999999999
endloop
endfacet
facet normal -0.25881904510252174 0.9659258262890682 0.0
outer loop
vertex 116.44315639975363 46.96114705204932 5.59999999999999
vertex 116.78080973661011 47.101007643555796 2.1999999999999895
vertex 116.44315639975363 46.96114705204932 2.1999999999999895
endloop
endfacet
facet normal -0.49999999999999406 0.8660254037844423 0.0
outer loop
vertex 116.78080973661011 47.101007643555796 2.1999999999999895
vertex 116.44315639975363 46.96114705204932 5.59999999999999
vertex 116.78080973661011 47.101007643555796 5.59999999999999
endloop
endfacet
facet normal -0.8660254037844413 -0.4999999999999958 0.0
outer loop
vertex 117.29324530190833 49.01344320885401 5.59999999999999
vertex 117.43310589341479 48.67578987199754 2.1999999999999895
vertex 117.43310589341479 48.67578987199754 5.59999999999999
endloop
endfacet
facet normal -0.9659258262890693 -0.2588190451025167 0.0
outer loop
vertex 117.43310589341479 48.67578987199754 2.1999999999999895
vertex 117.29324530190833 49.01344320885401 5.59999999999999
vertex 117.29324530190833 49.01344320885401 2.1999999999999895
endloop
endfacet
facet normal -0.8660254037844413 0.4999999999999958 0.0
outer loop
vertex 117.29324530190833 47.61344320885401 5.59999999999999
vertex 117.07075923027129 47.32349371519284 2.1999999999999895
vertex 117.07075923027129 47.32349371519284 5.59999999999999
endloop
endfacet
facet normal -0.7071067811865434 0.7071067811865518 0.0
outer loop
vertex 117.07075923027129 47.32349371519284 2.1999999999999895
vertex 117.29324530190833 47.61344320885401 5.59999999999999
vertex 117.29324530190833 47.61344320885401 2.1999999999999895
endloop
endfacet
facet normal 0.7071067811865434 -0.7071067811865518 0.0
outer loop
vertex 115.09086024294893 49.303392702515175 2.1999999999999895
vertex 114.8683741713119 49.01344320885401 5.59999999999999
vertex 114.8683741713119 49.01344320885401 2.1999999999999895
endloop
endfacet
facet normal 0.8660254037844426 -0.49999999999999317 0.0
outer loop
vertex 114.8683741713119 49.01344320885401 5.59999999999999
vertex 115.09086024294893 49.303392702515175 2.1999999999999895
vertex 115.09086024294893 49.303392702515175 5.59999999999999
endloop
endfacet
facet normal -0.9061468271553446 -0.42296326984302335 0.0
outer loop
vertex 113.17667018326895 44.9065404761527 5.6
vertex 113.94857953032567 43.695902846868925 0.0
vertex 113.94857953032567 43.695902846868925 5.6
endloop
endfacet
facet normal -0.7657996731450327 -0.6430792024400735 0.0
outer loop
vertex 113.94857953032567 43.695902846868925 0.0
vertex 113.17667018326895 44.9065404761527 5.6
vertex 113.17667018326895 44.9065404761527 0.0
endloop
endfacet
facet normal -0.9847415723734553 -0.17402308938602076 0.0
outer loop
vertex 112.74439908456934 46.27571146866621 5.6
vertex 113.17667018326895 44.9065404761527 0.0
vertex 113.17667018326895 44.9065404761527 5.6
endloop
endfacet
facet normal -0.9061468271553446 -0.42296326984302335 0.0
outer loop
vertex 113.17667018326895 44.9065404761527 0.0
vertex 112.74439908456934 46.27571146866621 5.6
vertex 112.74439908456934 46.27571146866621 0.0
endloop
endfacet
facet normal 0.9847415723734545 0.17402308938602537 0.0
outer loop
vertex 123.57655638067735 48.18996545191244 0.0
vertex 123.63973067000525 46.755567836646975 5.6
vertex 123.63973067000525 46.755567836646975 0.0
endloop
endfacet
facet normal 0.9962278067967067 -0.08677647702588297 0.0
outer loop
vertex 123.63973067000525 46.755567836646975 5.6
vertex 123.57655638067735 48.18996545191244 0.0
vertex 123.57655638067735 48.18996545191244 5.6
endloop
endfacet
facet normal 0.17402308938602426 -0.9847415723734547 0.0
outer loop
vertex 119.11760472424646 41.81675981223532 5.6
vertex 117.683207108981 41.753585522907436 0.0
vertex 119.11760472424646 41.81675981223532 0.0
endloop
endfacet
facet normal -0.08677647702588179 -0.9962278067967069 0.0
outer loop
vertex 117.683207108981 41.753585522907436 0.0
vertex 119.11760472424646 41.81675981223532 5.6
vertex 117.683207108981 41.753585522907436 5.6
endloop
endfacet
facet normal -0.6430792024400723 0.7657996731450339 0.0
outer loop
vertex 114.62354211920297 51.44473666258701 5.6
vertex 115.83417974848673 52.21664600964372 0.0
vertex 114.62354211920297 51.44473666258701 0.0
endloop
endfacet
facet normal -0.42296326984302246 0.906146827155345 0.0
outer loop
vertex 115.83417974848673 52.21664600964372 0.0
vertex 114.62354211920297 51.44473666258701 5.6
vertex 115.83417974848673 52.21664600964372 5.6
endloop
endfacet
facet normal 0.9061468271553463 0.42296326984301946 0.0
outer loop
vertex 123.14428528197774 49.559136444425945 0.0
vertex 123.57655638067735 48.18996545191244 5.6
vertex 123.57655638067735 48.18996545191244 0.0
endloop
endfacet
facet normal 0.9847415723734545 0.17402308938602537 0.0
outer loop
vertex 123.57655638067735 48.18996545191244 5.6
vertex 123.14428528197774 49.559136444425945 0.0
vertex 123.14428528197774 49.559136444425945 5.6
endloop
endfacet
endsolid robot
