solid candy
facet normal 6.188780657438578e-32 -1.0 -3.7599553100638154e-15
outer loop
vertex 59.67652555886018 39.45934199557431 5.880783307156098e-15
vertex 27.676525558860188 39.459341995574306 1.5000000000000278
vertex 27.676525558860188 39.45934199557431 2.203098814490545e-15
endloop
endfacet
facet normal 6.188780657438578e-32 -1.0 -3.7599553100638154e-15
outer loop
vertex 27.676525558860188 39.459341995574306 1.5000000000000278
vertex 59.67652555886018 39.45934199557431 5.880783307156098e-15
vertex 49.67652555886019 39.459341995574306 1.500000000000017
endloop
endfacet
facet normal 6.188780657438578e-32 -1.0 -3.7599553100638154e-15
outer loop
vertex 59.67652555886018 39.45934199557431 5.880783307156098e-15
vertex 52.148661513859764 39.459341995574306 1.500000000000017
vertex 49.67652555886019 39.459341995574306 1.500000000000017
endloop
endfacet
facet normal 6.188780657438578e-32 -1.0 -3.7599553100638154e-15
outer loop
vertex 52.148661513859764 39.459341995574306 1.500000000000017
vertex 59.67652555886018 39.45934199557431 5.880783307156098e-15
vertex 59.67652555886018 39.459341995574306 1.5000000000000306
endloop
endfacet
facet normal 6.188780657438578e-32 -1.0 -3.7599553100638154e-15
outer loop
vertex 52.148661513859764 39.459341995574306 1.500000000000017
vertex 49.676525558860185 39.459341995574306 3.500000000000017
vertex 49.67652555886019 39.459341995574306 1.500000000000017
endloop
endfacet
facet normal 6.188780657438578e-32 -1.0 -3.7599553100638154e-15
outer loop
vertex 49.676525558860185 39.459341995574306 3.500000000000017
vertex 52.148661513859764 39.459341995574306 1.500000000000017
vertex 52.148661513859764 39.459341995574306 3.500000000000017
endloop
endfacet
facet normal 3.713268394463129e-32 1.0 3.759955310063808e-15
outer loop
vertex 27.676525558860188 43.459341995574306 1.5000000000000264
vertex 59.67652555886018 43.459341995574306 1.6177776612473785e-15
vertex 27.676525558860188 43.459341995574306 1.1456113835350822e-15
endloop
endfacet
facet normal 3.713268394463129e-32 1.0 3.759955310063808e-15
outer loop
vertex 59.67652555886018 43.459341995574306 1.6177776612473785e-15
vertex 27.676525558860188 43.459341995574306 1.5000000000000264
vertex 49.67652555886019 43.459341995574306 1.5000000000000169
endloop
endfacet
facet normal 3.713268394463129e-32 1.0 3.759955310063808e-15
outer loop
vertex 49.676525558860185 43.459341995574306 3.500000000000017
vertex 52.148661513859764 43.459341995574306 1.5000000000000264
vertex 49.67652555886019 43.459341995574306 1.5000000000000169
endloop
endfacet
facet normal 3.713268394463129e-32 1.0 3.759955310063808e-15
outer loop
vertex 52.148661513859764 43.459341995574306 1.5000000000000264
vertex 49.676525558860185 43.459341995574306 3.500000000000017
vertex 52.148661513859764 43.459341995574306 3.500000000000026
endloop
endfacet
facet normal 3.713268394463129e-32 1.0 3.759955310063808e-15
outer loop
vertex 49.67652555886019 43.459341995574306 1.5000000000000169
vertex 59.67652555886018 43.459341995574306 1.5000000000000264
vertex 59.67652555886018 43.459341995574306 1.6177776612473785e-15
endloop
endfacet
facet normal 3.713268394463129e-32 1.0 3.759955310063808e-15
outer loop
vertex 59.67652555886018 43.459341995574306 1.5000000000000264
vertex 49.67652555886019 43.459341995574306 1.5000000000000169
vertex 52.148661513859764 43.459341995574306 1.5000000000000264
endloop
endfacet
facet normal 1.0 6.910483306171651e-32 6.48414182871539e-17
outer loop
vertex 59.67652555886018 39.45934199557431 5.880783307156098e-15
vertex 59.67652555886018 43.459341995574306 1.5000000000000264
vertex 59.67652555886018 39.459341995574306 1.5000000000000306
endloop
endfacet
facet normal 1.0 6.910483306171651e-32 6.48414182871539e-17
outer loop
vertex 59.67652555886018 43.459341995574306 1.5000000000000264
vertex 59.67652555886018 39.45934199557431 5.880783307156098e-15
vertex 59.67652555886018 43.459341995574306 1.6177776612473785e-15
endloop
endfacet
facet normal -1.0 0.0 0.0
outer loop
vertex 3.6765255588601984 53.45934199557431 1.5
vertex 3.6765255588601984 45.45934199557431 0.0
vertex 3.6765255588601984 45.45934199557431 1.5
endloop
endfacet
facet normal -1.0 0.0 0.0
outer loop
vertex 3.6765255588601984 45.45934199557431 0.0
vertex 3.6765255588601984 53.45934199557431 1.5
vertex 3.6765255588601984 53.45934199557431 0.0
endloop
endfacet
facet normal 6.715061010289258e-17 3.4429373051187427e-17 -1.0
outer loop
vertex 27.676525558860188 53.45934199557431 1.233735336114705e-15
vertex 15.676525558860197 49.45934199557431 2.8199664825478975e-15
vertex 15.676525558860197 53.45934199557431 2.8199664825478975e-15
endloop
endfacet
facet normal 6.715061010289258e-17 3.4429373051187427e-17 -1.0
outer loop
vertex 15.676525558860197 49.45934199557431 2.8199664825478975e-15
vertex 27.676525558860188 53.45934199557431 1.233735336114705e-15
vertex 19.67652555886019 49.45934199557431 2.114974861910923e-15
endloop
endfacet
facet normal 6.715061010289258e-17 3.4429373051187427e-17 -1.0
outer loop
vertex 15.676525558860197 49.45934199557431 2.8199664825478975e-15
vertex 19.67652555886019 49.45934199557431 2.114974861910923e-15
vertex 15.676525558860197 33.45934199557431 2.8199664825478975e-15
endloop
endfacet
facet normal 6.715061010289258e-17 3.4429373051187427e-17 -1.0
outer loop
vertex 15.676525558860197 33.45934199557431 2.8199664825478975e-15
vertex 19.67652555886019 49.45934199557431 2.114974861910923e-15
vertex 15.676525558860197 29.459341995574317 1.762479051592436e-16
endloop
endfacet
facet normal 6.715061010289258e-17 3.4429373051187427e-17 -1.0
outer loop
vertex 19.67652555886019 49.45934199557431 2.114974861910923e-15
vertex 27.676525558860188 53.45934199557431 1.233735336114705e-15
vertex 23.67652555886019 49.45934199557431 2.114974861910923e-15
endloop
endfacet
facet normal 6.715061010289258e-17 3.4429373051187427e-17 -1.0
outer loop
vertex 23.67652555886019 49.45934199557431 2.114974861910923e-15
vertex 27.676525558860188 53.45934199557431 1.233735336114705e-15
vertex 23.67652555886019 45.45934199557431 2.114974861910923e-15
endloop
endfacet
facet normal 6.715061010289258e-17 3.4429373051187427e-17 -1.0
outer loop
vertex 23.67652555886019 45.45934199557431 2.114974861910923e-15
vertex 27.676525558860188 53.45934199557431 1.233735336114705e-15
vertex 23.67652555886019 37.45934199557431 -5.287437154777307e-16
endloop
endfacet
facet normal 6.715061010289258e-17 3.4429373051187427e-17 -1.0
outer loop
vertex 23.67652555886019 37.45934199557431 -5.287437154777307e-16
vertex 27.676525558860188 53.45934199557431 1.233735336114705e-15
vertex 23.67652555886019 33.45934199557431 -5.287437154777307e-16
endloop
endfacet
facet normal 6.715061010289258e-17 3.4429373051187427e-17 -1.0
outer loop
vertex 59.67652555886018 43.459341995574306 1.6177776612473785e-15
vertex 27.676525558860188 39.45934199557431 2.203098814490545e-15
vertex 27.676525558860188 43.459341995574306 1.1456113835350822e-15
endloop
endfacet
facet normal 6.715061010289258e-17 3.4429373051187427e-17 -1.0
outer loop
vertex 27.676525558860188 39.45934199557431 2.203098814490545e-15
vertex 59.67652555886018 43.459341995574306 1.6177776612473785e-15
vertex 59.67652555886018 39.45934199557431 5.880783307156098e-15
endloop
endfacet
facet normal 6.715061010289258e-17 3.4429373051187427e-17 -1.0
outer loop
vertex 15.676525558860197 29.459341995574317 1.762479051592436e-16
vertex 19.67652555886019 33.45934199557431 -5.287437154777307e-16
vertex 27.676525558860188 29.459341995574317 2.8199664825478975e-15
endloop
endfacet
facet normal 6.715061010289258e-17 3.4429373051187427e-17 -1.0
outer loop
vertex 19.67652555886019 33.45934199557431 -5.287437154777307e-16
vertex 15.676525558860197 29.459341995574317 1.762479051592436e-16
vertex 19.67652555886019 49.45934199557431 2.114974861910923e-15
endloop
endfacet
facet normal 6.715061010289258e-17 3.4429373051187427e-17 -1.0
outer loop
vertex 19.67652555886019 33.45934199557431 -5.287437154777307e-16
vertex 19.67652555886019 49.45934199557431 2.114974861910923e-15
vertex 19.67652555886019 45.45934199557431 2.114974861910923e-15
endloop
endfacet
facet normal 6.715061010289258e-17 3.4429373051187427e-17 -1.0
outer loop
vertex 19.67652555886019 33.45934199557431 -5.287437154777307e-16
vertex 19.67652555886019 45.45934199557431 2.114974861910923e-15
vertex 19.67652555886019 37.45934199557431 -5.287437154777307e-16
endloop
endfacet
facet normal 6.715061010289258e-17 3.4429373051187427e-17 -1.0
outer loop
vertex 27.676525558860188 29.459341995574317 2.8199664825478975e-15
vertex 19.67652555886019 33.45934199557431 -5.287437154777307e-16
vertex 23.67652555886019 33.45934199557431 -5.287437154777307e-16
endloop
endfacet
facet normal 6.715061010289258e-17 3.4429373051187427e-17 -1.0
outer loop
vertex 27.676525558860188 29.459341995574317 2.8199664825478975e-15
vertex 23.67652555886019 33.45934199557431 -5.287437154777307e-16
vertex 27.676525558860188 53.45934199557431 1.233735336114705e-15
endloop
endfacet
facet normal 6.715061010289258e-17 3.4429373051187427e-17 -1.0
outer loop
vertex 27.676525558860188 29.459341995574317 2.8199664825478975e-15
vertex 27.676525558860188 53.45934199557431 1.233735336114705e-15
vertex 27.676525558860188 43.459341995574306 1.1456113835350822e-15
endloop
endfacet
facet normal 6.715061010289258e-17 3.4429373051187427e-17 -1.0
outer loop
vertex 27.676525558860188 29.459341995574317 2.8199664825478975e-15
vertex 27.676525558860188 43.459341995574306 1.1456113835350822e-15
vertex 27.676525558860188 39.45934199557431 2.203098814490545e-15
endloop
endfacet
facet normal 6.715061010289258e-17 3.4429373051187427e-17 -1.0
outer loop
vertex 23.67652555886019 45.45934199557431 2.114974861910923e-15
vertex 19.67652555886019 37.45934199557431 -5.287437154777307e-16
vertex 19.67652555886019 45.45934199557431 2.114974861910923e-15
endloop
endfacet
facet normal 6.715061010289258e-17 3.4429373051187427e-17 -1.0
outer loop
vertex 19.67652555886019 37.45934199557431 -5.287437154777307e-16
vertex 23.67652555886019 45.45934199557431 2.114974861910923e-15
vertex 23.67652555886019 37.45934199557431 -5.287437154777307e-16
endloop
endfacet
facet normal 6.715061010289258e-17 3.4429373051187427e-17 -1.0
outer loop
vertex 7.676525558860198 53.45934199557431 2.8199664825478975e-15
vertex 3.6765255588601984 45.45934199557431 0.0
vertex 3.6765255588601984 53.45934199557431 0.0
endloop
endfacet
facet normal 6.715061010289258e-17 3.4429373051187427e-17 -1.0
outer loop
vertex 3.6765255588601984 45.45934199557431 0.0
vertex 7.676525558860198 53.45934199557431 2.8199664825478975e-15
vertex 7.676525558860198 49.45934199557431 2.8199664825478975e-15
endloop
endfacet
facet normal 6.715061010289258e-17 3.4429373051187427e-17 -1.0
outer loop
vertex 3.6765255588601984 45.45934199557431 0.0
vertex 7.676525558860198 49.45934199557431 2.8199664825478975e-15
vertex 11.676525558860197 45.45934199557431 0.0
endloop
endfacet
facet normal 6.715061010289258e-17 3.4429373051187427e-17 -1.0
outer loop
vertex 11.676525558860197 45.45934199557431 0.0
vertex 7.676525558860198 49.45934199557431 2.8199664825478975e-15
vertex 15.676525558860197 49.45934199557431 2.8199664825478975e-15
endloop
endfacet
facet normal 6.715061010289258e-17 3.4429373051187427e-17 -1.0
outer loop
vertex 7.676525558860198 41.459341995574306 0.0
vertex 3.6765255588601984 33.45934199557431 0.0
vertex 3.6765255588601984 41.459341995574306 0.0
endloop
endfacet
facet normal 6.715061010289258e-17 3.4429373051187427e-17 -1.0
outer loop
vertex 3.6765255588601984 33.45934199557431 0.0
vertex 7.676525558860198 41.459341995574306 0.0
vertex 7.676525558860198 37.45934199557431 1.762479051592436e-16
endloop
endfacet
facet normal 6.715061010289258e-17 3.4429373051187427e-17 -1.0
outer loop
vertex 3.6765255588601984 33.45934199557431 0.0
vertex 7.676525558860198 37.45934199557431 1.762479051592436e-16
vertex 15.676525558860197 33.45934199557431 2.8199664825478975e-15
endloop
endfacet
facet normal 6.715061010289258e-17 3.4429373051187427e-17 -1.0
outer loop
vertex 15.676525558860197 33.45934199557431 2.8199664825478975e-15
vertex 7.676525558860198 37.45934199557431 1.762479051592436e-16
vertex 11.676525558860193 37.45934199557431 1.762479051592436e-16
endloop
endfacet
facet normal 6.715061010289258e-17 3.4429373051187427e-17 -1.0
outer loop
vertex 15.676525558860197 33.45934199557431 2.8199664825478975e-15
vertex 11.676525558860193 37.45934199557431 1.762479051592436e-16
vertex 11.676525558860197 45.45934199557431 0.0
endloop
endfacet
facet normal 6.715061010289258e-17 3.4429373051187427e-17 -1.0
outer loop
vertex 15.676525558860197 33.45934199557431 2.8199664825478975e-15
vertex 11.676525558860197 45.45934199557431 0.0
vertex 15.676525558860197 49.45934199557431 2.8199664825478975e-15
endloop
endfacet
facet normal -1.0 0.0 0.0
outer loop
vertex 3.6765255588601984 41.459341995574306 1.5
vertex 3.6765255588601984 33.45934199557431 0.0
vertex 3.6765255588601984 33.45934199557431 1.5
endloop
endfacet
facet normal -1.0 0.0 0.0
outer loop
vertex 3.6765255588601984 33.45934199557431 0.0
vertex 3.6765255588601984 41.459341995574306 1.5
vertex 3.6765255588601984 41.459341995574306 0.0
endloop
endfacet
facet normal 0.0 -1.0 0.0
outer loop
vertex 15.676525558860197 33.45934199557431 2.8199664825478975e-15
vertex 3.6765255588601984 33.45934199557431 1.5
vertex 3.6765255588601984 33.45934199557431 0.0
endloop
endfacet
facet normal 0.0 -1.0 0.0
outer loop
vertex 3.6765255588601984 33.45934199557431 1.5
vertex 15.676525558860197 33.45934199557431 2.8199664825478975e-15
vertex 15.676525558860197 33.45934199557431 1.5
endloop
endfacet
facet normal 0.0 -1.0 0.0
outer loop
vertex 27.676525558860188 29.459341995574317 2.8199664825478975e-15
vertex 15.676525558860197 29.459341995574317 1.5
vertex 15.676525558860197 29.459341995574317 1.762479051592436e-16
endloop
endfacet
facet normal 0.0 -1.0 0.0
outer loop
vertex 15.676525558860197 29.459341995574317 1.5
vertex 27.676525558860188 29.459341995574317 2.8199664825478975e-15
vertex 27.676525558860188 29.459341995574317 1.5
endloop
endfacet
facet normal 1.0 0.0 0.0
outer loop
vertex 27.676525558860188 39.45934199557431 2.203098814490545e-15
vertex 27.676525558860188 29.459341995574317 1.5
vertex 27.676525558860188 29.459341995574317 2.8199664825478975e-15
endloop
endfacet
facet normal 1.0 0.0 0.0
outer loop
vertex 27.676525558860188 29.459341995574317 1.5
vertex 27.676525558860188 39.45934199557431 2.203098814490545e-15
vertex 27.676525558860188 39.459341995574306 1.5000000000000278
endloop
endfacet
facet normal 1.0 0.0 0.0
outer loop
vertex 27.676525558860188 43.459341995574306 1.1456113835350822e-15
vertex 27.676525558860188 53.45934199557431 1.5
vertex 27.676525558860188 43.459341995574306 1.5000000000000264
endloop
endfacet
facet normal 1.0 0.0 0.0
outer loop
vertex 27.676525558860188 53.45934199557431 1.5
vertex 27.676525558860188 43.459341995574306 1.1456113835350822e-15
vertex 27.676525558860188 53.45934199557431 1.233735336114705e-15
endloop
endfacet
facet normal 0.0 1.0 0.0
outer loop
vertex 15.676525558860197 53.45934199557431 2.8199664825478975e-15
vertex 27.676525558860188 53.45934199557431 1.5
vertex 27.676525558860188 53.45934199557431 1.233735336114705e-15
endloop
endfacet
facet normal 0.0 1.0 0.0
outer loop
vertex 27.676525558860188 53.45934199557431 1.5
vertex 15.676525558860197 53.45934199557431 2.8199664825478975e-15
vertex 15.676525558860197 53.45934199557431 1.5
endloop
endfacet
facet normal 0.0 1.0 0.0
outer loop
vertex 3.6765255588601984 53.45934199557431 1.5
vertex 7.676525558860198 53.45934199557431 2.8199664825478975e-15
vertex 3.6765255588601984 53.45934199557431 0.0
endloop
endfacet
facet normal 0.0 1.0 0.0
outer loop
vertex 7.676525558860198 53.45934199557431 2.8199664825478975e-15
vertex 3.6765255588601984 53.45934199557431 1.5
vertex 7.676525558860198 53.45934199557431 1.5
endloop
endfacet
facet normal 1.0 0.0 0.0
outer loop
vertex 7.676525558860198 53.45934199557431 2.8199664825478975e-15
vertex 7.676525558860198 49.45934199557431 1.5
vertex 7.676525558860198 49.45934199557431 2.8199664825478975e-15
endloop
endfacet
facet normal 1.0 0.0 0.0
outer loop
vertex 7.676525558860198 49.45934199557431 1.5
vertex 7.676525558860198 53.45934199557431 2.8199664825478975e-15
vertex 7.676525558860198 53.45934199557431 1.5
endloop
endfacet
facet normal 0.0 1.0 0.0
outer loop
vertex 7.676525558860198 49.45934199557431 1.5
vertex 15.676525558860197 49.45934199557431 2.8199664825478975e-15
vertex 7.676525558860198 49.45934199557431 2.8199664825478975e-15
endloop
endfacet
facet normal 0.0 1.0 0.0
outer loop
vertex 15.676525558860197 49.45934199557431 2.8199664825478975e-15
vertex 7.676525558860198 49.45934199557431 1.5
vertex 15.676525558860197 49.45934199557431 1.5
endloop
endfacet
facet normal 0.0 1.0 0.0
outer loop
vertex 3.6765255588601984 41.459341995574306 1.5
vertex 7.676525558860198 41.459341995574306 0.0
vertex 3.6765255588601984 41.459341995574306 0.0
endloop
endfacet
facet normal 0.0 1.0 0.0
outer loop
vertex 7.676525558860198 41.459341995574306 0.0
vertex 3.6765255588601984 41.459341995574306 1.5
vertex 7.676525558860198 41.459341995574306 1.5
endloop
endfacet
facet normal 0.0 -1.0 0.0
outer loop
vertex 11.676525558860197 45.45934199557431 1.5
vertex 3.6765255588601984 45.45934199557431 0.0
vertex 11.676525558860197 45.45934199557431 0.0
endloop
endfacet
facet normal 0.0 -1.0 0.0
outer loop
vertex 3.6765255588601984 45.45934199557431 0.0
vertex 11.676525558860197 45.45934199557431 1.5
vertex 3.6765255588601984 45.45934199557431 1.5
endloop
endfacet
facet normal -1.0 3.524958103184871e-16 -8.881809697915844e-32
outer loop
vertex 11.676525558860197 45.45934199557431 1.5
vertex 11.676525558860193 37.45934199557431 1.762479051592436e-16
vertex 11.676525558860193 37.45934199557431 1.5
endloop
endfacet
facet normal -1.0 3.524958103184871e-16 -8.881809697915844e-32
outer loop
vertex 11.676525558860193 37.45934199557431 1.762479051592436e-16
vertex 11.676525558860197 45.45934199557431 1.5
vertex 11.676525558860197 45.45934199557431 0.0
endloop
endfacet
facet normal 1.0 3.5249581031848777e-16 3.2443916254045067e-32
outer loop
vertex 7.676525558860198 41.459341995574306 0.0
vertex 7.676525558860198 37.45934199557431 1.5
vertex 7.676525558860198 37.45934199557431 1.762479051592436e-16
endloop
endfacet
facet normal 1.0 3.5249581031848777e-16 3.2443916254045067e-32
outer loop
vertex 7.676525558860198 37.45934199557431 1.5
vertex 7.676525558860198 41.459341995574306 0.0
vertex 7.676525558860198 41.459341995574306 1.5
endloop
endfacet
facet normal 0.0 1.0 0.0
outer loop
vertex 7.676525558860198 37.45934199557431 1.5
vertex 11.676525558860193 37.45934199557431 1.762479051592436e-16
vertex 7.676525558860198 37.45934199557431 1.762479051592436e-16
endloop
endfacet
facet normal 0.0 1.0 0.0
outer loop
vertex 11.676525558860193 37.45934199557431 1.762479051592436e-16
vertex 7.676525558860198 37.45934199557431 1.5
vertex 11.676525558860193 37.45934199557431 1.5
endloop
endfacet
facet normal -1.0 0.0 0.0
outer loop
vertex 15.676525558860197 53.45934199557431 1.5
vertex 15.676525558860197 49.45934199557431 2.8199664825478975e-15
vertex 15.676525558860197 49.45934199557431 1.5
endloop
endfacet
facet normal -1.0 0.0 0.0
outer loop
vertex 15.676525558860197 49.45934199557431 2.8199664825478975e-15
vertex 15.676525558860197 53.45934199557431 1.5
vertex 15.676525558860197 53.45934199557431 2.8199664825478975e-15
endloop
endfacet
facet normal -1.0 0.0 0.0
outer loop
vertex 15.676525558860197 33.45934199557431 1.5
vertex 15.676525558860197 29.459341995574317 1.762479051592436e-16
vertex 15.676525558860197 29.459341995574317 1.5
endloop
endfacet
facet normal -1.0 0.0 0.0
outer loop
vertex 15.676525558860197 29.459341995574317 1.762479051592436e-16
vertex 15.676525558860197 33.45934199557431 1.5
vertex 15.676525558860197 33.45934199557431 2.8199664825478975e-15
endloop
endfacet
facet normal 0.0 1.0 0.0
outer loop
vertex 19.67652555886019 33.45934199557431 1.5
vertex 23.67652555886019 33.45934199557431 -5.287437154777307e-16
vertex 19.67652555886019 33.45934199557431 -5.287437154777307e-16
endloop
endfacet
facet normal 0.0 1.0 0.0
outer loop
vertex 23.67652555886019 33.45934199557431 -5.287437154777307e-16
vertex 19.67652555886019 33.45934199557431 1.5
vertex 23.67652555886019 33.45934199557431 1.5
endloop
endfacet
facet normal -1.0 0.0 0.0
outer loop
vertex 23.67652555886019 37.45934199557431 1.5
vertex 23.67652555886019 33.45934199557431 -5.287437154777307e-16
vertex 23.67652555886019 33.45934199557431 1.5
endloop
endfacet
facet normal -1.0 0.0 0.0
outer loop
vertex 23.67652555886019 33.45934199557431 -5.287437154777307e-16
vertex 23.67652555886019 37.45934199557431 1.5
vertex 23.67652555886019 37.45934199557431 -5.287437154777307e-16
endloop
endfacet
facet normal 0.0 -1.0 0.0
outer loop
vertex 23.67652555886019 37.45934199557431 1.5
vertex 19.67652555886019 37.45934199557431 -5.287437154777307e-16
vertex 23.67652555886019 37.45934199557431 -5.287437154777307e-16
endloop
endfacet
facet normal 0.0 -1.0 0.0
outer loop
vertex 19.67652555886019 37.45934199557431 -5.287437154777307e-16
vertex 23.67652555886019 37.45934199557431 1.5
vertex 19.67652555886019 37.45934199557431 1.5
endloop
endfacet
facet normal 1.0 0.0 0.0
outer loop
vertex 19.67652555886019 37.45934199557431 -5.287437154777307e-16
vertex 19.67652555886019 33.45934199557431 1.5
vertex 19.67652555886019 33.45934199557431 -5.287437154777307e-16
endloop
endfacet
facet normal 1.0 0.0 0.0
outer loop
vertex 19.67652555886019 33.45934199557431 1.5
vertex 19.67652555886019 37.45934199557431 -5.287437154777307e-16
vertex 19.67652555886019 37.45934199557431 1.5
endloop
endfacet
facet normal 0.0 1.0 0.0
outer loop
vertex 19.67652555886019 45.45934199557431 1.5
vertex 23.67652555886019 45.45934199557431 2.114974861910923e-15
vertex 19.67652555886019 45.45934199557431 2.114974861910923e-15
endloop
endfacet
facet normal 0.0 1.0 0.0
outer loop
vertex 23.67652555886019 45.45934199557431 2.114974861910923e-15
vertex 19.67652555886019 45.45934199557431 1.5
vertex 23.67652555886019 45.45934199557431 1.5
endloop
endfacet
facet normal -1.0 0.0 0.0
outer loop
vertex 23.67652555886019 49.45934199557431 1.5
vertex 23.67652555886019 45.45934199557431 2.114974861910923e-15
vertex 23.67652555886019 45.45934199557431 1.5
endloop
endfacet
facet normal -1.0 0.0 0.0
outer loop
vertex 23.67652555886019 45.45934199557431 2.114974861910923e-15
vertex 23.67652555886019 49.45934199557431 1.5
vertex 23.67652555886019 49.45934199557431 2.114974861910923e-15
endloop
endfacet
facet normal 0.0 -1.0 0.0
outer loop
vertex 23.67652555886019 49.45934199557431 1.5
vertex 19.67652555886019 49.45934199557431 2.114974861910923e-15
vertex 23.67652555886019 49.45934199557431 2.114974861910923e-15
endloop
endfacet
facet normal 0.0 -1.0 0.0
outer loop
vertex 19.67652555886019 49.45934199557431 2.114974861910923e-15
vertex 23.67652555886019 49.45934199557431 1.5
vertex 19.67652555886019 49.45934199557431 1.5
endloop
endfacet
facet normal 1.0 0.0 0.0
outer loop
vertex 19.67652555886019 49.45934199557431 2.114974861910923e-15
vertex 19.67652555886019 45.45934199557431 1.5
vertex 19.67652555886019 45.45934199557431 2.114974861910923e-15
endloop
endfacet
facet normal 1.0 0.0 0.0
outer loop
vertex 19.67652555886019 45.45934199557431 1.5
vertex 19.67652555886019 49.45934199557431 2.114974861910923e-15
vertex 19.67652555886019 49.45934199557431 1.5
endloop
endfacet
facet normal -8.896840267059959e-16 -6.168676680573529e-16 1.0
outer loop
vertex 59.67652555886018 39.459341995574306 1.5000000000000306
vertex 52.148661513859764 43.459341995574306 1.5000000000000264
vertex 52.148661513859764 39.459341995574306 1.500000000000017
endloop
endfacet
facet normal -8.896840267059959e-16 -6.168676680573529e-16 1.0
outer loop
vertex 52.148661513859764 43.459341995574306 1.5000000000000264
vertex 59.67652555886018 39.459341995574306 1.5000000000000306
vertex 59.67652555886018 43.459341995574306 1.5000000000000264
endloop
endfacet
facet normal -4.50005967348789e-16 -6.518804866127354e-18 1.0
outer loop
vertex 27.676525558860188 29.459341995574317 1.5
vertex 15.676525558860197 33.45934199557431 1.5
vertex 15.676525558860197 29.459341995574317 1.5
endloop
endfacet
facet normal -4.50005967348789e-16 -6.518804866127354e-18 1.0
outer loop
vertex 15.676525558860197 33.45934199557431 1.5
vertex 27.676525558860188 29.459341995574317 1.5
vertex 19.67652555886019 33.45934199557431 1.5
endloop
endfacet
facet normal -4.50005967348789e-16 -6.518804866127354e-18 1.0
outer loop
vertex 15.676525558860197 33.45934199557431 1.5
vertex 19.67652555886019 33.45934199557431 1.5
vertex 15.676525558860197 49.45934199557431 1.5
endloop
endfacet
facet normal -4.50005967348789e-16 -6.518804866127354e-18 1.0
outer loop
vertex 15.676525558860197 49.45934199557431 1.5
vertex 19.67652555886019 33.45934199557431 1.5
vertex 15.676525558860197 53.45934199557431 1.5
endloop
endfacet
facet normal -4.50005967348789e-16 -6.518804866127354e-18 1.0
outer loop
vertex 19.67652555886019 33.45934199557431 1.5
vertex 27.676525558860188 29.459341995574317 1.5
vertex 23.67652555886019 33.45934199557431 1.5
endloop
endfacet
facet normal -4.50005967348789e-16 -6.518804866127354e-18 1.0
outer loop
vertex 23.67652555886019 33.45934199557431 1.5
vertex 27.676525558860188 29.459341995574317 1.5
vertex 23.67652555886019 37.45934199557431 1.5
endloop
endfacet
facet normal -4.50005967348789e-16 -6.518804866127354e-18 1.0
outer loop
vertex 23.67652555886019 37.45934199557431 1.5
vertex 27.676525558860188 29.459341995574317 1.5
vertex 23.67652555886019 45.45934199557431 1.5
endloop
endfacet
facet normal -4.50005967348789e-16 -6.518804866127354e-18 1.0
outer loop
vertex 23.67652555886019 45.45934199557431 1.5
vertex 27.676525558860188 29.459341995574317 1.5
vertex 23.67652555886019 49.45934199557431 1.5
endloop
endfacet
facet normal -4.50005967348789e-16 -6.518804866127354e-18 1.0
outer loop
vertex 49.67652555886019 39.459341995574306 1.500000000000017
vertex 27.676525558860188 43.459341995574306 1.5000000000000264
vertex 27.676525558860188 39.459341995574306 1.5000000000000278
endloop
endfacet
facet normal -4.50005967348789e-16 -6.518804866127354e-18 1.0
outer loop
vertex 27.676525558860188 43.459341995574306 1.5000000000000264
vertex 49.67652555886019 39.459341995574306 1.500000000000017
vertex 49.67652555886019 43.459341995574306 1.5000000000000169
endloop
endfacet
facet normal -4.50005967348789e-16 -6.518804866127354e-18 1.0
outer loop
vertex 15.676525558860197 53.45934199557431 1.5
vertex 19.67652555886019 49.45934199557431 1.5
vertex 27.676525558860188 53.45934199557431 1.5
endloop
endfacet
facet normal -4.50005967348789e-16 -6.518804866127354e-18 1.0
outer loop
vertex 19.67652555886019 49.45934199557431 1.5
vertex 15.676525558860197 53.45934199557431 1.5
vertex 19.67652555886019 33.45934199557431 1.5
endloop
endfacet
facet normal -4.50005967348789e-16 -6.518804866127354e-18 1.0
outer loop
vertex 19.67652555886019 49.45934199557431 1.5
vertex 19.67652555886019 33.45934199557431 1.5
vertex 19.67652555886019 37.45934199557431 1.5
endloop
endfacet
facet normal -4.50005967348789e-16 -6.518804866127354e-18 1.0
outer loop
vertex 19.67652555886019 49.45934199557431 1.5
vertex 19.67652555886019 37.45934199557431 1.5
vertex 19.67652555886019 45.45934199557431 1.5
endloop
endfacet
facet normal -4.50005967348789e-16 -6.518804866127354e-18 1.0
outer loop
vertex 27.676525558860188 53.45934199557431 1.5
vertex 19.67652555886019 49.45934199557431 1.5
vertex 23.67652555886019 49.45934199557431 1.5
endloop
endfacet
facet normal -4.50005967348789e-16 -6.518804866127354e-18 1.0
outer loop
vertex 27.676525558860188 53.45934199557431 1.5
vertex 23.67652555886019 49.45934199557431 1.5
vertex 27.676525558860188 29.459341995574317 1.5
endloop
endfacet
facet normal -4.50005967348789e-16 -6.518804866127354e-18 1.0
outer loop
vertex 27.676525558860188 53.45934199557431 1.5
vertex 27.676525558860188 29.459341995574317 1.5
vertex 27.676525558860188 39.459341995574306 1.5000000000000278
endloop
endfacet
facet normal -4.50005967348789e-16 -6.518804866127354e-18 1.0
outer loop
vertex 27.676525558860188 53.45934199557431 1.5
vertex 27.676525558860188 39.459341995574306 1.5000000000000278
vertex 27.676525558860188 43.459341995574306 1.5000000000000264
endloop
endfacet
facet normal -4.50005967348789e-16 -6.518804866127354e-18 1.0
outer loop
vertex 23.67652555886019 37.45934199557431 1.5
vertex 19.67652555886019 45.45934199557431 1.5
vertex 19.67652555886019 37.45934199557431 1.5
endloop
endfacet
facet normal -4.50005967348789e-16 -6.518804866127354e-18 1.0
outer loop
vertex 19.67652555886019 45.45934199557431 1.5
vertex 23.67652555886019 37.45934199557431 1.5
vertex 23.67652555886019 45.45934199557431 1.5
endloop
endfacet
facet normal -4.50005967348789e-16 -6.518804866127354e-18 1.0
outer loop
vertex 3.6765255588601984 33.45934199557431 1.5
vertex 7.676525558860198 37.45934199557431 1.5
vertex 3.6765255588601984 41.459341995574306 1.5
endloop
endfacet
facet normal -4.50005967348789e-16 -6.518804866127354e-18 1.0
outer loop
vertex 7.676525558860198 37.45934199557431 1.5
vertex 3.6765255588601984 33.45934199557431 1.5
vertex 15.676525558860197 33.45934199557431 1.5
endloop
endfacet
facet normal -4.50005967348789e-16 -6.518804866127354e-18 1.0
outer loop
vertex 7.676525558860198 37.45934199557431 1.5
vertex 15.676525558860197 33.45934199557431 1.5
vertex 11.676525558860193 37.45934199557431 1.5
endloop
endfacet
facet normal -4.50005967348789e-16 -6.518804866127354e-18 1.0
outer loop
vertex 11.676525558860193 37.45934199557431 1.5
vertex 15.676525558860197 33.45934199557431 1.5
vertex 11.676525558860197 45.45934199557431 1.5
endloop
endfacet
facet normal -4.50005967348789e-16 -6.518804866127354e-18 1.0
outer loop
vertex 11.676525558860197 45.45934199557431 1.5
vertex 3.6765255588601984 53.45934199557431 1.5
vertex 3.6765255588601984 45.45934199557431 1.5
endloop
endfacet
facet normal -4.50005967348789e-16 -6.518804866127354e-18 1.0
outer loop
vertex 3.6765255588601984 53.45934199557431 1.5
vertex 11.676525558860197 45.45934199557431 1.5
vertex 7.676525558860198 49.45934199557431 1.5
endloop
endfacet
facet normal -4.50005967348789e-16 -6.518804866127354e-18 1.0
outer loop
vertex 7.676525558860198 49.45934199557431 1.5
vertex 11.676525558860197 45.45934199557431 1.5
vertex 15.676525558860197 49.45934199557431 1.5
endloop
endfacet
facet normal -4.50005967348789e-16 -6.518804866127354e-18 1.0
outer loop
vertex 15.676525558860197 49.45934199557431 1.5
vertex 11.676525558860197 45.45934199557431 1.5
vertex 15.676525558860197 33.45934199557431 1.5
endloop
endfacet
facet normal -4.50005967348789e-16 -6.518804866127354e-18 1.0
outer loop
vertex 7.676525558860198 53.45934199557431 1.5
vertex 3.6765255588601984 53.45934199557431 1.5
vertex 7.676525558860198 49.45934199557431 1.5
endloop
endfacet
facet normal -4.50005967348789e-16 -6.518804866127354e-18 1.0
outer loop
vertex 7.676525558860198 41.459341995574306 1.5
vertex 3.6765255588601984 41.459341995574306 1.5
vertex 7.676525558860198 37.45934199557431 1.5
endloop
endfacet
facet normal -1.960578819331171e-15 -1.1235803953901782e-15 1.0
outer loop
vertex 52.148661513859764 39.459341995574306 3.500000000000017
vertex 49.676525558860185 43.459341995574306 3.500000000000017
vertex 49.676525558860185 39.459341995574306 3.500000000000017
endloop
endfacet
facet normal -1.960578819331171e-15 -1.1235803953901782e-15 1.0
outer loop
vertex 49.676525558860185 43.459341995574306 3.500000000000017
vertex 52.148661513859764 39.459341995574306 3.500000000000017
vertex 52.148661513859764 43.459341995574306 3.500000000000026
endloop
endfacet
facet normal -1.0 -8.638697745167552e-32 -1.960578819331171e-15
outer loop
vertex 49.676525558860185 43.459341995574306 3.500000000000017
vertex 49.67652555886019 39.459341995574306 1.500000000000017
vertex 49.676525558860185 39.459341995574306 3.500000000000017
endloop
endfacet
facet normal -1.0 -8.638697745167552e-32 -1.960578819331171e-15
outer loop
vertex 49.67652555886019 39.459341995574306 1.500000000000017
vertex 49.676525558860185 43.459341995574306 3.500000000000017
vertex 49.67652555886019 43.459341995574306 1.5000000000000169
endloop
endfacet
facet normal 1.0 -4.492122827487127e-30 1.960578819331171e-15
outer loop
vertex 52.148661513859764 43.459341995574306 1.5000000000000264
vertex 52.148661513859764 39.459341995574306 3.500000000000017
vertex 52.148661513859764 39.459341995574306 1.500000000000017
endloop
endfacet
facet normal 1.0 -4.492122827487127e-30 1.960578819331171e-15
outer loop
vertex 52.148661513859764 39.459341995574306 3.500000000000017
vertex 52.148661513859764 43.459341995574306 1.5000000000000264
vertex 52.148661513859764 43.459341995574306 3.500000000000026
endloop
endfacet
endsolid candy
