solid robot
facet normal 0.0 0.0 1.0
outer loop
vertex 10.620980940318068 81.198506037881 1.9999999999999998
vertex 12.620980940318066 83.198506037881 1.9999999999999998
vertex 10.620980940318068 150.69850603788097 1.9999999999999998
endloop
endfacet
facet normal 0.0 0.0 1.0
outer loop
vertex 12.620980940318066 83.198506037881 1.9999999999999998
vertex 10.620980940318068 81.198506037881 1.9999999999999998
vertex 80.62098094031806 81.198506037881 1.9999999999999998
endloop
endfacet
facet normal 0.0 0.0 1.0
outer loop
vertex 12.620980940318066 83.198506037881 1.9999999999999998
vertex 80.62098094031806 81.198506037881 1.9999999999999998
vertex 78.62098094031806 83.198506037881 1.9999999999999998
endloop
endfacet
facet normal 0.0 0.0 1.0
outer loop
vertex 78.62098094031806 83.198506037881 1.9999999999999998
vertex 80.62098094031806 81.198506037881 1.9999999999999998
vertex 78.62098094031806 148.698506037881 1.9999999999999998
endloop
endfacet
facet normal 0.0 0.0 1.0
outer loop
vertex 10.620980940318068 150.69850603788097 1.9999999999999998
vertex 12.620980940318066 148.698506037881 1.9999999999999998
vertex 80.62098094031806 150.69850603788097 1.9999999999999998
endloop
endfacet
facet normal 0.0 0.0 1.0
outer loop
vertex 12.620980940318066 148.698506037881 1.9999999999999998
vertex 10.620980940318068 150.69850603788097 1.9999999999999998
vertex 12.620980940318066 83.198506037881 1.9999999999999998
endloop
endfacet
facet normal 0.0 0.0 1.0
outer loop
vertex 80.62098094031806 150.69850603788097 1.9999999999999998
vertex 12.620980940318066 148.698506037881 1.9999999999999998
vertex 78.62098094031806 148.698506037881 1.9999999999999998
endloop
endfacet
facet normal 0.0 0.0 1.0
outer loop
vertex 80.62098094031806 150.69850603788097 1.9999999999999998
vertex 78.62098094031806 148.698506037881 1.9999999999999998
vertex 80.62098094031806 81.198506037881 1.9999999999999998
endloop
endfacet
facet normal -0.0 -1.0 -0.0
outer loop
vertex 80.62098094031806 81.198506037881 1.9999999999999998
vertex 10.620980940318068 81.198506037881 0.0
vertex 80.62098094031806 81.198506037881 0.0
endloop
endfacet
facet normal -0.0 -1.0 -0.0
outer loop
vertex 10.620980940318068 81.198506037881 0.0
vertex 80.62098094031806 81.198506037881 1.9999999999999998
vertex 10.620980940318068 81.198506037881 1.9999999999999998
endloop
endfacet
facet normal -1.0 -0.0 -0.0
outer loop
vertex 12.620980940318066 148.698506037881 6.0
vertex 12.620980940318066 83.198506037881 1.9999999999999998
vertex 12.620980940318066 83.198506037881 6.0
endloop
endfacet
facet normal -1.0 -0.0 -0.0
outer loop
vertex 12.620980940318066 83.198506037881 1.9999999999999998
vertex 12.620980940318066 148.698506037881 6.0
vertex 12.620980940318066 148.698506037881 1.9999999999999998
endloop
endfacet
facet normal 1.0 0.0 0.0
outer loop
vertex 78.62098094031806 148.698506037881 1.9999999999999998
vertex 78.62098094031806 83.198506037881 6.0
vertex 78.62098094031806 83.198506037881 1.9999999999999998
endloop
endfacet
facet normal 1.0 0.0 0.0
outer loop
vertex 78.62098094031806 83.198506037881 6.0
vertex 78.62098094031806 148.698506037881 1.9999999999999998
vertex 78.62098094031806 148.698506037881 6.0
endloop
endfacet
facet normal 0.0 0.0 -1.0
outer loop
vertex 80.62098094031806 150.69850603788097 0.0
vertex 10.620980940318068 81.198506037881 0.0
vertex 10.620980940318068 150.69850603788097 0.0
endloop
endfacet
facet normal 0.0 0.0 -1.0
outer loop
vertex 10.620980940318068 81.198506037881 0.0
vertex 80.62098094031806 150.69850603788097 0.0
vertex 80.62098094031806 81.198506037881 0.0
endloop
endfacet
facet normal 0.0 -1.0 0.0
outer loop
vertex 78.62098094031806 83.198506037881 6.0
vertex 12.620980940318066 83.198506037881 1.9999999999999998
vertex 78.62098094031806 83.198506037881 1.9999999999999998
endloop
endfacet
facet normal 0.0 -1.0 0.0
outer loop
vertex 12.620980940318066 83.198506037881 1.9999999999999998
vertex 78.62098094031806 83.198506037881 6.0
vertex 12.620980940318066 83.198506037881 6.0
endloop
endfacet
facet normal 0.0 0.0 1.0
outer loop
vertex 78.62098094031806 83.198506037881 6.0
vertex 12.620980940318066 148.698506037881 6.0
vertex 12.620980940318066 83.198506037881 6.0
endloop
endfacet
facet normal 0.0 0.0 1.0
outer loop
vertex 12.620980940318066 148.698506037881 6.0
vertex 78.62098094031806 83.198506037881 6.0
vertex 78.62098094031806 148.698506037881 6.0
endloop
endfacet
facet normal 1.0 0.0 0.0
outer loop
vertex 80.62098094031806 150.69850603788097 0.0
vertex 80.62098094031806 81.198506037881 1.9999999999999998
vertex 80.62098094031806 81.198506037881 0.0
endloop
endfacet
facet normal 1.0 0.0 0.0
outer loop
vertex 80.62098094031806 81.198506037881 1.9999999999999998
vertex 80.62098094031806 150.69850603788097 0.0
vertex 80.62098094031806 150.69850603788097 1.9999999999999998
endloop
endfacet
facet normal 0.0 1.0 0.0
outer loop
vertex 10.620980940318068 150.69850603788097 1.9999999999999998
vertex 80.62098094031806 150.69850603788097 0.0
vertex 10.620980940318068 150.69850603788097 0.0
endloop
endfacet
facet normal 0.0 1.0 0.0
outer loop
vertex 80.62098094031806 150.69850603788097 0.0
vertex 10.620980940318068 150.69850603788097 1.9999999999999998
vertex 80.62098094031806 150.69850603788097 1.9999999999999998
endloop
endfacet
facet normal -1.0 0.0 0.0
outer loop
vertex 10.620980940318068 150.69850603788097 1.9999999999999998
vertex 10.620980940318068 81.198506037881 0.0
vertex 10.620980940318068 81.198506037881 1.9999999999999998
endloop
endfacet
facet normal -1.0 0.0 0.0
outer loop
vertex 10.620980940318068 81.198506037881 0.0
vertex 10.620980940318068 150.69850603788097 1.9999999999999998
vertex 10.620980940318068 150.69850603788097 0.0
endloop
endfacet
facet normal 0.0 1.0 0.0
outer loop
vertex 12.620980940318066 148.698506037881 6.0
vertex 78.62098094031806 148.698506037881 1.9999999999999998
vertex 12.620980940318066 148.698506037881 1.9999999999999998
endloop
endfacet
facet normal 0.0 1.0 0.0
outer loop
vertex 78.62098094031806 148.698506037881 1.9999999999999998
vertex 12.620980940318066 148.698506037881 6.0
vertex 78.62098094031806 148.698506037881 6.0
endloop
endfacet
endsolid robot
