solid robot
facet normal 0.0 -1.0 0.0
outer loop
vertex 116.05584438527664 217.9985902383152 19.0
vertex 105.85584438527665 217.9985902383152 13.799999999999997
vertex 116.05584438527664 217.9985902383152 13.799999999999997
endloop
endfacet
facet normal 0.0 -1.0 0.0
outer loop
vertex 105.85584438527665 217.9985902383152 13.799999999999997
vertex 116.05584438527664 217.9985902383152 19.0
vertex 105.85584438527665 217.9985902383152 19.0
endloop
endfacet
facet normal 0.0 1.0 0.0
outer loop
vertex 105.85584438527665 207.39859023831522 19.0
vertex 116.05584438527664 207.39859023831522 13.799999999999997
vertex 105.85584438527665 207.39859023831522 13.799999999999997
endloop
endfacet
facet normal 0.0 1.0 0.0
outer loop
vertex 116.05584438527664 207.39859023831522 13.799999999999997
vertex 105.85584438527665 207.39859023831522 19.0
vertex 116.05584438527664 207.39859023831522 19.0
endloop
endfacet
facet normal 0.0 0.0 -1.0
outer loop
vertex 126.05584438527667 221.6985902383152 0.0
vertex 96.05584438527667 203.6985902383152 0.0
vertex 96.05584438527667 221.6985902383152 0.0
endloop
endfacet
facet normal 0.0 0.0 -1.0
outer loop
vertex 96.05584438527667 203.6985902383152 0.0
vertex 126.05584438527667 221.6985902383152 0.0
vertex 126.05584438527667 203.6985902383152 0.0
endloop
endfacet
facet normal 0.0 0.0 1.0
outer loop
vertex 96.05584438527667 203.6985902383152 19.0
vertex 105.85584438527665 207.39859023831522 19.0
vertex 96.05584438527667 221.6985902383152 19.0
endloop
endfacet
facet normal 0.0 0.0 1.0
outer loop
vertex 105.85584438527665 207.39859023831522 19.0
vertex 96.05584438527667 203.6985902383152 19.0
vertex 118.05584438527666 203.6985902383152 19.0
endloop
endfacet
facet normal 0.0 0.0 1.0
outer loop
vertex 105.85584438527665 207.39859023831522 19.0
vertex 118.05584438527666 203.6985902383152 19.0
vertex 116.05584438527664 207.39859023831522 19.0
endloop
endfacet
facet normal 0.0 0.0 1.0
outer loop
vertex 116.05584438527664 207.39859023831522 19.0
vertex 118.05584438527666 203.6985902383152 19.0
vertex 116.05584438527664 217.9985902383152 19.0
endloop
endfacet
facet normal 0.0 0.0 1.0
outer loop
vertex 96.05584438527667 221.6985902383152 19.0
vertex 105.85584438527665 217.9985902383152 19.0
vertex 118.05584438527666 221.6985902383152 19.0
endloop
endfacet
facet normal 0.0 0.0 1.0
outer loop
vertex 105.85584438527665 217.9985902383152 19.0
vertex 96.05584438527667 221.6985902383152 19.0
vertex 105.85584438527665 207.39859023831522 19.0
endloop
endfacet
facet normal 0.0 0.0 1.0
outer loop
vertex 118.05584438527666 221.6985902383152 19.0
vertex 105.85584438527665 217.9985902383152 19.0
vertex 116.05584438527664 217.9985902383152 19.0
endloop
endfacet
facet normal 0.0 0.0 1.0
outer loop
vertex 118.05584438527666 221.6985902383152 19.0
vertex 116.05584438527664 217.9985902383152 19.0
vertex 118.05584438527666 203.6985902383152 19.0
endloop
endfacet
facet normal 1.0 0.0 3.204507366531704e-17
outer loop
vertex 118.05584438527666 221.6985902383152 5.000000000000001
vertex 118.05584438527666 203.6985902383152 19.0
vertex 118.05584438527666 203.6985902383152 5.000000000000001
endloop
endfacet
facet normal 1.0 0.0 3.204507366531704e-17
outer loop
vertex 118.05584438527666 203.6985902383152 19.0
vertex 118.05584438527666 221.6985902383152 5.000000000000001
vertex 118.05584438527666 221.6985902383152 19.0
endloop
endfacet
facet normal 1.0 0.0 0.0
outer loop
vertex 126.05584438527667 221.6985902383152 0.0
vertex 126.05584438527667 203.6985902383152 5.0
vertex 126.05584438527667 203.6985902383152 0.0
endloop
endfacet
facet normal 1.0 0.0 0.0
outer loop
vertex 126.05584438527667 203.6985902383152 5.0
vertex 126.05584438527667 221.6985902383152 0.0
vertex 126.05584438527667 221.6985902383152 5.0
endloop
endfacet
facet normal 0.0 0.0 1.0
outer loop
vertex 116.05584438527664 207.39859023831522 13.799999999999997
vertex 105.85584438527665 217.9985902383152 13.799999999999997
vertex 105.85584438527665 207.39859023831522 13.799999999999997
endloop
endfacet
facet normal 0.0 0.0 1.0
outer loop
vertex 105.85584438527665 217.9985902383152 13.799999999999997
vertex 116.05584438527664 207.39859023831522 13.799999999999997
vertex 116.05584438527664 217.9985902383152 13.799999999999997
endloop
endfacet
facet normal -0.0 -1.0 -0.0
outer loop
vertex 126.05584438527667 203.6985902383152 5.0
vertex 96.05584438527667 203.6985902383152 0.0
vertex 126.05584438527667 203.6985902383152 0.0
endloop
endfacet
facet normal -0.0 -1.0 -0.0
outer loop
vertex 96.05584438527667 203.6985902383152 0.0
vertex 126.05584438527667 203.6985902383152 5.0
vertex 118.05584438527666 203.6985902383152 5.000000000000001
endloop
endfacet
facet normal -0.0 -1.0 -0.0
outer loop
vertex 96.05584438527667 203.6985902383152 0.0
vertex 118.05584438527666 203.6985902383152 5.000000000000001
vertex 96.05584438527667 203.6985902383152 19.0
endloop
endfacet
facet normal -0.0 -1.0 -0.0
outer loop
vertex 96.05584438527667 203.6985902383152 19.0
vertex 118.05584438527666 203.6985902383152 5.000000000000001
vertex 118.05584438527666 203.6985902383152 19.0
endloop
endfacet
facet normal 0.0 1.0 0.0
outer loop
vertex 96.05584438527667 221.6985902383152 0.0
vertex 118.05584438527666 221.6985902383152 5.000000000000001
vertex 126.05584438527667 221.6985902383152 0.0
endloop
endfacet
facet normal 0.0 1.0 0.0
outer loop
vertex 118.05584438527666 221.6985902383152 5.000000000000001
vertex 96.05584438527667 221.6985902383152 0.0
vertex 96.05584438527667 221.6985902383152 19.0
endloop
endfacet
facet normal 0.0 1.0 0.0
outer loop
vertex 126.05584438527667 221.6985902383152 0.0
vertex 118.05584438527666 221.6985902383152 5.000000000000001
vertex 126.05584438527667 221.6985902383152 5.0
endloop
endfacet
facet normal 0.0 1.0 0.0
outer loop
vertex 118.05584438527666 221.6985902383152 5.000000000000001
vertex 96.05584438527667 221.6985902383152 19.0
vertex 118.05584438527666 221.6985902383152 19.0
endloop
endfacet
facet normal 1.0 0.0 0.0
outer loop
vertex 105.85584438527665 217.9985902383152 13.799999999999997
vertex 105.85584438527665 207.39859023831522 19.0
vertex 105.85584438527665 207.39859023831522 13.799999999999997
endloop
endfacet
facet normal 1.0 0.0 0.0
outer loop
vertex 105.85584438527665 207.39859023831522 19.0
vertex 105.85584438527665 217.9985902383152 13.799999999999997
vertex 105.85584438527665 217.9985902383152 19.0
endloop
endfacet
facet normal -1.0 0.0 0.0
outer loop
vertex 96.05584438527667 221.6985902383152 19.0
vertex 96.05584438527667 203.6985902383152 0.0
vertex 96.05584438527667 203.6985902383152 19.0
endloop
endfacet
facet normal -1.0 0.0 0.0
outer loop
vertex 96.05584438527667 203.6985902383152 0.0
vertex 96.05584438527667 221.6985902383152 19.0
vertex 96.05584438527667 221.6985902383152 0.0
endloop
endfacet
facet normal 8.81239525796217e-17 -1.2176056040965593e-33 1.0
outer loop
vertex 126.05584438527667 203.6985902383152 5.0
vertex 118.05584438527666 221.6985902383152 5.000000000000001
vertex 118.05584438527666 203.6985902383152 5.000000000000001
endloop
endfacet
facet normal 8.81239525796217e-17 -1.2176056040965593e-33 1.0
outer loop
vertex 118.05584438527666 221.6985902383152 5.000000000000001
vertex 126.05584438527667 203.6985902383152 5.0
vertex 126.05584438527667 221.6985902383152 5.0
endloop
endfacet
facet normal -1.0 0.0 0.0
outer loop
vertex 116.05584438527664 217.9985902383152 19.0
vertex 116.05584438527664 207.39859023831522 13.799999999999997
vertex 116.05584438527664 207.39859023831522 19.0
endloop
endfacet
facet normal -1.0 0.0 0.0
outer loop
vertex 116.05584438527664 207.39859023831522 13.799999999999997
vertex 116.05584438527664 217.9985902383152 19.0
vertex 116.05584438527664 217.9985902383152 13.799999999999997
endloop
endfacet
facet normal 0.0 -1.0 0.0
outer loop
vertex 116.05584438527664 192.3985902383152 19.0
vertex 105.85584438527665 192.3985902383152 13.799999999999997
vertex 116.05584438527664 192.3985902383152 13.799999999999997
endloop
endfacet
facet normal 0.0 -1.0 0.0
outer loop
vertex 105.85584438527665 192.3985902383152 13.799999999999997
vertex 116.05584438527664 192.3985902383152 19.0
vertex 105.85584438527665 192.3985902383152 19.0
endloop
endfacet
facet normal 0.0 1.0 0.0
outer loop
vertex 105.85584438527665 181.79859023831523 19.0
vertex 116.05584438527664 181.79859023831523 13.799999999999997
vertex 105.85584438527665 181.79859023831523 13.799999999999997
endloop
endfacet
facet normal 0.0 1.0 0.0
outer loop
vertex 116.05584438527664 181.79859023831523 13.799999999999997
vertex 105.85584438527665 181.79859023831523 19.0
vertex 116.05584438527664 181.79859023831523 19.0
endloop
endfacet
facet normal 0.0 0.0 -1.0
outer loop
vertex 126.05584438527667 196.0985902383152 0.0
vertex 96.05584438527667 178.0985902383152 0.0
vertex 96.05584438527667 196.0985902383152 0.0
endloop
endfacet
facet normal 0.0 0.0 -1.0
outer loop
vertex 96.05584438527667 178.0985902383152 0.0
vertex 126.05584438527667 196.0985902383152 0.0
vertex 126.05584438527667 178.0985902383152 0.0
endloop
endfacet
facet normal 0.0 0.0 1.0
outer loop
vertex 96.05584438527667 178.0985902383152 19.0
vertex 105.85584438527665 181.79859023831523 19.0
vertex 96.05584438527667 196.0985902383152 19.0
endloop
endfacet
facet normal 0.0 0.0 1.0
outer loop
vertex 105.85584438527665 181.79859023831523 19.0
vertex 96.05584438527667 178.0985902383152 19.0
vertex 118.05584438527666 178.0985902383152 19.0
endloop
endfacet
facet normal 0.0 0.0 1.0
outer loop
vertex 105.85584438527665 181.79859023831523 19.0
vertex 118.05584438527666 178.0985902383152 19.0
vertex 116.05584438527664 181.79859023831523 19.0
endloop
endfacet
facet normal 0.0 0.0 1.0
outer loop
vertex 116.05584438527664 181.79859023831523 19.0
vertex 118.05584438527666 178.0985902383152 19.0
vertex 116.05584438527664 192.3985902383152 19.0
endloop
endfacet
facet normal 0.0 0.0 1.0
outer loop
vertex 96.05584438527667 196.0985902383152 19.0
vertex 105.85584438527665 192.3985902383152 19.0
vertex 118.05584438527666 196.0985902383152 19.0
endloop
endfacet
facet normal 0.0 0.0 1.0
outer loop
vertex 105.85584438527665 192.3985902383152 19.0
vertex 96.05584438527667 196.0985902383152 19.0
vertex 105.85584438527665 181.79859023831523 19.0
endloop
endfacet
facet normal 0.0 0.0 1.0
outer loop
vertex 118.05584438527666 196.0985902383152 19.0
vertex 105.85584438527665 192.3985902383152 19.0
vertex 116.05584438527664 192.3985902383152 19.0
endloop
endfacet
facet normal 0.0 0.0 1.0
outer loop
vertex 118.05584438527666 196.0985902383152 19.0
vertex 116.05584438527664 192.3985902383152 19.0
vertex 118.05584438527666 178.0985902383152 19.0
endloop
endfacet
facet normal 1.0 0.0 3.204507366531704e-17
outer loop
vertex 118.05584438527666 196.0985902383152 5.000000000000001
vertex 118.05584438527666 178.0985902383152 19.0
vertex 118.05584438527666 178.0985902383152 5.000000000000001
endloop
endfacet
facet normal 1.0 0.0 3.204507366531704e-17
outer loop
vertex 118.05584438527666 178.0985902383152 19.0
vertex 118.05584438527666 196.0985902383152 5.000000000000001
vertex 118.05584438527666 196.0985902383152 19.0
endloop
endfacet
facet normal 1.0 0.0 0.0
outer loop
vertex 126.05584438527667 196.0985902383152 0.0
vertex 126.05584438527667 178.0985902383152 5.0
vertex 126.05584438527667 178.0985902383152 0.0
endloop
endfacet
facet normal 1.0 0.0 0.0
outer loop
vertex 126.05584438527667 178.0985902383152 5.0
vertex 126.05584438527667 196.0985902383152 0.0
vertex 126.05584438527667 196.0985902383152 5.0
endloop
endfacet
facet normal 0.0 0.0 1.0
outer loop
vertex 116.05584438527664 181.79859023831523 13.799999999999997
vertex 105.85584438527665 192.3985902383152 13.799999999999997
vertex 105.85584438527665 181.79859023831523 13.799999999999997
endloop
endfacet
facet normal 0.0 0.0 1.0
outer loop
vertex 105.85584438527665 192.3985902383152 13.799999999999997
vertex 116.05584438527664 181.79859023831523 13.799999999999997
vertex 116.05584438527664 192.3985902383152 13.799999999999997
endloop
endfacet
facet normal -0.0 -1.0 -0.0
outer loop
vertex 126.05584438527667 178.0985902383152 5.0
vertex 96.05584438527667 178.0985902383152 0.0
vertex 126.05584438527667 178.0985902383152 0.0
endloop
endfacet
facet normal -0.0 -1.0 -0.0
outer loop
vertex 96.05584438527667 178.0985902383152 0.0
vertex 126.05584438527667 178.0985902383152 5.0
vertex 118.05584438527666 178.0985902383152 5.000000000000001
endloop
endfacet
facet normal -0.0 -1.0 -0.0
outer loop
vertex 96.05584438527667 178.0985902383152 0.0
vertex 118.05584438527666 178.0985902383152 5.000000000000001
vertex 96.05584438527667 178.0985902383152 19.0
endloop
endfacet
facet normal -0.0 -1.0 -0.0
outer loop
vertex 96.05584438527667 178.0985902383152 19.0
vertex 118.05584438527666 178.0985902383152 5.000000000000001
vertex 118.05584438527666 178.0985902383152 19.0
endloop
endfacet
facet normal 0.0 1.0 0.0
outer loop
vertex 96.05584438527667 196.0985902383152 0.0
vertex 118.05584438527666 196.0985902383152 5.000000000000001
vertex 126.05584438527667 196.0985902383152 0.0
endloop
endfacet
facet normal 0.0 1.0 0.0
outer loop
vertex 118.05584438527666 196.0985902383152 5.000000000000001
vertex 96.05584438527667 196.0985902383152 0.0
vertex 96.05584438527667 196.0985902383152 19.0
endloop
endfacet
facet normal 0.0 1.0 0.0
outer loop
vertex 126.05584438527667 196.0985902383152 0.0
vertex 118.05584438527666 196.0985902383152 5.000000000000001
vertex 126.05584438527667 196.0985902383152 5.0
endloop
endfacet
facet normal 0.0 1.0 0.0
outer loop
vertex 118.05584438527666 196.0985902383152 5.000000000000001
vertex 96.05584438527667 196.0985902383152 19.0
vertex 118.05584438527666 196.0985902383152 19.0
endloop
endfacet
facet normal 1.0 0.0 0.0
outer loop
vertex 105.85584438527665 192.3985902383152 13.799999999999997
vertex 105.85584438527665 181.79859023831523 19.0
vertex 105.85584438527665 181.79859023831523 13.799999999999997
endloop
endfacet
facet normal 1.0 0.0 0.0
outer loop
vertex 105.85584438527665 181.79859023831523 19.0
vertex 105.85584438527665 192.3985902383152 13.799999999999997
vertex 105.85584438527665 192.3985902383152 19.0
endloop
endfacet
facet normal -1.0 0.0 0.0
outer loop
vertex 96.05584438527667 196.0985902383152 19.0
vertex 96.05584438527667 178.0985902383152 0.0
vertex 96.05584438527667 178.0985902383152 19.0
endloop
endfacet
facet normal -1.0 0.0 0.0
outer loop
vertex 96.05584438527667 178.0985902383152 0.0
vertex 96.05584438527667 196.0985902383152 19.0
vertex 96.05584438527667 196.0985902383152 0.0
endloop
endfacet
facet normal 8.81239525796217e-17 -1.2176056040965593e-33 1.0
outer loop
vertex 126.05584438527667 178.0985902383152 5.0
vertex 118.05584438527666 196.0985902383152 5.000000000000001
vertex 118.05584438527666 178.0985902383152 5.000000000000001
endloop
endfacet
facet normal 8.81239525796217e-17 -1.2176056040965593e-33 1.0
outer loop
vertex 118.05584438527666 196.0985902383152 5.000000000000001
vertex 126.05584438527667 178.0985902383152 5.0
vertex 126.05584438527667 196.0985902383152 5.0
endloop
endfacet
facet normal -1.0 0.0 0.0
outer loop
vertex 116.05584438527664 192.3985902383152 19.0
vertex 116.05584438527664 181.79859023831523 13.799999999999997
vertex 116.05584438527664 181.79859023831523 19.0
endloop
endfacet
facet normal -1.0 0.0 0.0
outer loop
vertex 116.05584438527664 181.79859023831523 13.799999999999997
vertex 116.05584438527664 192.3985902383152 19.0
vertex 116.05584438527664 192.3985902383152 13.799999999999997
endloop
endfacet
endsolid robot
