solid candy
facet normal 1.0 0.0 0.0
outer loop
vertex 24.67652555886019 18.559341995574325 1.762479051592436e-16
vertex 24.67652555886019 17.359341995574326 1.4999999999999998
vertex 24.67652555886019 17.359341995574326 1.762479051592436e-16
endloop
endfacet
facet normal 1.0 0.0 0.0
outer loop
vertex 24.67652555886019 17.359341995574326 1.4999999999999998
vertex 24.67652555886019 18.559341995574325 1.762479051592436e-16
vertex 24.67652555886019 18.559341995574325 1.5
endloop
endfacet
facet normal 0.0 1.0 0.0
outer loop
vertex 24.67652555886019 17.359341995574326 1.4999999999999998
vertex 49.676525558860185 17.359341995574326 1.4999999999999991
vertex 24.67652555886019 17.359341995574326 1.762479051592436e-16
endloop
endfacet
facet normal 0.0 1.0 0.0
outer loop
vertex 49.676525558860185 17.359341995574326 3.499999999999999
vertex 52.17652555886019 17.359341995574326 1.4999999999999991
vertex 49.676525558860185 17.359341995574326 1.4999999999999991
endloop
endfacet
facet normal 0.0 1.0 0.0
outer loop
vertex 52.17652555886019 17.359341995574326 1.4999999999999991
vertex 49.676525558860185 17.359341995574326 3.499999999999999
vertex 52.17652555886019 17.359341995574326 3.499999999999999
endloop
endfacet
facet normal 0.0 1.0 0.0
outer loop
vertex 24.67652555886019 17.359341995574326 1.762479051592436e-16
vertex 59.676525558860185 17.359341995574326 1.4999999999999998
vertex 59.676525558860185 17.359341995574326 -1.0441521945327439e-16
endloop
endfacet
facet normal 0.0 1.0 0.0
outer loop
vertex 59.676525558860185 17.359341995574326 1.4999999999999998
vertex 24.67652555886019 17.359341995574326 1.762479051592436e-16
vertex 52.17652555886019 17.359341995574326 1.4999999999999991
endloop
endfacet
facet normal 0.0 1.0 0.0
outer loop
vertex 52.17652555886019 17.359341995574326 1.4999999999999991
vertex 24.67652555886019 17.359341995574326 1.762479051592436e-16
vertex 49.676525558860185 17.359341995574326 1.4999999999999991
endloop
endfacet
facet normal 1.0 5.047401270122434e-33 -1.925391720328963e-17
outer loop
vertex 59.676525558860185 17.359341995574326 -1.0441521945327439e-16
vertex 59.676525558860185 13.759341995574326 1.4999999999999991
vertex 59.676525558860185 13.759341995574326 -8.908631744585121e-16
endloop
endfacet
facet normal 1.0 5.047401270122434e-33 -1.925391720328963e-17
outer loop
vertex 59.676525558860185 13.759341995574326 1.4999999999999991
vertex 59.676525558860185 17.359341995574326 -1.0441521945327439e-16
vertex 59.676525558860185 17.359341995574326 1.4999999999999998
endloop
endfacet
facet normal 0.0 -1.0 0.0
outer loop
vertex 52.17652555886019 13.759341995574326 3.499999999999999
vertex 49.676525558860185 13.759341995574326 1.4999999999999991
vertex 52.17652555886019 13.759341995574326 1.4999999999999991
endloop
endfacet
facet normal 0.0 -1.0 0.0
outer loop
vertex 49.676525558860185 13.759341995574326 1.4999999999999991
vertex 52.17652555886019 13.759341995574326 3.499999999999999
vertex 49.676525558860185 13.759341995574326 3.499999999999999
endloop
endfacet
facet normal 0.0 -1.0 0.0
outer loop
vertex 59.676525558860185 13.759341995574326 1.4999999999999991
vertex 24.67652555886019 13.759341995574326 1.762479051592436e-16
vertex 59.676525558860185 13.759341995574326 -8.908631744585121e-16
endloop
endfacet
facet normal 0.0 -1.0 0.0
outer loop
vertex 24.67652555886019 13.759341995574326 1.762479051592436e-16
vertex 59.676525558860185 13.759341995574326 1.4999999999999991
vertex 49.676525558860185 13.759341995574326 1.4999999999999991
endloop
endfacet
facet normal 0.0 -1.0 0.0
outer loop
vertex 24.67652555886019 13.759341995574326 1.762479051592436e-16
vertex 49.676525558860185 13.759341995574326 1.4999999999999991
vertex 24.67652555886019 13.759341995574326 1.4999999999999998
endloop
endfacet
facet normal 0.0 -1.0 0.0
outer loop
vertex 49.676525558860185 13.759341995574326 1.4999999999999991
vertex 59.676525558860185 13.759341995574326 1.4999999999999991
vertex 52.17652555886019 13.759341995574326 1.4999999999999991
endloop
endfacet
facet normal -1.9701840136574536e-17 -4.399267444837621e-18 -1.0
outer loop
vertex 59.676525558860185 17.359341995574326 -1.0441521945327439e-16
vertex 24.67652555886019 13.759341995574326 1.762479051592436e-16
vertex 24.67652555886019 17.359341995574326 1.762479051592436e-16
endloop
endfacet
facet normal -1.9701840136574536e-17 -4.399267444837621e-18 -1.0
outer loop
vertex 24.67652555886019 13.759341995574326 1.762479051592436e-16
vertex 59.676525558860185 17.359341995574326 -1.0441521945327439e-16
vertex 59.676525558860185 13.759341995574326 -8.908631744585121e-16
endloop
endfacet
facet normal -1.9701840136574536e-17 -4.399267444837621e-18 -1.0
outer loop
vertex 24.67652555886019 18.559341995574325 1.762479051592436e-16
vertex 21.676525558860188 12.559341995574325 1.762479051592436e-16
vertex 21.676525558860188 18.559341995574325 1.762479051592436e-16
endloop
endfacet
facet normal -1.9701840136574536e-17 -4.399267444837621e-18 -1.0
outer loop
vertex 21.676525558860188 12.559341995574325 1.762479051592436e-16
vertex 24.67652555886019 18.559341995574325 1.762479051592436e-16
vertex 24.67652555886019 12.559341995574325 1.762479051592436e-16
endloop
endfacet
facet normal -1.9701840136574536e-17 -4.399267444837621e-18 -1.0
outer loop
vertex 24.67652555886019 12.559341995574325 1.762479051592436e-16
vertex 24.67652555886019 18.559341995574325 1.762479051592436e-16
vertex 24.67652555886019 17.359341995574326 1.762479051592436e-16
endloop
endfacet
facet normal -1.9701840136574536e-17 -4.399267444837621e-18 -1.0
outer loop
vertex 24.67652555886019 12.559341995574325 1.762479051592436e-16
vertex 24.67652555886019 17.359341995574326 1.762479051592436e-16
vertex 24.67652555886019 13.759341995574326 1.762479051592436e-16
endloop
endfacet
facet normal -1.9701840136574536e-17 -4.399267444837621e-18 -1.0
outer loop
vertex 21.676525558860188 21.55934199557433 1.762479051592436e-16
vertex 18.676525558860188 9.559341995574329 1.762479051592436e-16
vertex 18.676525558860188 21.55934199557433 1.762479051592436e-16
endloop
endfacet
facet normal -1.9701840136574536e-17 -4.399267444837621e-18 -1.0
outer loop
vertex 18.676525558860188 9.559341995574329 1.762479051592436e-16
vertex 21.676525558860188 21.55934199557433 1.762479051592436e-16
vertex 21.676525558860188 9.559341995574329 1.762479051592436e-16
endloop
endfacet
facet normal -1.9701840136574536e-17 -4.399267444837621e-18 -1.0
outer loop
vertex 21.676525558860188 9.559341995574329 1.762479051592436e-16
vertex 21.676525558860188 21.55934199557433 1.762479051592436e-16
vertex 21.676525558860188 18.559341995574325 1.762479051592436e-16
endloop
endfacet
facet normal -1.9701840136574536e-17 -4.399267444837621e-18 -1.0
outer loop
vertex 21.676525558860188 9.559341995574329 1.762479051592436e-16
vertex 21.676525558860188 18.559341995574325 1.762479051592436e-16
vertex 21.676525558860188 12.559341995574325 1.762479051592436e-16
endloop
endfacet
facet normal -1.9701840136574536e-17 -4.399267444837621e-18 -1.0
outer loop
vertex 18.676525558860188 24.559341995574336 0.0
vertex 15.676525558860188 6.559341995574327 0.0
vertex 15.676525558860188 24.559341995574325 0.0
endloop
endfacet
facet normal -1.9701840136574536e-17 -4.399267444837621e-18 -1.0
outer loop
vertex 15.676525558860188 6.559341995574327 0.0
vertex 18.676525558860188 24.559341995574336 0.0
vertex 18.676525558860188 6.559341995574327 0.0
endloop
endfacet
facet normal -1.9701840136574536e-17 -4.399267444837621e-18 -1.0
outer loop
vertex 18.676525558860188 6.559341995574327 0.0
vertex 18.676525558860188 24.559341995574336 0.0
vertex 18.676525558860188 21.55934199557433 1.762479051592436e-16
endloop
endfacet
facet normal -1.9701840136574536e-17 -4.399267444837621e-18 -1.0
outer loop
vertex 18.676525558860188 6.559341995574327 0.0
vertex 18.676525558860188 21.55934199557433 1.762479051592436e-16
vertex 18.676525558860188 9.559341995574329 1.762479051592436e-16
endloop
endfacet
facet normal -1.9701840136574536e-17 -4.399267444837621e-18 -1.0
outer loop
vertex 15.676525558860188 27.559341995574332 0.0
vertex 6.676525558860192 24.559341995574325 0.0
vertex 6.676525558860192 27.559341995574332 0.0
endloop
endfacet
facet normal -1.9701840136574536e-17 -4.399267444837621e-18 -1.0
outer loop
vertex 6.676525558860192 24.559341995574325 0.0
vertex 15.676525558860188 27.559341995574332 0.0
vertex 6.676525558860192 18.559341995574325 2.819966482547897e-15
endloop
endfacet
facet normal -1.9701840136574536e-17 -4.399267444837621e-18 -1.0
outer loop
vertex 6.676525558860192 18.559341995574325 2.819966482547897e-15
vertex 15.676525558860188 27.559341995574332 0.0
vertex 6.676525558860192 12.559341995574325 2.819966482547897e-15
endloop
endfacet
facet normal -1.9701840136574536e-17 -4.399267444837621e-18 -1.0
outer loop
vertex 6.676525558860192 12.559341995574325 2.819966482547897e-15
vertex 15.676525558860188 27.559341995574332 0.0
vertex 6.676525558860192 3.5593419955743264 0.0
endloop
endfacet
facet normal -1.9701840136574536e-17 -4.399267444837621e-18 -1.0
outer loop
vertex 6.676525558860192 3.5593419955743264 0.0
vertex 15.676525558860188 27.559341995574332 0.0
vertex 15.676525558860188 3.5593419955743264 0.0
endloop
endfacet
facet normal -1.9701840136574536e-17 -4.399267444837621e-18 -1.0
outer loop
vertex 15.676525558860188 3.5593419955743264 0.0
vertex 15.676525558860188 27.559341995574332 0.0
vertex 15.676525558860188 24.559341995574325 0.0
endloop
endfacet
facet normal -1.9701840136574536e-17 -4.399267444837621e-18 -1.0
outer loop
vertex 15.676525558860188 3.5593419955743264 0.0
vertex 15.676525558860188 24.559341995574325 0.0
vertex 15.676525558860188 6.559341995574327 0.0
endloop
endfacet
facet normal -1.9701840136574536e-17 -4.399267444837621e-18 -1.0
outer loop
vertex 6.676525558860192 12.559341995574325 2.819966482547897e-15
vertex 3.6765255588601913 6.559341995574327 0.0
vertex 3.6765255588601913 12.559341995574329 0.0
endloop
endfacet
facet normal -1.9701840136574536e-17 -4.399267444837621e-18 -1.0
outer loop
vertex 3.6765255588601913 6.559341995574327 0.0
vertex 6.676525558860192 12.559341995574325 2.819966482547897e-15
vertex 6.67652555886019 6.559341995574327 0.0
endloop
endfacet
facet normal -1.9701840136574536e-17 -4.399267444837621e-18 -1.0
outer loop
vertex 6.67652555886019 6.559341995574327 0.0
vertex 6.676525558860192 12.559341995574325 2.819966482547897e-15
vertex 6.676525558860192 3.5593419955743264 0.0
endloop
endfacet
facet normal -1.9701840136574536e-17 -4.399267444837621e-18 -1.0
outer loop
vertex 6.676525558860192 24.559341995574325 0.0
vertex 3.6765255588601913 18.559341995574325 0.0
vertex 3.6765255588601913 24.559341995574325 0.0
endloop
endfacet
facet normal -1.9701840136574536e-17 -4.399267444837621e-18 -1.0
outer loop
vertex 3.6765255588601913 18.559341995574325 0.0
vertex 6.676525558860192 24.559341995574325 0.0
vertex 6.676525558860192 18.559341995574325 2.819966482547897e-15
endloop
endfacet
facet normal 1.0 0.0 0.0
outer loop
vertex 24.67652555886019 13.759341995574326 1.762479051592436e-16
vertex 24.67652555886019 12.559341995574325 1.5
vertex 24.67652555886019 12.559341995574325 1.762479051592436e-16
endloop
endfacet
facet normal 1.0 0.0 0.0
outer loop
vertex 24.67652555886019 12.559341995574325 1.5
vertex 24.67652555886019 13.759341995574326 1.762479051592436e-16
vertex 24.67652555886019 13.759341995574326 1.4999999999999998
endloop
endfacet
facet normal 1.0 0.0 0.0
outer loop
vertex 21.676525558860188 21.55934199557433 1.762479051592436e-16
vertex 21.676525558860188 18.559341995574325 1.5
vertex 21.676525558860188 18.559341995574325 1.762479051592436e-16
endloop
endfacet
facet normal 1.0 0.0 0.0
outer loop
vertex 21.676525558860188 18.559341995574325 1.5
vertex 21.676525558860188 21.55934199557433 1.762479051592436e-16
vertex 21.676525558860188 21.55934199557433 1.5
endloop
endfacet
facet normal 0.0 1.0 0.0
outer loop
vertex 21.676525558860188 18.559341995574325 1.5
vertex 24.67652555886019 18.559341995574325 1.762479051592436e-16
vertex 21.676525558860188 18.559341995574325 1.762479051592436e-16
endloop
endfacet
facet normal 0.0 1.0 0.0
outer loop
vertex 24.67652555886019 18.559341995574325 1.762479051592436e-16
vertex 21.676525558860188 18.559341995574325 1.5
vertex 24.67652555886019 18.559341995574325 1.5
endloop
endfacet
facet normal 0.0 1.0 0.0
outer loop
vertex 18.676525558860188 21.55934199557433 1.5
vertex 21.676525558860188 21.55934199557433 1.762479051592436e-16
vertex 18.676525558860188 21.55934199557433 1.762479051592436e-16
endloop
endfacet
facet normal 0.0 1.0 0.0
outer loop
vertex 21.676525558860188 21.55934199557433 1.762479051592436e-16
vertex 18.676525558860188 21.55934199557433 1.5
vertex 21.676525558860188 21.55934199557433 1.5
endloop
endfacet
facet normal 1.0 0.0 0.0
outer loop
vertex 18.676525558860188 24.559341995574336 0.0
vertex 18.676525558860188 21.55934199557433 1.5
vertex 18.676525558860188 21.55934199557433 1.762479051592436e-16
endloop
endfacet
facet normal 1.0 0.0 0.0
outer loop
vertex 18.676525558860188 21.55934199557433 1.5
vertex 18.676525558860188 24.559341995574336 0.0
vertex 18.676525558860188 24.559341995574336 1.5
endloop
endfacet
facet normal 1.0 0.0 0.0
outer loop
vertex 15.676525558860188 27.559341995574332 0.0
vertex 15.676525558860188 24.559341995574325 1.5
vertex 15.676525558860188 24.559341995574325 0.0
endloop
endfacet
facet normal 1.0 0.0 0.0
outer loop
vertex 15.676525558860188 24.559341995574325 1.5
vertex 15.676525558860188 27.559341995574332 0.0
vertex 15.676525558860188 27.559341995574332 1.5
endloop
endfacet
facet normal -2.8199664825478994e-15 1.0 0.0
outer loop
vertex 15.676525558860188 24.559341995574325 1.5
vertex 18.676525558860188 24.559341995574336 0.0
vertex 15.676525558860188 24.559341995574325 0.0
endloop
endfacet
facet normal -2.8199664825478994e-15 1.0 0.0
outer loop
vertex 18.676525558860188 24.559341995574336 0.0
vertex 15.676525558860188 24.559341995574325 1.5
vertex 18.676525558860188 24.559341995574336 1.5
endloop
endfacet
facet normal 1.0 0.0 0.0
outer loop
vertex 21.676525558860188 12.559341995574325 1.762479051592436e-16
vertex 21.676525558860188 9.559341995574329 1.5
vertex 21.676525558860188 9.559341995574329 1.762479051592436e-16
endloop
endfacet
facet normal 1.0 0.0 0.0
outer loop
vertex 21.676525558860188 9.559341995574329 1.5
vertex 21.676525558860188 12.559341995574325 1.762479051592436e-16
vertex 21.676525558860188 12.559341995574325 1.5
endloop
endfacet
facet normal 0.0 -1.0 0.0
outer loop
vertex 24.67652555886019 12.559341995574325 1.5
vertex 21.676525558860188 12.559341995574325 1.762479051592436e-16
vertex 24.67652555886019 12.559341995574325 1.762479051592436e-16
endloop
endfacet
facet normal 0.0 -1.0 0.0
outer loop
vertex 21.676525558860188 12.559341995574325 1.762479051592436e-16
vertex 24.67652555886019 12.559341995574325 1.5
vertex 21.676525558860188 12.559341995574325 1.5
endloop
endfacet
facet normal 1.0 0.0 0.0
outer loop
vertex 18.676525558860188 9.559341995574329 1.762479051592436e-16
vertex 18.676525558860188 6.559341995574327 1.5
vertex 18.676525558860188 6.559341995574327 0.0
endloop
endfacet
facet normal 1.0 0.0 0.0
outer loop
vertex 18.676525558860188 6.559341995574327 1.5
vertex 18.676525558860188 9.559341995574329 1.762479051592436e-16
vertex 18.676525558860188 9.559341995574329 1.5
endloop
endfacet
facet normal 0.0 -1.0 0.0
outer loop
vertex 21.676525558860188 9.559341995574329 1.5
vertex 18.676525558860188 9.559341995574329 1.762479051592436e-16
vertex 21.676525558860188 9.559341995574329 1.762479051592436e-16
endloop
endfacet
facet normal 0.0 -1.0 0.0
outer loop
vertex 18.676525558860188 9.559341995574329 1.762479051592436e-16
vertex 21.676525558860188 9.559341995574329 1.5
vertex 18.676525558860188 9.559341995574329 1.5
endloop
endfacet
facet normal 1.0 0.0 0.0
outer loop
vertex 15.676525558860188 6.559341995574327 0.0
vertex 15.676525558860188 3.5593419955743264 1.5
vertex 15.676525558860188 3.5593419955743264 0.0
endloop
endfacet
facet normal 1.0 0.0 0.0
outer loop
vertex 15.676525558860188 3.5593419955743264 1.5
vertex 15.676525558860188 6.559341995574327 0.0
vertex 15.676525558860188 6.559341995574327 1.5
endloop
endfacet
facet normal 0.0 -1.0 0.0
outer loop
vertex 18.676525558860188 6.559341995574327 1.5
vertex 15.676525558860188 6.559341995574327 0.0
vertex 18.676525558860188 6.559341995574327 0.0
endloop
endfacet
facet normal 0.0 -1.0 0.0
outer loop
vertex 15.676525558860188 6.559341995574327 0.0
vertex 18.676525558860188 6.559341995574327 1.5
vertex 15.676525558860188 6.559341995574327 1.5
endloop
endfacet
facet normal 3.5249581031848684e-16 1.0 7.049916206369759e-16
outer loop
vertex 3.6765255588601913 12.559341995574325 1.5
vertex 6.676525558860192 12.559341995574325 2.819966482547897e-15
vertex 3.6765255588601913 12.559341995574329 0.0
endloop
endfacet
facet normal 3.5249581031848684e-16 1.0 7.049916206369759e-16
outer loop
vertex 6.676525558860192 12.559341995574325 2.819966482547897e-15
vertex 3.6765255588601913 12.559341995574325 1.5
vertex 6.676525558860192 12.559341995574325 1.5
endloop
endfacet
facet normal 0.0 -1.0 0.0
outer loop
vertex 6.676525558860192 18.559341995574325 2.819966482547897e-15
vertex 3.6765255588601913 18.559341995574325 1.5
vertex 3.6765255588601913 18.559341995574325 0.0
endloop
endfacet
facet normal 0.0 -1.0 0.0
outer loop
vertex 3.6765255588601913 18.559341995574325 1.5
vertex 6.676525558860192 18.559341995574325 2.819966482547897e-15
vertex 6.676525558860192 18.559341995574325 1.5
endloop
endfacet
facet normal -1.0 0.0 0.0
outer loop
vertex 6.676525558860192 18.559341995574325 1.5
vertex 6.676525558860192 12.559341995574325 2.819966482547897e-15
vertex 6.676525558860192 12.559341995574325 1.5
endloop
endfacet
facet normal -1.0 0.0 0.0
outer loop
vertex 6.676525558860192 12.559341995574325 2.819966482547897e-15
vertex 6.676525558860192 18.559341995574325 1.5
vertex 6.676525558860192 18.559341995574325 2.819966482547897e-15
endloop
endfacet
facet normal -1.0 0.0 0.0
outer loop
vertex 6.676525558860192 27.559341995574332 1.5
vertex 6.676525558860192 24.559341995574325 0.0
vertex 6.676525558860192 24.559341995574325 1.5
endloop
endfacet
facet normal -1.0 0.0 0.0
outer loop
vertex 6.676525558860192 24.559341995574325 0.0
vertex 6.676525558860192 27.559341995574332 1.5
vertex 6.676525558860192 27.559341995574332 0.0
endloop
endfacet
facet normal 0.0 1.0 0.0
outer loop
vertex 3.6765255588601913 24.559341995574325 1.5
vertex 6.676525558860192 24.559341995574325 0.0
vertex 3.6765255588601913 24.559341995574325 0.0
endloop
endfacet
facet normal 0.0 1.0 0.0
outer loop
vertex 6.676525558860192 24.559341995574325 0.0
vertex 3.6765255588601913 24.559341995574325 1.5
vertex 6.676525558860192 24.559341995574325 1.5
endloop
endfacet
facet normal 0.0 -1.0 0.0
outer loop
vertex 6.67652555886019 6.559341995574327 1.5
vertex 3.6765255588601913 6.559341995574327 0.0
vertex 6.67652555886019 6.559341995574327 0.0
endloop
endfacet
facet normal 0.0 -1.0 0.0
outer loop
vertex 3.6765255588601913 6.559341995574327 0.0
vertex 6.67652555886019 6.559341995574327 1.5
vertex 3.6765255588601913 6.559341995574327 1.5
endloop
endfacet
facet normal -1.0 -3.524958103184871e-16 0.0
outer loop
vertex 6.67652555886019 6.559341995574327 1.5
vertex 6.676525558860192 3.5593419955743264 0.0
vertex 6.676525558860192 3.5593419955743264 1.5
endloop
endfacet
facet normal -1.0 -3.524958103184871e-16 0.0
outer loop
vertex 6.676525558860192 3.5593419955743264 0.0
vertex 6.67652555886019 6.559341995574327 1.5
vertex 6.67652555886019 6.559341995574327 0.0
endloop
endfacet
facet normal -1.0 0.0 0.0
outer loop
vertex 3.6765255588601913 12.559341995574325 1.5
vertex 3.6765255588601913 6.559341995574327 0.0
vertex 3.6765255588601913 6.559341995574327 1.5
endloop
endfacet
facet normal -1.0 0.0 0.0
outer loop
vertex 3.6765255588601913 6.559341995574327 0.0
vertex 3.6765255588601913 12.559341995574325 1.5
vertex 3.6765255588601913 12.559341995574329 0.0
endloop
endfacet
facet normal -1.0 0.0 0.0
outer loop
vertex 3.6765255588601913 24.559341995574325 1.5
vertex 3.6765255588601913 18.559341995574325 0.0
vertex 3.6765255588601913 18.559341995574325 1.5
endloop
endfacet
facet normal -1.0 0.0 0.0
outer loop
vertex 3.6765255588601913 18.559341995574325 0.0
vertex 3.6765255588601913 24.559341995574325 1.5
vertex 3.6765255588601913 24.559341995574325 0.0
endloop
endfacet
facet normal 0.0 1.0 0.0
outer loop
vertex 6.676525558860192 27.559341995574332 1.5
vertex 15.676525558860188 27.559341995574332 0.0
vertex 6.676525558860192 27.559341995574332 0.0
endloop
endfacet
facet normal 0.0 1.0 0.0
outer loop
vertex 15.676525558860188 27.559341995574332 0.0
vertex 6.676525558860192 27.559341995574332 1.5
vertex 15.676525558860188 27.559341995574332 1.5
endloop
endfacet
facet normal 0.0 -1.0 0.0
outer loop
vertex 15.676525558860188 3.5593419955743264 1.5
vertex 6.676525558860192 3.5593419955743264 0.0
vertex 15.676525558860188 3.5593419955743264 0.0
endloop
endfacet
facet normal 0.0 -1.0 0.0
outer loop
vertex 6.676525558860192 3.5593419955743264 0.0
vertex 15.676525558860188 3.5593419955743264 1.5
vertex 6.676525558860192 3.5593419955743264 1.5
endloop
endfacet
facet normal 1.9450767506093862e-17 2.4890841245318096e-32 1.0
outer loop
vertex 49.676525558860185 13.759341995574326 1.4999999999999991
vertex 24.67652555886019 17.359341995574326 1.4999999999999998
vertex 24.67652555886019 13.759341995574326 1.4999999999999998
endloop
endfacet
facet normal 1.9450767506093862e-17 2.4890841245318096e-32 1.0
outer loop
vertex 24.67652555886019 17.359341995574326 1.4999999999999998
vertex 49.676525558860185 13.759341995574326 1.4999999999999991
vertex 49.676525558860185 17.359341995574326 1.4999999999999991
endloop
endfacet
facet normal 1.9450767506093862e-17 2.4890841245318096e-32 1.0
outer loop
vertex 24.67652555886019 12.559341995574325 1.5
vertex 21.676525558860188 18.559341995574325 1.5
vertex 21.676525558860188 12.559341995574325 1.5
endloop
endfacet
facet normal 1.9450767506093862e-17 2.4890841245318096e-32 1.0
outer loop
vertex 21.676525558860188 18.559341995574325 1.5
vertex 24.67652555886019 12.559341995574325 1.5
vertex 24.67652555886019 18.559341995574325 1.5
endloop
endfacet
facet normal 1.9450767506093862e-17 2.4890841245318096e-32 1.0
outer loop
vertex 24.67652555886019 18.559341995574325 1.5
vertex 24.67652555886019 12.559341995574325 1.5
vertex 24.67652555886019 13.759341995574326 1.4999999999999998
endloop
endfacet
facet normal 1.9450767506093862e-17 2.4890841245318096e-32 1.0
outer loop
vertex 24.67652555886019 18.559341995574325 1.5
vertex 24.67652555886019 13.759341995574326 1.4999999999999998
vertex 24.67652555886019 17.359341995574326 1.4999999999999998
endloop
endfacet
facet normal 1.9450767506093862e-17 2.4890841245318096e-32 1.0
outer loop
vertex 21.676525558860188 9.559341995574329 1.5
vertex 18.676525558860188 21.55934199557433 1.5
vertex 18.676525558860188 9.559341995574329 1.5
endloop
endfacet
facet normal 1.9450767506093862e-17 2.4890841245318096e-32 1.0
outer loop
vertex 18.676525558860188 21.55934199557433 1.5
vertex 21.676525558860188 9.559341995574329 1.5
vertex 21.676525558860188 21.55934199557433 1.5
endloop
endfacet
facet normal 1.9450767506093862e-17 2.4890841245318096e-32 1.0
outer loop
vertex 21.676525558860188 21.55934199557433 1.5
vertex 21.676525558860188 9.559341995574329 1.5
vertex 21.676525558860188 12.559341995574325 1.5
endloop
endfacet
facet normal 1.9450767506093862e-17 2.4890841245318096e-32 1.0
outer loop
vertex 21.676525558860188 21.55934199557433 1.5
vertex 21.676525558860188 12.559341995574325 1.5
vertex 21.676525558860188 18.559341995574325 1.5
endloop
endfacet
facet normal 1.9450767506093862e-17 2.4890841245318096e-32 1.0
outer loop
vertex 18.676525558860188 6.559341995574327 1.5
vertex 15.676525558860188 24.559341995574325 1.5
vertex 15.676525558860188 6.559341995574327 1.5
endloop
endfacet
facet normal 1.9450767506093862e-17 2.4890841245318096e-32 1.0
outer loop
vertex 15.676525558860188 24.559341995574325 1.5
vertex 18.676525558860188 6.559341995574327 1.5
vertex 18.676525558860188 24.559341995574336 1.5
endloop
endfacet
facet normal 1.9450767506093862e-17 2.4890841245318096e-32 1.0
outer loop
vertex 18.676525558860188 24.559341995574336 1.5
vertex 18.676525558860188 6.559341995574327 1.5
vertex 18.676525558860188 9.559341995574329 1.5
endloop
endfacet
facet normal 1.9450767506093862e-17 2.4890841245318096e-32 1.0
outer loop
vertex 18.676525558860188 24.559341995574336 1.5
vertex 18.676525558860188 9.559341995574329 1.5
vertex 18.676525558860188 21.55934199557433 1.5
endloop
endfacet
facet normal 1.9450767506093862e-17 2.4890841245318096e-32 1.0
outer loop
vertex 6.67652555886019 6.559341995574327 1.5
vertex 3.6765255588601913 12.559341995574325 1.5
vertex 3.6765255588601913 6.559341995574327 1.5
endloop
endfacet
facet normal 1.9450767506093862e-17 2.4890841245318096e-32 1.0
outer loop
vertex 3.6765255588601913 12.559341995574325 1.5
vertex 6.67652555886019 6.559341995574327 1.5
vertex 6.676525558860192 12.559341995574325 1.5
endloop
endfacet
facet normal 1.9450767506093862e-17 2.4890841245318096e-32 1.0
outer loop
vertex 6.676525558860192 12.559341995574325 1.5
vertex 6.67652555886019 6.559341995574327 1.5
vertex 6.676525558860192 3.5593419955743264 1.5
endloop
endfacet
facet normal 1.9450767506093862e-17 2.4890841245318096e-32 1.0
outer loop
vertex 6.676525558860192 12.559341995574325 1.5
vertex 6.676525558860192 3.5593419955743264 1.5
vertex 15.676525558860188 3.5593419955743264 1.5
endloop
endfacet
facet normal 1.9450767506093862e-17 2.4890841245318096e-32 1.0
outer loop
vertex 6.676525558860192 12.559341995574325 1.5
vertex 15.676525558860188 3.5593419955743264 1.5
vertex 6.676525558860192 18.559341995574325 1.5
endloop
endfacet
facet normal 1.9450767506093862e-17 2.4890841245318096e-32 1.0
outer loop
vertex 6.676525558860192 18.559341995574325 1.5
vertex 15.676525558860188 3.5593419955743264 1.5
vertex 6.676525558860192 24.559341995574325 1.5
endloop
endfacet
facet normal 1.9450767506093862e-17 2.4890841245318096e-32 1.0
outer loop
vertex 6.676525558860192 24.559341995574325 1.5
vertex 15.676525558860188 3.5593419955743264 1.5
vertex 6.676525558860192 27.559341995574332 1.5
endloop
endfacet
facet normal 1.9450767506093862e-17 2.4890841245318096e-32 1.0
outer loop
vertex 6.676525558860192 27.559341995574332 1.5
vertex 15.676525558860188 3.5593419955743264 1.5
vertex 15.676525558860188 27.559341995574332 1.5
endloop
endfacet
facet normal 1.9450767506093862e-17 2.4890841245318096e-32 1.0
outer loop
vertex 15.676525558860188 27.559341995574332 1.5
vertex 15.676525558860188 3.5593419955743264 1.5
vertex 15.676525558860188 6.559341995574327 1.5
endloop
endfacet
facet normal 1.9450767506093862e-17 2.4890841245318096e-32 1.0
outer loop
vertex 15.676525558860188 27.559341995574332 1.5
vertex 15.676525558860188 6.559341995574327 1.5
vertex 15.676525558860188 24.559341995574325 1.5
endloop
endfacet
facet normal 1.9450767506093862e-17 2.4890841245318096e-32 1.0
outer loop
vertex 6.676525558860192 18.559341995574325 1.5
vertex 3.6765255588601913 24.559341995574325 1.5
vertex 3.6765255588601913 18.559341995574325 1.5
endloop
endfacet
facet normal 1.9450767506093862e-17 2.4890841245318096e-32 1.0
outer loop
vertex 3.6765255588601913 24.559341995574325 1.5
vertex 6.676525558860192 18.559341995574325 1.5
vertex 6.676525558860192 24.559341995574325 1.5
endloop
endfacet
facet normal -4.6999441375798307e-17 -9.791550286624648e-17 1.0
outer loop
vertex 59.676525558860185 13.759341995574326 1.4999999999999991
vertex 52.17652555886019 17.359341995574326 1.4999999999999991
vertex 52.17652555886019 13.759341995574326 1.4999999999999991
endloop
endfacet
facet normal -4.6999441375798307e-17 -9.791550286624648e-17 1.0
outer loop
vertex 52.17652555886019 17.359341995574326 1.4999999999999991
vertex 59.676525558860185 13.759341995574326 1.4999999999999991
vertex 59.676525558860185 17.359341995574326 1.4999999999999998
endloop
endfacet
facet normal 0.0 0.0 1.0
outer loop
vertex 52.17652555886019 13.759341995574326 3.499999999999999
vertex 49.676525558860185 17.359341995574326 3.499999999999999
vertex 49.676525558860185 13.759341995574326 3.499999999999999
endloop
endfacet
facet normal 0.0 0.0 1.0
outer loop
vertex 49.676525558860185 17.359341995574326 3.499999999999999
vertex 52.17652555886019 13.759341995574326 3.499999999999999
vertex 52.17652555886019 17.359341995574326 3.499999999999999
endloop
endfacet
facet normal 1.0 0.0 0.0
outer loop
vertex 52.17652555886019 17.359341995574326 1.4999999999999991
vertex 52.17652555886019 13.759341995574326 3.499999999999999
vertex 52.17652555886019 13.759341995574326 1.4999999999999991
endloop
endfacet
facet normal 1.0 0.0 0.0
outer loop
vertex 52.17652555886019 13.759341995574326 3.499999999999999
vertex 52.17652555886019 17.359341995574326 1.4999999999999991
vertex 52.17652555886019 17.359341995574326 3.499999999999999
endloop
endfacet
facet normal -1.0 0.0 0.0
outer loop
vertex 49.676525558860185 17.359341995574326 3.499999999999999
vertex 49.676525558860185 13.759341995574326 1.4999999999999991
vertex 49.676525558860185 13.759341995574326 3.499999999999999
endloop
endfacet
facet normal -1.0 0.0 0.0
outer loop
vertex 49.676525558860185 13.759341995574326 1.4999999999999991
vertex 49.676525558860185 17.359341995574326 3.499999999999999
vertex 49.676525558860185 17.359341995574326 1.4999999999999991
endloop
endfacet
endsolid candy
